<svg width="134" height="53" viewBox="0 0 134 53" fill="none" xmlns="http://www.w3.org/2000/svg">
<g id="a" clip-path="url(#clip0_135_3679)">
<path id="Vector" d="M0.333313 26.4585V37.5726H1.59385V27.6036H7.87881V37.5726H9.13935V26.4585H0.333313Z" fill="#5C5B59"/>
<path id="Vector_2" d="M18.265 26.4585H22.446C24.9671 26.4585 26.6183 27.7901 26.6183 30.0182C26.6183 32.415 24.612 33.6489 22.233 33.6489H19.5255V37.5726H18.265V26.4585ZM22.2863 32.5126C24.1327 32.5126 25.3488 31.5273 25.3488 30.0359C25.3488 28.447 24.1593 27.6214 22.3573 27.6214H19.5344V32.5126H22.2951H22.2863Z" fill="#5C5B59"/>
<path id="Vector_3" d="M34.8473 26.4585H36.1078V35.6818L42.7745 26.4585H43.964V37.5726H42.7212V28.3493L36.0723 37.5726H34.8473V26.4585Z" fill="#5C5B59"/>
<path id="Vector_4" d="M53.1251 26.4585H54.4034L58.4602 32.5304L62.5348 26.4585H63.8131V37.5726H62.5525V28.5801L58.4869 34.5277H58.4247L54.3502 28.589V37.5726H53.1251V26.4585Z" fill="#5C5B59"/>
<path id="Vector_5" d="M72.3174 32.0156C72.3174 28.9352 74.6254 26.2455 78.0253 26.2455C81.4252 26.2455 83.7066 28.9086 83.7066 32.0156C83.7066 35.1225 81.3897 37.7945 77.9987 37.7945C74.6077 37.7945 72.3174 35.1314 72.3174 32.0156ZM82.4017 32.0156C82.4017 29.4856 80.5464 27.4084 77.9987 27.4084C75.451 27.4084 73.6312 29.4501 73.6312 32.0156C73.6312 34.581 75.4776 36.6228 78.0342 36.6228C80.5908 36.6228 82.4106 34.581 82.4106 32.0156" fill="#5C5B59"/>
<path id="Vector_6" d="M92.2996 26.4585H96.4807C99.0017 26.4585 100.662 27.7901 100.662 30.0182C100.662 32.415 98.6555 33.6489 96.2765 33.6489H93.5601V37.5726H92.2996V26.4585ZM96.3209 32.5126C98.1673 32.5126 99.3835 31.5273 99.3835 30.0359C99.3835 28.447 98.185 27.6214 96.383 27.6214H93.5601V32.5126H96.3209Z" fill="#5C5B59"/>
<path id="Vector_7" d="M108.873 26.4319H110.134V30.7373H112.956C115.344 30.7373 117.297 31.6871 117.297 34.0129C117.297 36.1878 115.691 37.546 113.152 37.546H108.873V26.4319ZM113.116 36.4008C114.901 36.4008 116.037 35.6019 116.037 34.0306C116.037 32.5837 114.892 31.8558 113.036 31.8558H110.134V36.4008H113.116Z" fill="#5C5B59"/>
<path id="Vector_8" d="M125.517 26.4319H133.587V27.577H126.778V31.3764H132.868V32.5215H126.778V36.4097H133.667V37.546H125.517V26.4319Z" fill="#5C5B59"/>
<path id="Vector_9" d="M67 17.111C69.9206 17.111 72.7435 16.8536 75.3977 16.3476H94.7763V15.3977H91.7315V6.71598H92.3262V5.99693H92.8145V4.70976H93.1518V3.75992H75.3888C74.6698 3.62676 73.933 3.50248 73.1962 3.40483V3.09414C73.1962 3.09414 73.1341 2.88997 72.9743 2.7213C72.8234 2.57039 72.5393 2.40173 72.0777 2.50825C71.5451 2.62365 71.4829 2.55264 71.19 2.23306L71.1367 2.1798C70.7816 1.79809 70.5242 1.5229 69.7785 1.74483C69.2814 1.89574 68.9175 1.86023 68.7044 1.62942C68.5002 1.4075 68.2251 1.34536 68.0298 1.3276V0.333374H65.9614V1.30985C65.7661 1.3276 65.4998 1.39862 65.3045 1.61167C65.0382 1.89574 64.5677 1.8336 64.2215 1.72707C63.4758 1.50515 63.2184 1.78033 62.8633 2.16205C62.8456 2.1798 62.8278 2.19756 62.81 2.21531C62.5171 2.53488 62.4461 2.6059 61.9135 2.4905C61.4519 2.39285 61.1678 2.55264 61.0169 2.70355C60.8571 2.87221 60.8038 3.05863 60.795 3.07638V3.38708C60.0493 3.48473 59.3125 3.60901 58.5934 3.74216H40.8305V4.69201H41.1678V5.97918H41.656V6.69822H42.2597V15.38H39.2148V16.3298H58.5934C61.2388 16.8358 64.0706 17.0933 66.9911 17.0933M59.3835 15.5043C59.2947 15.4865 59.206 15.4776 59.1172 15.4599V13.8442C59.206 13.8442 59.2947 13.862 59.3835 13.862V15.5043ZM60.2446 15.6463C60.1114 15.6285 59.9871 15.6019 59.8629 15.5842V13.8975C59.9871 13.9153 60.1114 13.9153 60.2446 13.933V15.6463ZM61.1057 15.7706C60.9725 15.7528 60.8482 15.7439 60.7239 15.7262V13.9774C60.8482 13.9863 60.9814 13.9952 61.1057 14.004V15.7794V15.7706ZM62.5437 15.9304L62.1443 15.886V14.0484C62.2774 14.0484 62.4106 14.0662 62.5437 14.0751V15.9304ZM62.5437 13.1252C62.3307 13.1252 62.1265 13.0986 61.9135 13.0897C62.1887 13.0187 62.4017 12.8411 62.5437 12.6015V13.1252ZM62.5437 12.0688H60.5553C60.5553 12.5127 60.8216 12.8855 61.2033 13.0542C60.502 13.0098 59.8007 12.9565 59.1261 12.8944V6.71598H59.7297V5.80164C60.4576 5.68624 61.2033 5.57971 61.9578 5.49982V6.30763L62.5615 6.25437V12.0688H62.5437ZM63.7776 16.0369C63.68 16.0369 63.5912 16.0191 63.4936 16.0103V14.1106C63.5912 14.1106 63.6889 14.1106 63.7776 14.1194V16.0369ZM64.7719 16.0901C64.5943 16.0813 64.4257 16.0724 64.257 16.0546V14.1283C64.4346 14.1283 64.6032 14.1461 64.7719 14.1461V16.0813V16.0901ZM65.7661 16.1257C65.5886 16.1257 65.4199 16.1168 65.2512 16.1079V14.1638C65.4199 14.1638 65.5974 14.1638 65.7661 14.1638V16.1257ZM66.7603 16.1434C66.5917 16.1434 66.4141 16.1434 66.2455 16.1434V14.1816C66.4141 14.1816 66.5828 14.1816 66.7603 14.1816V16.1434ZM67.7546 16.1434C67.5859 16.1434 67.4084 16.1434 67.2308 16.1434V14.1816C67.4084 14.1816 67.577 14.1816 67.7546 14.1816V16.1434ZM68.7488 16.1168C68.5801 16.1168 68.4026 16.1257 68.2339 16.1345V14.1727C68.4026 14.1727 68.5801 14.1727 68.7488 14.1727V16.1168ZM69.743 16.0724C69.5744 16.0813 69.4057 16.0901 69.2282 16.1079V14.1727C69.4057 14.1727 69.5744 14.1549 69.743 14.1549V16.0813V16.0724ZM70.5065 16.028C70.4088 16.028 70.32 16.0458 70.2224 16.0546V14.1372C70.32 14.1372 70.4088 14.1372 70.5065 14.1283V16.028ZM70.5065 13.1785C69.3613 13.2229 68.1895 13.2495 67 13.2495C65.8105 13.2495 64.6476 13.2229 63.4936 13.1785V6.17448L64.0972 6.12121V5.32228C65.0471 5.26014 66.0147 5.23351 67 5.23351C67.9854 5.23351 68.9441 5.26902 69.9028 5.32228V6.12121L70.5065 6.17448V13.1785ZM71.8558 15.9037C71.7226 15.9215 71.5895 15.9304 71.4474 15.9481V14.0928C71.5895 14.0928 71.7226 14.0751 71.8558 14.0662V15.9037ZM71.4474 13.143V12.6103C71.5895 12.85 71.8114 13.0276 72.0777 13.0986C71.8646 13.1163 71.6605 13.1252 71.4474 13.143ZM73.2761 15.7351C73.1518 15.7528 73.0187 15.7706 72.8944 15.7794V14.004C73.0187 14.004 73.1518 13.9863 73.2761 13.9774V15.7262V15.7351ZM74.1372 15.6019C74.0129 15.6197 73.8886 15.6463 73.7555 15.664V13.9508C73.8886 13.9419 74.0129 13.933 74.1372 13.9153V15.6019ZM74.8828 15.4776C74.7941 15.4954 74.7053 15.5131 74.6165 15.522V13.8798C74.7053 13.8798 74.7941 13.862 74.8828 13.862V15.4776ZM74.8828 12.9033C74.1993 12.9654 73.5069 13.0187 72.7967 13.0631C73.1784 12.9033 73.4448 12.5216 73.4448 12.0777H71.4474V6.26325L72.0511 6.31651V5.5087C72.8056 5.58859 73.5513 5.69511 74.2792 5.81052V6.72485H74.8828V12.9122V12.9033ZM76.1168 15.3977H75.8327V13.8176H76.1168V15.3977ZM77.111 15.3977H76.5872V13.8176H77.111V15.3977ZM78.1052 15.3977H77.5815V13.8176H78.1052V15.3977ZM79.0994 15.3977H78.5846V13.8176H79.0994V15.3977ZM80.0937 15.3977H79.5699V13.8176H80.0937V15.3977ZM81.0879 15.3977H80.573V13.8176H81.0879V15.3977ZM82.0821 15.3977H81.5673V13.8176H82.0821V15.3977ZM82.8367 15.3977H82.5615V13.8176H82.8367V15.3977ZM82.8367 12.8678H75.8327V6.71598H76.4274V5.99693H82.233V6.71598H82.8278V12.8678H82.8367ZM84.0706 15.3977H83.7865V13.8176H84.0706V15.3977ZM85.0648 15.3977H84.55V13.8176H85.0648V15.3977ZM86.059 15.3977H85.5353V13.8176H86.059V15.3977ZM87.0533 15.3977H86.5384V13.8176H87.0533V15.3977ZM88.0475 15.3977H87.5326V13.8176H88.0475V15.3977ZM89.0417 15.3977H88.518V13.8176H89.0417V15.3977ZM90.036 15.3977H89.5211V13.8176H90.036V15.3977ZM90.7905 15.3977H90.5065V13.8176H90.7905V15.3977ZM90.7905 12.8678H83.7865V6.71598H84.3902V5.99693H90.1958V6.71598H90.7905V12.8678ZM68.0298 1.78921C68.1363 1.80696 68.2694 1.85135 68.3582 1.949C68.5269 2.12654 68.8109 2.30408 69.2548 2.30408C69.4412 2.30408 69.6631 2.26857 69.9206 2.19756C70.3822 2.05552 70.4621 2.14429 70.7905 2.49938C70.8083 2.51713 70.826 2.53488 70.8349 2.55264C71.1101 2.84558 71.3054 3.032 71.7137 3.032C71.8469 3.032 71.9889 3.01424 72.1753 2.96986C72.3706 2.92547 72.5215 2.9521 72.6192 3.04975C72.6725 3.10301 72.6991 3.16515 72.7168 3.19179V3.35157C71.19 3.15628 69.6187 3.04975 68.0209 3.01424V1.78921H68.0298ZM66.4408 0.812735H67.5593V2.99649C67.3729 2.99649 67.1953 2.99649 67 2.99649C66.8047 2.99649 66.6272 2.99649 66.4408 2.99649V0.812735ZM61.2743 3.18291C61.2743 3.18291 61.3187 3.09414 61.372 3.04088C61.4696 2.9521 61.6205 2.92547 61.8247 2.96098C62.0111 3.00537 62.162 3.02312 62.2863 3.02312C62.6946 3.02312 62.8899 2.84558 63.1651 2.54376C63.1829 2.52601 63.2006 2.50825 63.2095 2.4905C63.5468 2.13542 63.6267 2.04665 64.0883 2.18868C64.3369 2.25969 64.5677 2.2952 64.7541 2.2952C65.198 2.2952 65.482 2.11766 65.6507 1.94012C65.7395 1.85135 65.8638 1.80696 65.9703 1.78921V3.00537C64.3635 3.04088 62.8012 3.1474 61.2743 3.3427V3.18291ZM41.6472 5.52645V4.70976H58.7355C61.3365 4.20377 64.115 3.94633 67 3.94633C69.8851 3.94633 72.6636 4.19489 75.2646 4.69201H92.3529V5.51757H75.38C72.7435 5.01158 69.9206 4.75415 67.0089 4.75415C64.0972 4.75415 61.2743 5.01158 58.6378 5.51757H41.656L41.6472 5.52645ZM43.4936 15.3977H43.2095V13.8176H43.4936V15.3977ZM44.4878 15.3977H43.9641V13.8176H44.4878V15.3977ZM45.482 15.3977H44.9583V13.8176H45.482V15.3977ZM46.4763 15.3977H45.9525V13.8176H46.4763V15.3977ZM47.4705 15.3977H46.9468V13.8176H47.4705V15.3977ZM48.4647 15.3977H47.9499V13.8176H48.4647V15.3977ZM49.459 15.3977H48.9352V13.8176H49.459V15.3977ZM50.2135 15.3977H49.9294V13.8176H50.2135V15.3977ZM50.2135 12.8678H43.2095V6.71598H43.8132V5.99693H49.6187V6.71598H50.2135V12.8678ZM51.4474 15.3977H51.1634V13.8176H51.4474V15.3977ZM52.4417 15.3977H51.9179V13.8176H52.4417V15.3977ZM53.4359 15.3977H52.921V13.8176H53.4359V15.3977ZM54.4301 15.3977H53.9064V13.8176H54.4301V15.3977ZM55.4243 15.3977H54.9095V13.8176H55.4243V15.3977ZM56.4186 15.3977H55.9037V13.8176H56.4186V15.3977ZM57.4128 15.3977H56.8891V13.8176H57.4128V15.3977ZM58.1674 15.3977H57.8833V13.8176H58.1674V15.3977ZM58.1674 12.8678H51.1634V6.71598H51.7581V5.99693H57.5637V6.71598H58.1674V12.8678Z" fill="#5C5B59"/>
<path id="Vector_10" d="M20.9192 50.1513C20.9192 48.66 22.0555 47.3994 23.6622 47.3994C24.5854 47.3994 25.1624 47.6568 25.7039 48.1273L25.1092 48.8286C24.7008 48.4824 24.2925 48.2605 23.6178 48.2605C22.6325 48.2605 21.8868 49.1216 21.8868 50.1513C21.8868 51.2432 22.6147 52.051 23.6977 52.051C24.2037 52.051 24.6565 51.8912 24.9849 51.6515V50.6573H23.6267V49.8406H25.8904V52.0776C25.3666 52.5215 24.6121 52.9032 23.6711 52.9032C22.0111 52.9032 20.9103 51.7225 20.9103 50.1513" fill="#5C5B59"/>
<path id="Vector_11" d="M27.1065 47.4883H29.4767C30.7195 47.4883 31.4474 48.1541 31.4474 49.1838C31.4474 50.0626 30.9236 50.5864 30.178 50.7994L31.6161 52.8145H30.5153L29.1926 50.9592H28.0386V52.8145H27.1065V47.4972V47.4883ZM29.4057 50.1248C30.0714 50.1248 30.4975 49.7786 30.4975 49.2193C30.4975 48.6601 30.0892 48.3405 29.3879 48.3405H28.0297V50.1248H29.3968H29.4057Z" fill="#5C5B59"/>
<path id="Vector_12" d="M34.9005 48.5714L35.8149 50.7019H33.9773L34.8917 48.5714H34.9005ZM34.4833 47.4529L32.1398 52.8146H33.0985L33.6489 51.5274H36.1611L36.7026 52.8146H37.6879L35.3533 47.4529H34.4833Z" fill="#5C5B59"/>
<path id="Vector_13" d="M42.3129 47.4883V51.1634L39.4633 47.4883H38.5934V52.8145H39.5166V49.024L42.446 52.8145H43.2361V47.4883H42.3129Z" fill="#5C5B59"/>
<path id="Vector_14" d="M44.6031 47.4883H46.5827C48.2516 47.4883 49.4145 48.6334 49.4145 50.1514C49.4145 51.6694 48.2605 52.8145 46.5827 52.8145H44.6031V47.4972V47.4883ZM46.5827 51.9534C47.7012 51.9534 48.4292 51.1989 48.4292 50.1425C48.4292 49.0862 47.7012 48.3316 46.5827 48.3316H45.5352V51.9534H46.5827Z" fill="#5C5B59"/>
<path id="Vector_15" d="M52.8144 47.4883H55.1846C56.4274 47.4883 57.1553 48.1541 57.1553 49.1838C57.1553 50.0626 56.6316 50.5864 55.8859 50.7994L57.324 52.8145H56.2232L54.9005 50.9592H53.7465V52.8145H52.8055V47.4972L52.8144 47.4883ZM55.1225 50.1248C55.7882 50.1248 56.2143 49.7786 56.2143 49.2193C56.2143 48.6601 55.806 48.3405 55.1136 48.3405H53.7554V50.1248H55.1225Z" fill="#5C5B59"/>
<path id="Vector_16" d="M58.3093 47.4883V52.8145H62.2862V51.9712H59.2414V50.542H61.9134V49.7164H59.2414V48.3227H62.2507V47.4883H58.3093Z" fill="#5C5B59"/>
<path id="Vector_17" d="M63.0409 52.0333L63.6001 51.3675C64.1061 51.8114 64.621 52.0599 65.2779 52.0599C65.8549 52.0599 66.2188 51.7936 66.2188 51.3764C66.2188 50.9947 66.0058 50.7905 65.0204 50.5597C63.8842 50.2934 63.245 49.9561 63.245 48.9618C63.245 48.0564 64.0085 47.4172 65.0648 47.4172C65.8371 47.4172 66.4496 47.6569 66.9911 48.083L66.494 48.7932C66.0147 48.4381 65.5353 48.2428 65.056 48.2428C64.5056 48.2428 64.186 48.5269 64.186 48.8908C64.186 49.2992 64.4346 49.4856 65.4465 49.7253C66.5739 50.0005 67.1509 50.3999 67.1509 51.2965C67.1509 52.2907 66.3698 52.8855 65.2512 52.8855C64.4434 52.8855 63.6711 52.6014 63.032 52.0333" fill="#5C5B59"/>
<path id="Vector_18" d="M68.0209 50.1513C68.0209 48.6511 69.1749 47.3994 70.8083 47.3994C72.4416 47.3994 73.5868 48.6422 73.5868 50.1513C73.5868 51.6604 72.4328 52.9032 70.7994 52.9032C69.166 52.9032 68.0298 51.6693 68.0298 50.1513M72.6103 50.1513C72.6103 49.1216 71.8558 48.2605 70.7994 48.2605C69.743 48.2605 69.0062 49.1038 69.0062 50.1513C69.0062 51.1988 69.7608 52.0421 70.8171 52.0421C71.8735 52.0421 72.6103 51.1988 72.6103 50.1513Z" fill="#5C5B59"/>
<path id="Vector_19" d="M74.7141 47.4883H77.0843C78.3271 47.4883 79.0639 48.1541 79.0639 49.1838C79.0639 50.0626 78.5401 50.5864 77.7944 50.7994L79.2325 52.8145H78.1318L76.8091 50.9592H75.6551V52.8145H74.7141V47.4972V47.4883ZM77.0221 50.1248C77.6879 50.1248 78.114 49.7786 78.114 49.2193C78.114 48.6601 77.7057 48.3405 77.0133 48.3405H75.6551V50.1248H77.0221Z" fill="#5C5B59"/>
<path id="Vector_20" d="M79.8273 47.4883V48.3582H81.505V52.8145H82.4549V48.3582H84.1415V47.4883H79.8273Z" fill="#5C5B59"/>
<path id="Vector_21" d="M90.8793 47.4883V49.6987H88.3404V47.4883H87.4083V52.8145H88.3404V50.5686H90.8793V52.8145H91.8113V47.4883H90.8793Z" fill="#5C5B59"/>
<path id="Vector_22" d="M92.9387 50.1513C92.9387 48.6511 94.0927 47.3994 95.7261 47.3994C97.3595 47.3994 98.5046 48.6422 98.5046 50.1513C98.5046 51.6604 97.3506 52.9032 95.7172 52.9032C94.0839 52.9032 92.9387 51.6693 92.9387 50.1513ZM97.5193 50.1513C97.5193 49.1216 96.7736 48.2605 95.7172 48.2605C94.6609 48.2605 93.9241 49.1038 93.9241 50.1513C93.9241 51.1988 94.6786 52.0421 95.735 52.0421C96.7914 52.0421 97.5282 51.1988 97.5282 50.1513" fill="#5C5B59"/>
<path id="Vector_23" d="M98.9662 47.4883V48.3582H100.653V52.8145H101.594V48.3582H103.28V47.4883H98.9662Z" fill="#5C5B59"/>
<path id="Vector_24" d="M104.266 47.4883V52.8145H108.243V51.9712H105.198V50.542H107.861V49.7164H105.198V48.3227H108.207V47.4883H104.266Z" fill="#5C5B59"/>
<path id="Vector_25" d="M109.352 47.4883V52.8145H113.081V51.9623H110.293V47.4883H109.352Z" fill="#5C5B59"/>
</g>
<defs>
<clipPath id="clip0_135_3679">
<rect width="133.333" height="52.5699" fill="white" transform="translate(0.333313 0.333374)"/>
</clipPath>
</defs>
</svg>
