<svg width="134" height="37" viewBox="0 0 134 37" fill="none" xmlns="http://www.w3.org/2000/svg">
<g id="a" clip-path="url(#clip0_135_3530)">
<path id="Vector" d="M112.626 1.56939V35.9668H133.694V33.6968H117.694V16.5368H133.21V14.2669H117.694V3.83933H133.694V1.56939H112.626ZM90.6291 1.49845C89.0557 1.93052 87.5854 2.53669 86.2182 3.31699C84.8511 4.09728 83.6129 5.03234 82.4909 6.12862C81.3688 7.2249 80.4144 8.43726 79.6212 9.77214C78.828 11.107 78.2089 12.5451 77.7704 14.0863C77.3319 15.6276 77.1127 17.2268 77.1127 18.8777C77.1127 20.5286 77.3319 22.115 77.7704 23.6304C78.2089 25.1523 78.828 26.571 79.6212 27.8994C80.4144 29.2279 81.3753 30.4338 82.4909 31.5236C83.6129 32.6134 84.8511 33.5485 86.2182 34.3352C87.5854 35.122 89.0557 35.7282 90.6291 36.1538C92.2026 36.5794 93.847 36.7922 95.5624 36.7922C98.3998 36.7922 101.024 36.3085 103.436 35.3348C105.842 34.361 107.957 33.0133 109.782 31.285L108.46 29.5954C107.75 30.3693 106.938 31.0528 106.016 31.6526C105.1 32.2523 104.12 32.7618 103.088 33.1809C102.056 33.6001 100.979 33.9161 99.8701 34.1289C98.7609 34.3481 97.6647 34.4513 96.5813 34.4513C94.3242 34.4513 92.3316 34.0386 90.584 33.2132C88.8428 32.3877 87.379 31.2657 86.1989 29.8469C85.0188 28.4282 84.1224 26.7774 83.5162 24.8943C82.9036 23.0113 82.6005 21.0058 82.6005 18.8777C82.6005 16.7496 82.91 14.6667 83.5291 12.7708C84.1482 10.8749 85.051 9.21755 86.2376 7.79883C87.4241 6.38012 88.8944 5.26449 90.6356 4.44551C92.3767 3.62652 94.3758 3.22026 96.6329 3.22026C97.684 3.22026 98.7223 3.32988 99.7605 3.55559C100.792 3.78129 101.792 4.07793 102.746 4.45841C103.701 4.83888 104.616 5.29029 105.48 5.81263C106.345 6.33498 107.131 6.90246 107.841 7.50219L109.137 5.79329C107.364 4.25205 105.326 3.04614 103.036 2.17557C100.747 1.30499 98.2579 0.866481 95.5688 0.866481C93.8535 0.866481 92.2091 1.07929 90.6356 1.51135M73.9592 1.58229H68.8648V35.9668H73.9592V1.56939V1.58229ZM41.6577 33.1809C40.0391 32.3619 38.6848 31.2463 37.595 29.8276C36.5052 28.4089 35.6862 26.7387 35.1316 24.817C34.577 22.8952 34.2997 20.8317 34.2997 18.6262C34.2997 16.4207 34.5706 14.383 35.1187 12.4741C35.6669 10.5653 36.4858 8.90156 37.5757 7.50219C38.6655 6.09638 40.0133 4.99365 41.6255 4.18111C43.2376 3.36858 45.1207 2.96876 47.2616 2.96876C49.4026 2.96876 51.2469 3.37503 52.8655 4.18111C54.4842 4.99365 55.8384 6.09638 56.9282 7.50219C58.0181 8.90801 58.837 10.5653 59.3916 12.4741C59.9462 14.3894 60.2235 16.4401 60.2235 18.6262C60.2235 20.8123 59.9398 22.8952 59.3787 24.817C58.8177 26.7387 57.9858 28.4089 56.8895 29.8276C55.7933 31.2463 54.439 32.3619 52.8269 33.1809C51.2147 33.9999 49.3574 34.4062 47.2552 34.4062C45.14 34.4062 43.2699 33.9999 41.6512 33.1809M52.1175 36.0055C53.6781 35.5734 55.1355 34.9672 56.4962 34.1869C57.8568 33.4066 59.095 32.4716 60.2106 31.3753C61.3262 30.279 62.2871 29.0667 63.0803 27.7318C63.8735 26.3969 64.4926 24.9653 64.9311 23.4305C65.3696 21.8957 65.5888 20.2964 65.5888 18.6327C65.5888 16.9689 65.3696 15.4148 64.9311 13.8929C64.4926 12.3645 63.8735 10.9394 63.0803 9.61092C62.2871 8.28249 61.3262 7.07658 60.2106 5.9803C59.0885 4.88402 57.8504 3.94896 56.4962 3.16867C55.1355 2.38837 53.6781 1.78865 52.1175 1.36303C50.5569 0.937416 48.9383 0.724609 47.2552 0.724609C45.5721 0.724609 43.9212 0.943865 42.3606 1.36948C40.7936 1.80154 39.3297 2.40127 37.9626 3.17512C36.5955 3.94896 35.3509 4.87757 34.2352 5.97385C33.1132 7.07013 32.1523 8.28249 31.3527 9.60447C30.5466 10.9329 29.9275 12.3581 29.489 13.8864C29.0505 15.4148 28.8312 16.9947 28.8312 18.6262C28.8312 20.2577 29.0505 21.8892 29.489 23.424C29.9275 24.9588 30.553 26.3904 31.3527 27.7253C32.1523 29.0602 33.1132 30.2726 34.2352 31.3688C35.3509 32.4651 36.5955 33.4002 37.9626 34.1805C39.3297 34.9608 40.7936 35.5669 42.3606 35.999C43.9276 36.4311 45.5592 36.6439 47.2552 36.6439C48.9383 36.6439 50.5569 36.4246 52.1175 35.9926M14.1153 35.9668H19.5773L18.2812 32.8456L31.4365 1.56939H28.8183L17.0108 29.6277L5.6933 1.56939H0.366669L14.1217 35.9668H14.1153Z" fill="black"/>
<path id="Vector_2" d="M129.799 29.3828C129.889 29.1313 130.024 28.9184 130.198 28.7379C130.372 28.5573 130.585 28.409 130.837 28.3058C131.088 28.2026 131.366 28.151 131.682 28.1446C131.83 28.1446 131.985 28.1575 132.133 28.1897C132.281 28.222 132.43 28.2607 132.565 28.3123C132.7 28.3639 132.836 28.4283 132.958 28.4993C133.081 28.5702 133.197 28.6476 133.3 28.7314L133.487 28.4993C133.229 28.2929 132.939 28.1317 132.604 28.0092C132.275 27.8931 131.914 27.8286 131.527 27.8286C131.282 27.8286 131.043 27.8544 130.817 27.9124C130.592 27.964 130.379 28.0414 130.179 28.1446C129.986 28.2478 129.805 28.3703 129.644 28.5122C129.483 28.654 129.347 28.8153 129.231 28.9894C129.115 29.1635 129.031 29.357 128.967 29.5633C128.902 29.7697 128.87 29.9825 128.87 30.2082C128.87 30.479 128.902 30.7176 128.973 30.9433C129.038 31.1626 129.134 31.3625 129.263 31.5431C129.386 31.7236 129.534 31.8784 129.708 32.0074C129.882 32.1428 130.076 32.246 130.289 32.3363C130.501 32.4265 130.734 32.491 130.979 32.5362C131.224 32.5813 131.475 32.6007 131.746 32.6007H133.507V29.5827H132.778V32.2976H132.049C131.682 32.2976 131.353 32.246 131.056 32.1492C130.759 32.0525 130.514 31.9106 130.308 31.7301C130.102 31.5495 129.947 31.3303 129.837 31.0723C129.728 30.8144 129.67 30.5306 129.67 30.2146C129.67 29.918 129.715 29.6471 129.811 29.3956M126.458 28.9765L127.69 31.6849H125.246L126.452 28.9765H126.458ZM126.774 27.9382H125.994L126.258 28.538L124.44 32.6007H124.846L125.11 31.9945H127.825L128.096 32.6007H128.87L126.774 27.9382ZM119.9 27.9382H119.042L119.313 28.2349V32.6071H119.655V28.6089L121.396 30.5177L123.15 28.6154V32.6071H123.879V27.9447H123.15V28.1382L121.596 29.8213L119.9 27.9447V27.9382Z" fill="black"/>
<path id="Vector_3" d="M19.6096 2.72376C19.687 2.77535 19.745 2.84629 19.7902 2.93657C19.8353 3.02685 19.8675 3.12358 19.8869 3.23966C19.9062 3.35573 19.9191 3.47181 19.9191 3.59434V3.72976H18.5585C18.5585 3.58789 18.5778 3.45246 18.6036 3.32349C18.6294 3.19452 18.681 3.07844 18.739 2.97526C18.7971 2.87853 18.8744 2.7947 18.9712 2.73666C19.0679 2.67862 19.1775 2.64638 19.313 2.64638C19.4355 2.64638 19.5322 2.67217 19.6096 2.72376ZM18.739 2.48516C18.5649 2.56899 18.4166 2.68507 18.2941 2.83339C18.1715 2.97526 18.0813 3.14293 18.0168 3.32994C17.9523 3.51695 17.92 3.71041 17.92 3.91032C17.92 4.14892 17.9523 4.36818 18.0168 4.55519C18.0813 4.74221 18.1844 4.90342 18.3263 5.0324C18.4682 5.16137 18.6487 5.26455 18.8615 5.32904C19.0808 5.39997 19.3387 5.43222 19.6354 5.43222H20.3125V5.16782H19.6418C19.4419 5.16782 19.2743 5.12913 19.1324 5.05174C18.997 4.97436 18.8809 4.87763 18.7971 4.7551C18.7132 4.63903 18.6487 4.51005 18.61 4.36818C18.5714 4.23276 18.552 4.09733 18.552 3.98126H20.5318V3.83294C20.5318 3.63303 20.5124 3.44602 20.4673 3.26545C20.4286 3.08489 20.3576 2.93012 20.2609 2.7947C20.1642 2.65927 20.0417 2.54965 19.8933 2.46581C19.745 2.38843 19.558 2.34329 19.3387 2.34329C19.113 2.34329 18.9067 2.38843 18.7326 2.47226M15.6759 0.666626H15.031V5.43866H15.6759V2.91722C15.8564 2.83339 16.0241 2.7818 16.166 2.74956C16.3079 2.72376 16.4368 2.71086 16.5465 2.71086C16.6109 2.71086 16.669 2.72376 16.7141 2.74956C16.7593 2.77535 16.7915 2.80759 16.8173 2.84629C16.8431 2.88498 16.856 2.93012 16.8689 2.97526C16.8753 3.02685 16.8818 3.07199 16.8818 3.11713V5.43866H17.5331V3.0204C17.5331 2.78825 17.4815 2.62058 17.3719 2.51095C17.2623 2.40133 17.1139 2.35619 16.914 2.35619C16.8302 2.35619 16.7464 2.35619 16.6625 2.36908C16.5787 2.37553 16.482 2.39488 16.3788 2.42067C16.2756 2.44647 16.1724 2.47871 16.0564 2.5174C15.9403 2.5561 15.8178 2.60768 15.6759 2.66572V0.666626ZM14.7215 2.41422H14.2894V1.24056L13.6703 1.42757V2.41422H13.2512V2.70442H13.6703V5.43866H14.2894V2.70442H14.7215V2.41422Z" fill="black"/>
</g>
<defs>
<clipPath id="clip0_135_3530">
<rect width="133.333" height="36.1127" fill="white" transform="translate(0.366669 0.666626)"/>
</clipPath>
</defs>
</svg>
