<svg width="134" height="37" viewBox="0 0 134 37" fill="none" xmlns="http://www.w3.org/2000/svg">
<g id="a" clip-path="url(#clip0_170_4490)">
<path id="Vector" d="M112.426 1.56939V35.9668H133.494V33.6968H117.494V16.5368H133.01V14.2669H117.494V3.83933H133.494V1.56939H112.426ZM90.4291 1.49845C88.8556 1.93052 87.3853 2.53669 86.0182 3.31699C84.6511 4.09728 83.4129 5.03234 82.2909 6.12862C81.1688 7.2249 80.2144 8.43726 79.4212 9.77214C78.628 11.107 78.0089 12.5451 77.5704 14.0863C77.1319 15.6276 76.9127 17.2268 76.9127 18.8777C76.9127 20.5286 77.1319 22.115 77.5704 23.6304C78.0089 25.1523 78.628 26.571 79.4212 27.8994C80.2144 29.2279 81.1752 30.4338 82.2909 31.5236C83.4129 32.6134 84.6511 33.5485 86.0182 34.3352C87.3853 35.122 88.8556 35.7282 90.4291 36.1538C92.0026 36.5794 93.647 36.7922 95.3624 36.7922C98.1998 36.7922 100.824 36.3085 103.236 35.3348C105.642 34.361 107.757 33.0133 109.582 31.285L108.26 29.5954C107.55 30.3693 106.738 31.0528 105.816 31.6526C104.9 32.2523 103.92 32.7618 102.888 33.1809C101.856 33.6001 100.779 33.9161 99.6701 34.1289C98.5609 34.3481 97.4647 34.4513 96.3813 34.4513C94.1242 34.4513 92.1316 34.0386 90.384 33.2132C88.6428 32.3877 87.179 31.2657 85.9989 29.8469C84.8188 28.4282 83.9224 26.7774 83.3162 24.8943C82.7036 23.0113 82.4005 21.0058 82.4005 18.8777C82.4005 16.7496 82.71 14.6667 83.3291 12.7708C83.9482 10.8749 84.851 9.21755 86.0376 7.79883C87.2241 6.38012 88.6944 5.26449 90.4356 4.44551C92.1767 3.62652 94.1758 3.22026 96.4329 3.22026C97.484 3.22026 98.5222 3.32988 99.5605 3.55559C100.592 3.78129 101.592 4.07793 102.546 4.45841C103.501 4.83888 104.416 5.29029 105.28 5.81263C106.145 6.33498 106.931 6.90246 107.641 7.50219L108.937 5.79329C107.164 4.25205 105.126 3.04614 102.836 2.17557C100.547 1.30499 98.0579 0.866481 95.3688 0.866481C93.6535 0.866481 92.0091 1.07929 90.4356 1.51135M73.7592 1.58229H68.6648V35.9668H73.7592V1.56939V1.58229ZM41.4577 33.1809C39.8391 32.3619 38.4848 31.2463 37.395 29.8276C36.3052 28.4089 35.4862 26.7387 34.9316 24.817C34.377 22.8952 34.0997 20.8317 34.0997 18.6262C34.0997 16.4207 34.3706 14.383 34.9187 12.4741C35.4668 10.5653 36.2858 8.90156 37.3757 7.50219C38.4655 6.09638 39.8133 4.99365 41.4254 4.18111C43.0376 3.36858 44.9206 2.96876 47.0616 2.96876C49.2026 2.96876 51.0469 3.37503 52.6655 4.18111C54.2842 4.99365 55.6384 6.09638 56.7282 7.50219C57.818 8.90801 58.637 10.5653 59.1916 12.4741C59.7462 14.3894 60.0235 16.4401 60.0235 18.6262C60.0235 20.8123 59.7398 22.8952 59.1787 24.817C58.6177 26.7387 57.7858 28.4089 56.6895 29.8276C55.5932 31.2463 54.239 32.3619 52.6268 33.1809C51.0147 33.9999 49.1574 34.4062 47.0552 34.4062C44.94 34.4062 43.0699 33.9999 41.4512 33.1809M51.9175 36.0055C53.4781 35.5734 54.9355 34.9672 56.2962 34.1869C57.6568 33.4066 58.895 32.4716 60.0106 31.3753C61.1262 30.279 62.0871 29.0667 62.8803 27.7318C63.6735 26.3969 64.2925 24.9653 64.7311 23.4305C65.1696 21.8957 65.3888 20.2964 65.3888 18.6327C65.3888 16.9689 65.1696 15.4148 64.7311 13.8929C64.2925 12.3645 63.6735 10.9394 62.8803 9.61092C62.0871 8.28249 61.1262 7.07658 60.0106 5.9803C58.8885 4.88402 57.6504 3.94896 56.2962 3.16867C54.9355 2.38837 53.4781 1.78865 51.9175 1.36303C50.3569 0.937416 48.7383 0.724609 47.0552 0.724609C45.3721 0.724609 43.7212 0.943865 42.1606 1.36948C40.5936 1.80154 39.1297 2.40127 37.7626 3.17512C36.3955 3.94896 35.1509 4.87757 34.0352 5.97385C32.9132 7.07013 31.9523 8.28249 31.1527 9.60447C30.3466 10.9329 29.7275 12.3581 29.289 13.8864C28.8505 15.4148 28.6312 16.9947 28.6312 18.6262C28.6312 20.2577 28.8505 21.8892 29.289 23.424C29.7275 24.9588 30.353 26.3904 31.1527 27.7253C31.9523 29.0602 32.9132 30.2726 34.0352 31.3688C35.1509 32.4651 36.3955 33.4002 37.7626 34.1805C39.1297 34.9608 40.5936 35.5669 42.1606 35.999C43.7276 36.4311 45.3592 36.6439 47.0552 36.6439C48.7383 36.6439 50.3569 36.4246 51.9175 35.9926M13.9153 35.9668H19.3773L18.0811 32.8456L31.2365 1.56939H28.6183L16.8108 29.6277L5.49328 1.56939H0.166656L13.9217 35.9668H13.9153Z" fill="black"/>
<path id="Vector_2" d="M129.599 29.3828C129.689 29.1313 129.824 28.9184 129.998 28.7379C130.172 28.5573 130.385 28.409 130.637 28.3058C130.888 28.2026 131.166 28.151 131.482 28.1446C131.63 28.1446 131.785 28.1575 131.933 28.1897C132.081 28.222 132.23 28.2607 132.365 28.3123C132.5 28.3639 132.636 28.4283 132.758 28.4993C132.881 28.5702 132.997 28.6476 133.1 28.7314L133.287 28.4993C133.029 28.2929 132.739 28.1317 132.404 28.0092C132.075 27.8931 131.714 27.8286 131.327 27.8286C131.082 27.8286 130.843 27.8544 130.617 27.9124C130.392 27.964 130.179 28.0414 129.979 28.1446C129.786 28.2478 129.605 28.3703 129.444 28.5122C129.283 28.654 129.147 28.8153 129.031 28.9894C128.915 29.1635 128.831 29.357 128.767 29.5633C128.702 29.7697 128.67 29.9825 128.67 30.2082C128.67 30.479 128.702 30.7176 128.773 30.9433C128.838 31.1626 128.934 31.3625 129.063 31.5431C129.186 31.7236 129.334 31.8784 129.508 32.0074C129.682 32.1428 129.876 32.246 130.089 32.3363C130.301 32.4265 130.534 32.491 130.779 32.5362C131.024 32.5813 131.275 32.6007 131.546 32.6007H133.307V29.5827H132.578V32.2976H131.849C131.482 32.2976 131.153 32.246 130.856 32.1492C130.559 32.0525 130.314 31.9106 130.108 31.7301C129.902 31.5495 129.747 31.3303 129.637 31.0723C129.528 30.8144 129.47 30.5306 129.47 30.2146C129.47 29.918 129.515 29.6471 129.611 29.3956M126.258 28.9765L127.49 31.6849H125.046L126.252 28.9765H126.258ZM126.574 27.9382H125.794L126.058 28.538L124.24 32.6007H124.646L124.91 31.9945H127.625L127.896 32.6007H128.67L126.574 27.9382ZM119.7 27.9382H118.842L119.113 28.2349V32.6071H119.455V28.6089L121.196 30.5177L122.95 28.6154V32.6071H123.679V27.9447H122.95V28.1382L121.396 29.8213L119.7 27.9447V27.9382Z" fill="black"/>
<path id="Vector_3" d="M19.4096 2.72376C19.487 2.77535 19.545 2.84629 19.5901 2.93657C19.6353 3.02685 19.6675 3.12358 19.6869 3.23966C19.7062 3.35573 19.7191 3.47181 19.7191 3.59434V3.72976H18.3584C18.3584 3.58789 18.3778 3.45246 18.4036 3.32349C18.4294 3.19452 18.481 3.07844 18.539 2.97526C18.597 2.87853 18.6744 2.7947 18.7711 2.73666C18.8679 2.67862 18.9775 2.64638 19.1129 2.64638C19.2355 2.64638 19.3322 2.67217 19.4096 2.72376ZM18.539 2.48516C18.3649 2.56899 18.2166 2.68507 18.094 2.83339C17.9715 2.97526 17.8812 3.14293 17.8167 3.32994C17.7523 3.51695 17.72 3.71041 17.72 3.91032C17.72 4.14892 17.7523 4.36818 17.8167 4.55519C17.8812 4.74221 17.9844 4.90342 18.1263 5.0324C18.2681 5.16137 18.4487 5.26455 18.6615 5.32904C18.8808 5.39997 19.1387 5.43222 19.4354 5.43222H20.1125V5.16782H19.4418C19.2419 5.16782 19.0742 5.12913 18.9324 5.05174C18.7969 4.97436 18.6809 4.87763 18.597 4.7551C18.5132 4.63903 18.4487 4.51005 18.41 4.36818C18.3713 4.23276 18.352 4.09733 18.352 3.98126H20.3317V3.83294C20.3317 3.63303 20.3124 3.44602 20.2672 3.26545C20.2286 3.08489 20.1576 2.93012 20.0609 2.7947C19.9642 2.65927 19.8416 2.54965 19.6933 2.46581C19.545 2.38843 19.358 2.34329 19.1387 2.34329C18.913 2.34329 18.7067 2.38843 18.5325 2.47226M15.4759 0.666626H14.831V5.43866H15.4759V2.91722C15.6564 2.83339 15.8241 2.7818 15.966 2.74956C16.1078 2.72376 16.2368 2.71086 16.3464 2.71086C16.4109 2.71086 16.469 2.72376 16.5141 2.74956C16.5592 2.77535 16.5915 2.80759 16.6173 2.84629C16.6431 2.88498 16.656 2.93012 16.6689 2.97526C16.6753 3.02685 16.6818 3.07199 16.6818 3.11713V5.43866H17.3331V3.0204C17.3331 2.78825 17.2815 2.62058 17.1719 2.51095C17.0622 2.40133 16.9139 2.35619 16.714 2.35619C16.6302 2.35619 16.5463 2.35619 16.4625 2.36908C16.3787 2.37553 16.2819 2.39488 16.1788 2.42067C16.0756 2.44647 15.9724 2.47871 15.8563 2.5174C15.7403 2.5561 15.6177 2.60768 15.4759 2.66572V0.666626ZM14.5215 2.41422H14.0894V1.24056L13.4703 1.42757V2.41422H13.0511V2.70442H13.4703V5.43866H14.0894V2.70442H14.5215V2.41422Z" fill="black"/>
</g>
<defs>
<clipPath id="clip0_170_4490">
<rect width="133.333" height="36.1127" fill="white" transform="translate(0.166656 0.666626)"/>
</clipPath>
</defs>
</svg>
