<svg width="98" height="34" viewBox="0 0 98 34" fill="none" xmlns="http://www.w3.org/2000/svg">
<g id="a" clip-path="url(#clip0_168_4340)">
<path id="Vector" d="M66.0838 0.424805H57.1518L48.8846 20.246L40.5815 0.424805H31.6496L45.354 33.196H52.3873L66.0838 0.424805Z" fill="#1D1D1B"/>
<path id="Vector_2" d="M24.1306 0.424805H14.2235L0.511108 33.196H9.45103L11.4731 28.3551H26.905L28.931 33.196H37.8709L24.1306 0.424805ZM19.1751 9.89783L23.5137 20.2421H14.8365L19.1751 9.89783Z" fill="#1D1D1B"/>
<path id="Vector_3" d="M83.478 0.424805H73.5708L59.8585 33.196H68.7984L70.8204 28.3551H86.2523L88.2783 33.196H97.2182L83.478 0.424805ZM78.5224 9.89783L82.861 20.2421H74.1838L78.5224 9.89783Z" fill="#1D1D1B"/>
</g>
<defs>
<clipPath id="clip0_168_4340">
<rect width="96.7111" height="32.7712" fill="white" transform="translate(0.511108 0.424805)"/>
</clipPath>
</defs>
</svg>
