<svg width="194" height="120" viewBox="0 0 194 120" fill="none" xmlns="http://www.w3.org/2000/svg">
<path id="Union" fill-rule="evenodd" clip-rule="evenodd" d="M122.691 25.8319C122.389 26.0812 122.051 26.3484 121.678 26.6156C119.421 28.3432 115.848 29.7147 110.872 31.0327C105.135 32.5519 100.276 33.3515 95.628 34.1165C91.9377 34.7238 88.3798 35.3094 84.62 36.2158C82.9671 36.6077 81.243 37.1776 79.6434 37.8188C81.243 38.6025 82.9493 39.3506 84.7089 40.0096C88.1392 39.0478 89.8099 38.6025 94.8043 37.7476C96.706 37.427 102.554 36.4117 106.819 35.5212C114.462 33.9182 125.677 30.4094 122.691 25.814V25.8319ZM117.768 16.3028C116.15 15.5726 114.089 14.8601 111.938 14.2902C110.978 15.056 109.841 15.7329 108.241 16.3563C110.28 16.7058 111.934 17.2176 113.593 17.7309C114.133 17.8978 114.672 18.0648 115.226 18.2264C115.635 18.4224 117.466 16.7303 117.768 16.3206V16.3028ZM80.2832 26.4374C85.5321 24.9119 90.9233 23.942 96.4001 22.9568C101.346 22.0671 106.361 21.1649 111.405 19.8295C107.264 18.7252 104.989 18.2621 100.598 18.7608C94.2177 19.5089 87.2149 20.8803 81.2075 22.6436L80.9883 22.7082C78.1829 23.533 66.5728 26.9466 70.0457 31.6561C70.0457 31.663 70.0652 31.6421 70.1076 31.5966L70.1077 31.5965L70.1078 31.5965C70.5093 31.1665 72.9566 28.5455 80.301 26.4196L80.2832 26.4374ZM73.4049 43.1088C73.4049 44.0172 73.9381 44.8187 75.1645 45.7983C75.3244 45.3174 75.5377 44.9433 75.8932 44.4802C75.04 44.0528 74.2225 43.5897 73.4049 43.1088ZM78.0971 42.6457C78.8436 42.2182 79.75 41.7729 80.7809 41.3633C79.359 40.7933 77.9016 40.1521 76.4264 39.4753C75.751 39.8849 75.1645 40.3302 74.6846 40.7755L75.0941 41.0066L75.0942 41.0067L75.0943 41.0067L75.0944 41.0068L75.0944 41.0068L75.0951 41.0072C76.0925 41.5705 77.081 42.1287 78.0971 42.6457ZM116.524 21.6284C114.515 22.5546 111.618 23.4986 107.477 24.5316C105.922 24.9151 103.341 25.3734 100.146 25.9407L100.146 25.9407C96.3665 26.6117 91.7284 27.4352 86.9128 28.4679C84.0868 29.0735 76.4619 30.8546 72.7295 34.0072C73.4592 34.5998 74.0019 34.8711 74.6728 35.2065C74.9496 35.3449 75.2483 35.4942 75.591 35.6815C77.1551 34.7019 79.2346 33.7579 82.3805 32.9386C87.7296 31.5242 91.7464 30.8973 96.524 30.1516L96.8127 30.1066C101.683 29.3407 110.854 27.4349 115.919 25.6537C117.572 25.066 119.119 24.3001 120.274 23.4273C119.918 23.0355 116.648 21.4681 116.541 21.6284H116.524ZM120.149 20.1398L120.15 20.1399C120.887 20.4836 121.572 20.8031 122.247 21.2722C122.869 20.0966 122.478 19.3129 121.18 18.2264C120.683 18.8142 120.096 19.3486 119.492 19.8295C119.716 19.9378 119.935 20.0398 120.149 20.1398ZM72.9428 37.6942L72.9235 37.6833L72.9233 37.6832L72.9231 37.6831L72.9231 37.6831C72.0451 37.1904 71.4442 36.8532 70.7033 36.3405C70.2945 37.2133 71.041 38.1573 71.8586 38.6203C72.0548 38.4236 72.2691 38.251 72.4839 38.078L72.484 38.078L72.484 38.0779L72.4841 38.0779L72.4841 38.0779L72.4841 38.0778L72.4842 38.0778L72.4842 38.0778L72.4843 38.0777L72.4843 38.0777L72.4844 38.0777L72.4844 38.0776L72.4845 38.0776L72.4845 38.0776L72.4846 38.0775L72.4846 38.0775L72.4846 38.0775L72.4847 38.0774L72.4848 38.0774C72.6393 37.9529 72.7941 37.8282 72.9428 37.6942ZM115.493 10.3717C115.315 11.0485 114.586 11.8322 114.071 12.3487C115.582 12.7406 117.092 13.2927 118.55 13.8271C118.372 12.509 116.808 11.2266 115.493 10.3539V10.3717ZM68.446 18.7786C78.9147 11.9747 90.5031 8.0206 110.125 11.3691C111.209 10.7457 111.814 10.1579 112.08 8.89335C107.175 7.13003 101.86 6.52445 94.9998 6.63132C88.7968 6.79162 77.6883 9.07146 71.7519 12.5447L73.5471 10.3183C77.7061 7.91373 88.5302 4.7077 96.6349 4.5474C102.358 4.44053 105.326 4.76114 112.116 6.56007C111.565 5.47397 110.28 4.90516 108.436 4.08894C108.314 4.03512 108.19 3.98021 108.063 3.92401C101.469 1.00296 89.1878 0.735792 79.1102 5.09955C80.3899 4.28023 81.634 3.51435 83.2692 2.76628C86.5573 1.35919 91.996 -0.101337 98.8033 0.0055308C104.242 0.0945871 110.676 1.96477 114.622 5.84762C115.279 6.61351 115.653 7.43283 115.83 8.07403C118.959 9.64142 120.771 11.1019 121.802 12.8474C122.211 13.7202 122.389 14.6998 122.211 15.7863C123.509 16.5522 124.131 17.1934 124.771 18.0483C125.25 18.7608 125.588 19.5623 125.677 20.3104C125.801 21.29 125.908 22.3765 124.895 23.6411C125.979 24.1576 126.797 25.6181 126.939 26.2771C127.437 28.6104 125.908 30.8903 123.917 32.6536C121.625 34.6484 116.541 37.0173 112.418 38.0504C106.596 39.5026 101.257 40.3639 96.5898 41.1168L96.5897 41.1168C94.6742 41.4258 92.872 41.7165 91.1962 42.0223L91.2538 42.0358C93.8258 42.6403 97.3352 43.465 103.033 43.465C115.279 43.465 126.104 37.7298 126.104 37.7298C126.104 37.7298 125.855 38.4779 125.624 39.1369C117.857 43.8034 105.451 45.7627 100.19 45.5311C94.8043 45.2818 90.3075 44.5159 85.8819 43.1622C84.5311 43.5184 83.1981 43.9459 81.9184 44.5159C88.6368 47.526 93.7201 48.2206 99.4787 48.6303C105.344 49.0577 115.048 47.6507 123.242 44.7296C123.062 44.9103 122.923 45.1409 122.785 45.3691C122.638 45.6133 122.493 45.8549 122.3 46.0298C118.105 48.2028 109.219 50.3936 104.775 50.5717C100.332 50.7498 94.9287 50.5895 90.2187 49.6989C86.1663 48.9331 82.8782 47.6685 79.4123 46.1545C78.7725 46.5998 78.4704 47.2232 78.3459 47.8644C91.8361 54.8286 104.473 54.9889 118.852 50.5717L117.537 51.8185C101.7 58.1593 89.33 55.7013 79.7678 51.1417C79.6769 51.0988 79.578 51.056 79.4769 51.0121C79.2417 50.9102 78.9945 50.8031 78.808 50.6786C79.6789 52.2103 87.0017 57.4825 95.1775 58.1593C100.812 58.6224 107.69 57.6606 111.778 56.0398L109.396 57.2687C107.406 58.2305 102.18 60.4035 94.8576 59.9226C85.0999 59.2814 79.6079 55.0067 77.1373 52.7625C75.982 51.7116 75.4488 50.5005 75.1111 49.0221C72.9072 47.8822 71.5209 46.7067 70.3834 44.9255C69.708 43.8747 69.8324 42.6991 70.0101 41.7195C70.0634 41.4167 70.1523 41.1317 70.2767 40.8468C69.2103 40.0987 68.1439 39.2794 67.6818 38.46C66.722 36.7323 67.3085 35.254 67.9839 34.1141C67.3974 33.4551 66.8642 32.8139 66.6331 32.137C66.3843 31.3355 66.331 30.6053 66.4021 29.7503C66.5976 28.2898 67.3796 26.9718 68.375 25.8319C70.5078 23.3917 73.8492 21.5037 79.6079 19.6157C83.8326 18.2357 86.1667 17.7326 88.8645 17.151L88.8647 17.1509L88.8658 17.1507C89.7541 16.9592 90.6818 16.7592 91.7294 16.5166C93.6286 16.0784 95.6721 15.7561 97.7511 15.4281C101.081 14.9028 104.502 14.3632 107.566 13.3105C93.7556 10.906 79.4123 13.079 67.7173 21.0584L68.5171 18.832L68.446 18.7786ZM0 77.8051H11.5706V81.1358H3.67913V95.8479H0V77.8051ZM14.8232 93.4968H22.1637L23.1767 95.8479H27.1403L19.1244 77.4667H17.898L9.84656 95.8479H13.8101L14.8232 93.4968ZM16.1029 90.4511L18.5023 84.3597L20.9017 90.4511H16.1029ZM42.2478 90.5224C42.2478 93.9065 39.5818 96.1863 35.405 96.1863C32.1346 96.1863 29.593 94.5121 28.3133 92.0007L30.8727 90.1483C32.0458 91.9295 33.5743 92.7666 35.3694 92.7666C37.1645 92.7666 38.622 91.8938 38.622 90.3264C38.622 89.0618 37.6978 88.1357 35.7071 88.1357H33.3255V85.1077H35.4227C37.0046 85.1077 37.8222 84.1994 37.8222 83.0238C37.8222 81.7592 36.9157 80.8865 35.2806 80.8865C33.6454 80.8865 32.4723 81.6167 31.5481 83.2376L28.9887 81.403C30.1973 78.9629 32.419 77.4667 35.4761 77.4667C39.1374 77.4667 41.448 79.4616 41.448 82.721C41.448 84.2172 40.7726 85.4818 39.6529 86.3545C41.2702 87.156 42.2478 88.5987 42.2478 90.5045V90.5224ZM60.4124 77.8051H45.3582V95.8479H49.0373V81.1358H56.7333V95.8479H60.4124V77.8051ZM64.5359 77.8051H71.2898C75.0756 77.8051 77.7772 80.1028 77.7772 83.6294C77.7772 87.156 75.0756 89.4715 71.2898 89.4715H68.215V95.8479H64.5359V77.8051ZM71.2898 86.2477C73.0139 86.2477 74.0269 85.179 74.0269 83.6294C74.0269 82.0798 73.0139 81.0646 71.2898 81.0646H68.215V86.2655H71.2898V86.2477ZM89.2411 77.4845C83.9446 77.4845 79.6967 81.5277 79.6967 86.8354C79.6967 92.1432 83.9624 96.1863 89.2411 96.1863C94.5199 96.1863 98.8389 92.1432 98.8389 86.8354C98.8389 81.5277 94.5377 77.4845 89.2411 77.4845ZM89.2767 80.9043C92.5648 80.9043 95.0531 83.3622 95.0531 86.8354C95.0531 90.3264 92.6181 92.7666 89.2767 92.7666C85.9352 92.7666 83.5003 90.3086 83.5003 86.8354C83.5003 83.3622 85.9886 80.9043 89.2767 80.9043ZM119.563 77.4845V95.8657H115.884V86.2477L111.351 91.9295H110.143L105.611 86.2477V95.8657H101.931V77.4845H103.122L110.729 87.2451L118.336 77.4845H119.545H119.563ZM135.701 77.8051H123.704H123.686V95.8479H131.169C134.742 95.8479 137.23 93.6037 137.23 90.2908C137.23 86.9779 134.742 84.8762 131.169 84.8762H127.383V81.1358H135.701V77.8051ZM133.586 90.2908C133.586 91.7513 132.626 92.6775 130.991 92.6775V92.6597H127.383V87.9041H130.991C132.626 87.9041 133.586 88.8303 133.586 90.2908ZM150.56 93.4968H143.219L142.206 95.8479H138.243L146.294 77.4667H147.521L155.537 95.8479H151.573L150.56 93.4968ZM146.899 84.3597L144.499 90.4511H149.298L146.899 84.3597ZM161.668 77.8051H157.989V95.8479H161.668V88.0644H169.631V95.8479H173.31V77.8051H169.631V84.7159H161.668V77.8051ZM188.844 95.8479L181.131 86.4436V95.8479H177.451V77.8051H181.131V86.1764L188.009 77.8051H192.399L185.503 86.3011L193.305 95.8479H188.862H188.844ZM47.9353 101.69H33.8942V119.697H36.0093V103.596H45.8203V119.697H47.9353V101.69ZM52.8942 101.69H59.2038C62.7407 101.69 64.9447 103.881 64.9447 106.909C64.9447 109.937 62.7407 112.181 59.2038 112.181H55.0092V119.715H52.8942V101.708V101.69ZM59.1505 110.257C61.5144 110.257 62.7407 108.868 62.7407 106.927C62.7407 104.985 61.5144 103.596 59.1505 103.596H55.0092V110.257H59.1505ZM80.0166 101.69H68.4994V119.679H80.3366V117.774H70.6144V111.005H77.795V109.1H70.6144V103.596H80.0166V101.69ZM100.421 101.387V119.697H98.2879V106.784L92.547 114.585H91.7828L86.0063 106.731V119.697H83.8913V101.387H84.6556L92.1382 111.789L99.6742 101.387H100.403H100.421ZM119.972 119.697V101.387H119.954H119.19L107.477 115.654V101.69H105.362V120H106.126L117.839 105.733V119.697H119.972ZM139.576 101.69L139.568 101.708H137.425L131.88 113.57L125.944 101.708H123.544L130.707 116.028C129.907 117.56 129.089 118.023 127.952 118.023C127.543 118.023 127.028 117.97 126.53 117.863V119.715C126.974 119.875 127.543 119.982 128.005 119.982C130.529 119.982 131.702 118.486 133.124 115.476L139.568 101.708H139.576V101.69ZM159.393 119.697V101.387H159.376H158.647L151.111 111.789L143.628 101.387H142.864V119.697H144.979V106.731L150.755 114.585H151.52L157.261 106.784V119.697H159.393Z" fill="#562737"/>
</svg>
