<svg width="117" height="30" viewBox="0 0 117 30" fill="none" xmlns="http://www.w3.org/2000/svg">
<g id="a" clip-path="url(#clip0_135_3340)">
<path id="Vector" d="M24.7876 5.06495C24.7876 3.93359 24.3462 2.86986 23.5486 2.06881C21.9043 0.419886 19.2301 0.422487 17.5883 2.07401L17.1547 2.51095L16.7262 2.07921C15.0793 0.427689 12.4051 0.432891 10.7634 2.08701C9.12168 3.74373 9.12684 6.43298 10.7737 8.0819L15.1593 12.4695L21.5352 6.03766C22.0669 5.50189 22.0669 4.63061 21.5326 4.09745C21.0008 3.56428 20.1335 3.56428 19.6018 4.10005L19.1707 4.53438L18.5228 3.88418L18.9539 3.44984C19.8418 2.55516 21.2874 2.55256 22.1779 3.44464C23.0684 4.33672 23.071 5.79058 22.1831 6.68786H22.1882L15.8098 13.1197L16.166 13.476L22.5419 7.04417C23.0659 6.51621 23.355 5.81139 23.355 5.06495C23.355 4.31591 23.0633 3.61369 22.5367 3.08573C21.45 1.99598 19.6818 1.99858 18.5976 3.09093L18.1666 3.52527L17.5083 2.86726L17.9394 2.43292C19.3849 0.976462 21.7391 0.973861 23.1872 2.42512C24.6353 3.87898 24.6405 6.24572 23.1949 7.70218L16.8191 14.1314L17.1753 14.4877L23.5512 8.05589C24.3462 7.25744 24.7824 6.19111 24.7824 5.05975M19.958 4.45636C20.2936 4.11825 20.8382 4.11825 21.1738 4.45636C21.5093 4.79447 21.5093 5.34064 21.1738 5.67874L17.1599 9.72822L13.133 5.69175C12.7975 5.35624 12.7975 4.80747 13.133 4.46936C13.4686 4.13126 14.0132 4.13126 14.3488 4.46936L17.1495 7.27565L17.5057 6.91673L14.6973 4.10265C14.163 3.57468 13.3034 3.57728 12.7742 4.11045C12.2425 4.64622 12.2451 5.51749 12.7768 6.05066L16.8036 10.0871L16.1583 10.7399L12.1315 6.70347C11.2409 5.81139 11.2383 4.35753 12.1263 3.46025C13.0143 2.56556 14.4598 2.56296 15.3504 3.45504H15.3529L18.1562 6.26133L18.5125 5.90242L15.7066 3.08833C14.6173 2.00379 12.8542 2.00899 11.7701 3.10133C11.2461 3.6319 10.957 4.33412 10.957 5.08316C10.957 5.83219 11.2487 6.53441 11.7753 7.06238L15.8021 11.0989L15.149 11.7569L11.1248 7.72039C9.67666 6.26913 9.67149 3.90238 11.117 2.44593C12.5626 0.989466 14.9167 0.984264 16.3648 2.43812L19.1733 5.25481L19.5295 4.8959L19.9606 4.45896L19.958 4.45636Z" fill="#1D1D1B"/>
<path id="Vector_2" d="M4.96734 1.82563L1.15218 1.83167L1.17031 13.4625L4.98547 13.4565L4.96734 1.82563Z" fill="#1D1D1B"/>
<path id="Vector_3" d="M5.40461 17.0052C6.90693 17.0052 8.50991 17.3486 9.65085 17.9624L9.65601 21.2862C8.53314 20.5736 7.11085 20.16 5.8202 20.1782C5.04323 20.1782 4.79542 20.3785 4.798 20.6958C4.798 21.9078 10.4175 21.3512 10.4227 25.3877C10.4278 28.363 8.23113 29.1615 5.56981 29.1667C3.81969 29.1693 2.24768 28.7896 0.975093 28.0769L0.969931 24.6048C2.40772 25.5489 3.94617 25.9625 5.1852 25.9599C6.19449 25.9599 6.48875 25.7752 6.48875 25.3929C6.48875 24.1965 0.871841 24.6725 0.866679 20.6178C0.864097 18.1756 2.893 17.0078 5.40461 17.0052Z" fill="#1D1D1B"/>
<path id="Vector_4" d="M22.5496 17.2445L22.5599 24.3551C22.5651 27.9443 19.9399 29.1433 17.1986 29.1485C14.4546 29.1537 11.8269 27.9599 11.8217 24.3734L11.8114 17.2627L15.6291 17.2575L15.6395 24.1861C15.6395 25.2654 16.2022 25.7128 17.196 25.7128C18.2027 25.7128 18.7654 25.2628 18.7628 24.1809L18.7525 17.2523L22.5522 17.2471L22.5496 17.2445Z" fill="#1D1D1B"/>
<path id="Vector_5" d="M29.6353 17.2316C32.5754 17.2264 34.8237 18.2537 34.8289 21.5256C34.834 24.7818 32.5883 25.8143 29.6482 25.8195H28.4092L28.4143 28.8625L24.5966 28.8677L24.5785 17.2368L29.6353 17.229V17.2316ZM29.6069 20.389H28.4014V22.6673H29.6121C30.4871 22.6647 31.0498 22.3292 31.0473 21.5334C31.0473 20.7193 30.4845 20.389 29.6095 20.389" fill="#1D1D1B"/>
<path id="Vector_6" d="M44.9063 17.2081L44.9114 20.2329L39.9708 20.2407L39.9734 21.5853L44.3177 21.5775L44.3229 24.402L39.9786 24.4098V25.7882L45.0198 25.7804L45.025 28.8364L36.1685 28.852L36.1505 17.2211L44.9063 17.2081Z" fill="#1D1D1B"/>
<path id="Vector_7" d="M46.8835 28.8337L46.8655 17.2029L52.2346 17.1951C54.6971 17.1925 57.1597 18.1184 57.1649 21.2914C57.1675 23.1015 56.344 24.1835 55.1876 24.7661L58.1664 28.8155L53.9692 28.8233L51.5841 25.3877H50.691L50.6961 28.8285L46.881 28.8337H46.8835ZM50.691 22.5138H52.1623C52.9057 22.5112 53.3342 22.0612 53.3342 21.4136C53.3342 20.766 52.9031 20.3187 52.1597 20.3187H50.6884V22.5138H50.691Z" fill="#1D1D1B"/>
<path id="Vector_8" d="M63.3213 16.9116C64.8262 16.9116 66.4292 17.2549 67.5701 17.8687L67.5753 21.1926C66.4498 20.4799 65.0301 20.0664 63.7394 20.0846C62.9625 20.0846 62.7147 20.2849 62.7172 20.6022C62.7172 21.8142 68.3367 21.2576 68.3419 25.2941C68.3471 28.2694 66.1504 29.0679 63.4891 29.0731C61.7389 29.0757 60.1669 28.6959 58.8943 27.9833L58.8892 24.5112C60.3295 25.4553 61.8654 25.8688 63.1044 25.8662C64.1112 25.8662 64.4106 25.6816 64.408 25.2993C64.408 24.1029 58.7885 24.5762 58.7833 20.5242C58.7808 18.082 60.8097 16.9142 63.3213 16.9116Z" fill="#1D1D1B"/>
<path id="Vector_9" d="M74.9888 17.1613C77.9314 17.1561 80.1772 18.1834 80.1823 21.4552C80.1875 24.7115 77.9418 25.744 75.0017 25.7492H73.7626L73.7678 28.7922L69.9526 28.7974L69.9346 17.1665L74.9888 17.1587V17.1613ZM74.9604 20.3187H73.7549V22.597H74.9655C75.8406 22.5944 76.4033 22.2589 76.4007 21.463C76.4007 20.649 75.838 20.3187 74.9604 20.3187Z" fill="#1D1D1B"/>
<path id="Vector_10" d="M87.3893 16.8753C91.553 16.8675 93.6542 19.6061 93.6593 22.9456C93.6645 26.285 91.571 29.0289 87.4074 29.0367C83.2438 29.0445 81.14 26.3058 81.1348 22.9664C81.1297 19.6269 83.2231 16.8831 87.3867 16.8753M87.3919 20.3474C85.9051 20.3474 85.0481 21.3643 85.0507 22.9586C85.0533 24.5529 85.9128 25.5646 87.4022 25.562C88.8891 25.562 89.7461 24.5451 89.7435 22.9508C89.7435 21.3565 88.8813 20.3448 87.3945 20.3474" fill="#1D1D1B"/>
<path id="Vector_11" d="M95.2546 28.7583L95.2365 17.1275L100.606 17.1197C103.068 17.1144 105.531 18.0429 105.536 21.2159C105.538 23.0261 104.715 24.1081 103.559 24.6906L106.537 28.7401L102.34 28.7479L99.9551 25.3122H99.062L99.0671 28.7531L95.252 28.7583H95.2546ZM99.062 22.4383H100.533C101.277 22.4357 101.705 21.9858 101.705 21.3382C101.705 20.6906 101.274 20.2432 100.531 20.2432H99.0594V22.4383H99.062Z" fill="#1D1D1B"/>
<path id="Vector_12" d="M116.695 17.0938L116.7 20.4488L113.592 20.454L113.605 28.7298L109.805 28.735L109.792 20.4618L106.687 20.4644L106.682 17.1094L116.695 17.0938Z" fill="#1D1D1B"/>
</g>
<defs>
<clipPath id="clip0_135_3340">
<rect width="115.833" height="28.3333" fill="white" transform="translate(0.866676 0.833374)"/>
</clipPath>
</defs>
</svg>
