<svg width="134" height="24" viewBox="0 0 134 24" fill="none" xmlns="http://www.w3.org/2000/svg">
<g id="VK_Full_Logo 1" clip-path="url(#clip0_170_4416)">
<path id="Vector" d="M40.3064 14.7199C40.3064 16.4803 38.6674 17.7551 36.3607 17.7551H30.9582V6.82861H36.1786C38.4246 6.82861 40.0029 8.04267 40.0029 9.74233C40.0029 10.8957 39.3959 11.6241 38.4853 12.049C39.4565 12.4133 40.3064 13.3845 40.3064 14.7199ZM33.3256 8.8318V11.1992H36.1179C36.9678 11.1992 37.5141 10.7136 37.5141 10.0459C37.5141 9.37813 36.907 8.8318 36.1179 8.8318H33.3256ZM36.3607 15.7519C37.2713 15.7519 37.939 15.2056 37.939 14.4164C37.939 13.6273 37.332 13.081 36.3607 13.081H33.3256V15.7519H36.3607Z" fill="black"/>
<path id="Vector_2" d="M49.2295 17.6944L45.4661 13.3845H44.859V17.6944H42.4309V6.82861H44.859V11.0171H45.4661L49.1082 6.82861H51.9613L47.4085 12.049L52.386 17.6944H49.2295Z" fill="black"/>
<path id="Vector_3" d="M52.386 12.2918C52.386 9.01388 54.8145 6.64648 58.2135 6.64648C61.613 6.64648 64.041 9.01388 64.041 12.2918C64.041 15.5698 61.613 17.9372 58.2135 17.9372C54.8145 17.9372 52.386 15.5698 52.386 12.2918ZM61.4918 12.2918C61.4918 10.2279 60.156 8.8318 58.2135 8.8318C56.271 8.8318 54.9357 10.2279 54.9357 12.2918C54.9357 14.3557 56.271 15.7519 58.2135 15.7519C60.156 15.7519 61.4918 14.3557 61.4918 12.2918Z" fill="black"/>
<path id="Vector_4" d="M73.3285 6.82861H75.757V17.6944H73.3285V13.3238H68.4725V17.6944H66.0444V6.82861H68.4725V11.1385H73.3285V6.82861Z" fill="black"/>
<path id="Vector_5" d="M80.9773 17.6944V9.01388H77.2135V6.82861H87.1082V9.01388H83.3444V17.6944H80.9773Z" fill="black"/>
<path id="Vector_6" d="M97.5488 11.6241V17.6944H95.7884L95.3029 15.9947C94.7565 16.9052 93.6034 17.9372 91.843 17.9372C89.6575 17.9372 88.0792 16.4803 88.0792 14.4771C88.0792 12.4739 89.6575 11.0778 92.8749 11.0778H95.242C95.1208 9.6816 94.3923 8.7104 93.057 8.7104C91.9642 8.7104 91.2357 9.3174 90.8715 9.98513L88.6864 9.62093C89.2328 7.73914 91.1145 6.64648 93.1782 6.64648C95.8493 6.64648 97.5488 8.46755 97.5488 11.6241ZM95.1816 12.9596H92.9357C91.1145 12.9596 90.5072 13.5666 90.5072 14.3557C90.5072 15.2662 91.2357 15.8733 92.4497 15.8733C94.028 15.8733 95.1816 14.72 95.1816 12.9596Z" fill="black"/>
<path id="Vector_7" d="M106.897 17.6944L103.134 13.3845H102.527V17.6944H100.099V6.82861H102.527V11.0171H103.134L106.776 6.82861H109.629L105.076 12.049L110.054 17.6944H106.897Z" fill="black"/>
<path id="Vector_8" d="M114.424 17.6944V9.01388H110.661V6.82861H120.556V9.01388H116.792V17.6944H114.424Z" fill="black"/>
<path id="Vector_9" d="M132.696 12.9596H123.955C124.198 14.6592 125.412 15.7519 127.232 15.7519C128.507 15.7519 129.479 15.2056 130.025 14.4164L132.271 14.7806C131.482 16.8446 129.357 17.9372 127.05 17.9372C123.772 17.9372 121.405 15.5698 121.405 12.2918C121.405 9.01388 123.772 6.64648 127.05 6.64648C130.328 6.64648 132.696 9.01388 132.696 12.1704C132.757 12.4739 132.696 12.7168 132.696 12.9596ZM124.137 11.0778H130.146C129.721 9.74233 128.628 8.77107 127.111 8.77107C125.654 8.7104 124.501 9.6816 124.137 11.0778Z" fill="black"/>
<path id="Vector_10" d="M-1.52588e-05 11.4638C-1.52588e-05 6.21685 -1.52588e-05 3.5934 1.63 1.96339C3.26001 0.333374 5.88346 0.333374 11.1304 0.333374H12.058C17.3049 0.333374 19.9283 0.333374 21.5584 1.96339C23.1884 3.5934 23.1884 6.21685 23.1884 11.4638V12.3913C23.1884 17.6383 23.1884 20.2617 21.5584 21.8918C19.9283 23.5218 17.3049 23.5218 12.058 23.5218H11.1304C5.88346 23.5218 3.26001 23.5218 1.63 21.8918C-1.52588e-05 20.2617 -1.52588e-05 17.6383 -1.52588e-05 12.3913V11.4638Z" fill="#0077FF"/>
<path id="Vector_11" d="M12.3381 17.0388C7.05312 17.0388 4.03867 13.4156 3.91307 7.3866H6.56041C6.64737 11.8117 8.59901 13.6861 10.1449 14.0726V7.3866H12.6378V11.203C14.1643 11.0388 15.768 9.29964 16.3091 7.3866H18.8019C18.3864 9.74408 16.6473 11.4832 15.4106 12.1982C16.6473 12.7779 18.628 14.2948 19.3817 17.0388H16.6376C16.0482 15.203 14.5798 13.7827 12.6378 13.5895V17.0388H12.3381Z" fill="white"/>
</g>
<defs>
<clipPath id="clip0_170_4416">
<rect width="133.333" height="23.1884" fill="white" transform="translate(-1.52588e-05 0.333374)"/>
</clipPath>
</defs>
</svg>
