<svg width="129" height="30" viewBox="0 0 129 30" fill="none" xmlns="http://www.w3.org/2000/svg">
<g id="Sports_logo_white_bg 1" clip-path="url(#clip0_170_4429)">
<g id="Layer 2">
<g id="Layer 1">
<path id="Vector" d="M11.0659 20.6227L12.8819 18.1405C14.2447 19.2998 16.2881 20.0454 18.1338 20.0454C19.5526 20.0454 20.5463 19.5745 20.5463 18.6098C20.5463 17.5895 19.752 17.2036 17.679 16.8455C14.8132 16.35 11.7465 15.6862 11.7465 12.2393C11.7465 9.28795 14.2385 7.57764 17.6229 7.57764C20.7161 7.57764 22.5897 8.34944 24.2656 9.64761L22.4776 12.156C20.9435 11.1357 19.4389 10.5568 18.0201 10.5568C16.7133 10.5568 15.9766 11.0523 15.9766 11.8534C15.9766 12.7348 16.799 13.0883 18.6726 13.4248C21.6537 13.9219 24.8045 14.5841 24.8045 17.9213C24.8045 21.4716 21.6256 22.884 18.1338 22.884C14.8132 22.884 12.5985 21.893 11.0659 20.6227Z" fill="#0D0802"/>
<path id="Vector_2" d="M35.6087 7.57764C39.0445 7.57764 41.4275 10.1431 41.4275 15.2169C41.4275 20.2908 39.0149 22.8007 35.5511 22.8007C33.5077 22.8007 32.0888 22.0845 30.9534 20.8449V28.0999H26.3651V11.8534C26.3651 10.0875 26.2514 9.01165 25.9383 8.26763L30.413 7.57764C30.6403 8.10246 30.8397 9.45312 30.8397 10.282C31.8334 8.95299 33.3659 7.57764 35.6087 7.57764ZM36.8547 15.2463C36.8547 12.7904 35.9732 11.2452 33.9297 11.2452C32.7663 11.2452 31.7166 11.9368 30.9503 12.6808V18.1128C31.9424 19.0235 32.7663 19.465 33.9874 19.465C35.8922 19.465 36.8578 17.9213 36.8578 15.2463H36.8547Z" fill="#0D0802"/>
<path id="Vector_3" d="M43.0332 15.2463C43.0332 9.4809 47.092 7.57764 50.7833 7.57764C54.4449 7.57764 58.5037 9.4809 58.5037 15.2463C58.5037 20.9576 54.4449 22.884 50.7833 22.884C47.1216 22.884 43.0332 20.9545 43.0332 15.2463ZM53.9356 15.2725C53.9356 12.8182 53.0556 10.8316 50.7848 10.8316C48.6043 10.8316 47.606 12.6252 47.606 15.2725C47.606 17.7269 48.4564 19.7675 50.7848 19.7675C52.9419 19.7675 53.934 17.9476 53.934 15.2725H53.9356Z" fill="#0D0802"/>
<path id="Vector_4" d="M65.2585 10.4457C66.084 9.21077 67.5869 7.57764 70.1708 7.57764C70.3622 7.58586 70.553 7.60441 70.7424 7.63321L70.3982 11.5216C70.0485 11.4701 69.6957 11.4428 69.3422 11.4397C67.5262 11.4397 66.1634 12.3767 65.3114 13.4464V22.5753H60.7418V11.8534C60.7418 10.0875 60.6281 9.01165 60.315 8.26763L64.7726 7.57764C64.9999 8.10246 65.1977 9.61983 65.1977 10.4457H65.2585Z" fill="#0D0802"/>
<path id="Vector_5" d="M79.7213 19.2164C80.4201 19.2043 81.1152 19.1121 81.7927 18.9416L82.6727 22.14C81.8799 22.4148 80.6589 22.7744 78.4161 22.7744C73.9306 22.7744 73.8449 20.3757 73.8449 17.6172V11.4227H71.4604L71.7361 7.59613H73.8449V3.66148L78.3865 2.83411V7.60076H82.2802V11.4227H78.3865V17.1989C78.3865 18.4986 78.6996 19.2164 79.7213 19.2164Z" fill="#0D0802"/>
<path id="Vector_6" d="M83.1586 20.6227L84.9762 18.1405C86.3374 19.2998 88.3809 20.0454 90.2265 20.0454C91.6454 20.0454 92.639 19.5745 92.639 18.6098C92.639 17.5895 91.8447 17.2036 89.7733 16.8455C86.9044 16.35 83.8392 15.6862 83.8392 12.2393C83.8392 9.28795 86.3312 7.57764 89.7156 7.57764C92.8104 7.57764 94.684 8.34944 96.3583 9.64761L94.5703 12.156C93.0377 11.1357 91.5332 10.5568 90.1128 10.5568C88.8076 10.5568 88.0694 11.0523 88.0694 11.8534C88.0694 12.7348 88.8933 13.0883 90.7669 13.4248C93.748 13.9219 96.8987 14.5841 96.8987 17.9213C96.8987 21.4716 93.7184 22.884 90.2265 22.884C86.9075 22.884 84.6912 21.893 83.1586 20.6227Z" fill="#0D0802"/>
<path id="Vector_7" d="M107.739 10.4457C108.561 9.21077 110.066 7.57764 112.648 7.57764C112.84 7.58592 113.032 7.60447 113.223 7.63321L112.882 11.5216C112.532 11.4702 112.179 11.4428 111.826 11.4397C110.01 11.4397 108.645 12.3767 107.795 13.4464V22.5753H103.225V11.8534C103.225 10.0875 103.112 9.01165 102.798 8.26763L107.256 7.57764C107.483 8.10246 107.681 9.61983 107.681 10.4457H107.739Z" fill="#0D0802"/>
<path id="Vector_8" d="M124.005 20.1828C123.096 21.3127 121.393 22.8841 118.753 22.8841C116.169 22.8841 114.324 21.6492 114.324 18.6098V7.60083H118.895V17.3147C118.895 18.6376 119.406 19.3539 120.683 19.3539C121.903 19.3539 122.955 18.721 123.977 17.8658V7.60083H128.547V18.3073C128.547 20.0716 128.66 21.4223 129 22.1663L124.43 22.8825C124.203 22.3052 124.061 20.9268 124.061 20.1812L124.005 20.1828Z" fill="#0D0802"/>
<path id="Vector_9" d="M2.52312 5.00123C1.8511 4.99311 1.20938 4.72282 0.737082 4.24894C0.26478 3.77507 -4.99704e-05 3.1358 7.07235e-09 2.46972C0.00162971 2.14324 0.0682316 1.82028 0.195991 1.51935C0.32375 1.21842 0.510157 0.945428 0.744533 0.716007C0.97891 0.486586 1.25665 0.305245 1.56185 0.182372C1.86705 0.0594986 2.19371 -0.00249317 2.52312 -5.272e-05C2.85247 -0.00228942 3.17904 0.0598417 3.48415 0.182788C3.78926 0.305733 4.06692 0.487082 4.30125 0.716463C4.53559 0.945844 4.722 1.21876 4.84983 1.5196C4.97767 1.82043 5.04441 2.1433 5.04624 2.46972C5.04589 3.13568 4.78093 3.77472 4.30871 4.2485C3.83649 4.72229 3.19501 4.99271 2.52312 5.00123Z" fill="#E50046"/>
<path id="Vector_10" d="M2.52312 11.2499C1.85151 11.2421 1.21003 10.9724 0.737727 10.4991C0.265426 10.0258 0.000364666 9.3871 0 8.72143C0.0016297 8.39495 0.0682316 8.07199 0.195991 7.77106C0.32375 7.47013 0.510157 7.19714 0.744533 6.96772C0.97891 6.73829 1.25665 6.55695 1.56185 6.43408C1.86705 6.31121 2.19371 6.24922 2.52312 6.25166C2.85247 6.24942 3.17904 6.31155 3.48415 6.4345C3.78926 6.55744 4.06692 6.73879 4.30125 6.96817C4.53559 7.19755 4.722 7.47047 4.84983 7.7713C4.97767 8.07214 5.04441 8.39501 5.04624 8.72143C5.04547 9.38698 4.78028 10.0255 4.30807 10.4987C3.83585 10.9719 3.1946 11.2417 2.52312 11.2499Z" fill="#FFCC00"/>
<path id="Vector_11" d="M2.52312 17.4999C1.85178 17.4922 1.21053 17.2227 0.738274 16.7497C0.266016 16.2767 0.000774155 15.6384 0 14.973C0.00142438 14.6465 0.0678864 14.3234 0.195573 14.0224C0.32326 13.7214 0.50966 13.4483 0.744078 13.2189C0.978496 12.9894 1.25632 12.8081 1.56161 12.6853C1.8669 12.5625 2.19365 12.5006 2.52312 12.5033C2.85253 12.5008 3.17919 12.5628 3.48439 12.6857C3.78959 12.8086 4.06733 12.9899 4.30171 13.2193C4.53608 13.4487 4.72249 13.7217 4.85025 14.0227C4.97801 14.3236 5.04461 14.6465 5.04624 14.973C5.04506 15.6383 4.77969 16.2764 4.30752 16.7493C3.83535 17.2221 3.19433 17.4918 2.52312 17.4999Z" fill="#13A538"/>
<path id="Vector_12" d="M2.52312 23.75C1.85151 23.7423 1.21003 23.4725 0.737727 22.9992C0.265426 22.5259 0.000364666 21.8872 0 21.2215C0.0016297 20.8951 0.0682316 20.5721 0.195991 20.2712C0.32375 19.9703 0.510157 19.6973 0.744533 19.4678C0.97891 19.2384 1.25665 19.0571 1.56185 18.9342C1.86705 18.8113 2.19371 18.7493 2.52312 18.7518C2.85247 18.7495 3.17904 18.8117 3.48415 18.9346C3.78926 19.0576 4.06692 19.2389 4.30125 19.4683C4.53559 19.6977 4.722 19.9706 4.84983 20.2714C4.97767 20.5723 5.04441 20.8951 5.04624 21.2215C5.04547 21.8871 4.78028 22.5256 4.30807 22.9988C3.83585 23.472 3.1946 23.7419 2.52312 23.75Z" fill="#009FE3"/>
<path id="Vector_13" d="M99.6617 23.0801C98.9901 23.0724 98.3486 22.8026 97.8763 22.3293C97.404 21.856 97.139 21.2173 97.1386 20.5517C97.1386 19.8885 97.4044 19.2524 97.8776 18.7834C98.3508 18.3145 98.9925 18.051 99.6617 18.051C100.331 18.051 100.973 18.3145 101.446 18.7834C101.919 19.2524 102.185 19.8885 102.185 20.5517C102.184 21.2173 101.919 21.856 101.447 22.3293C100.975 22.8026 100.333 23.0724 99.6617 23.0801Z" fill="#0D0802"/>
<path id="Vector_14" d="M2.52312 30.0001C1.85232 29.9924 1.21154 29.7233 0.739366 29.251C0.267196 28.7787 0.00159216 28.1412 0 27.4763C0.0016297 27.1498 0.0682316 26.8269 0.195991 26.5259C0.32375 26.225 0.510157 25.952 0.744533 25.7226C0.97891 25.4932 1.25665 25.3118 1.56185 25.189C1.86705 25.0661 2.19371 25.0041 2.52312 25.0065C2.85247 25.0043 3.17904 25.0664 3.48415 25.1894C3.78926 25.3123 4.06692 25.4937 4.30125 25.7231C4.53559 25.9524 4.722 26.2253 4.84983 26.5262C4.97767 26.827 5.04441 27.1499 5.04624 27.4763C5.04425 28.1411 4.77851 28.7784 4.30643 29.2506C3.83434 29.7228 3.1938 29.992 2.52312 30.0001Z" fill="#A863A5"/>
</g>
</g>
</g>
<defs>
<clipPath id="clip0_170_4429">
<rect width="129" height="30" fill="white"/>
</clipPath>
</defs>
</svg>
