<svg width="134" height="61" viewBox="0 0 134 61" fill="none" xmlns="http://www.w3.org/2000/svg">
<g id="a" clip-path="url(#clip0_135_3654)">
<g id="Group">
<path id="Vector" d="M50.7083 23.5065C50.3536 23.5065 49.9629 23.5374 49.6698 23.5374C49.346 23.0336 48.472 21.5429 47.4952 19.7745C46.9092 18.7876 46.6521 18.6385 45.7936 18.6385H44.4981V19.5329C44.4981 21.219 44.5135 23.0696 44.5444 23.5374C44.4004 23.5219 43.9789 23.5065 43.6499 23.5065C43.2592 23.5065 43.0021 23.5065 42.7554 23.5374C42.7862 22.9719 42.8016 21.2344 42.8016 19.4507V16.9524C42.8016 14.9579 42.8016 13.4004 42.7554 12.8812C43.0484 12.912 43.3414 12.912 43.6139 12.912C44.0046 12.912 44.1177 12.912 44.5393 12.8812C44.5084 13.4826 44.493 15.0402 44.493 17.0193V17.3431H45.6291C46.6007 17.3431 46.9452 17.1992 47.3976 16.2893C47.5775 15.95 48.0145 15.071 48.2252 14.6187C48.8113 13.4158 49.4436 12.8041 50.5283 12.8041C50.7391 12.8041 51.0013 12.8195 51.1915 12.8709C51.0938 13.4055 51.0476 13.9401 51.0476 14.5107C50.9036 14.4644 50.5592 14.4439 50.3638 14.4439C49.9423 14.4439 49.7007 14.7009 49.4076 15.3023C48.6468 16.9576 48.2715 17.523 47.8654 17.8674C48.2561 18.0936 48.6931 18.582 49.3717 19.7488C50.297 21.3064 51.171 22.6995 51.757 23.5425C51.6285 23.5271 51.1915 23.5117 50.7031 23.5117L50.7083 23.5065Z" fill="#046FA0"/>
<path id="Vector_2" d="M62.1519 12.9121C62.3626 12.9121 62.8973 12.9275 63.1235 12.8812C62.3472 14.3257 60.6919 17.4562 59.4066 19.8568C58.3219 21.9027 57.849 22.8897 57.5251 23.5528C57.412 23.522 56.9904 23.5066 56.538 23.5066C56.1628 23.5066 55.6949 23.5374 55.5304 23.5528C56.0497 22.8075 56.7283 21.7177 57.5251 20.3246C56.389 18.3147 54.055 14.4388 53.0782 12.8812C53.469 12.9275 54.0859 12.9121 54.3429 12.9121C54.6359 12.9121 54.8775 12.9121 55.1037 12.8812C55.5767 13.9042 57.5354 17.2609 58.399 18.7516C59.4529 16.7571 60.3937 14.8243 61.3036 12.8812C61.5144 12.9121 61.8074 12.9121 62.1467 12.9121H62.1519Z" fill="#046FA0"/>
<path id="Vector_3" d="M67.1488 20.0213C67.1488 21.4966 67.1796 22.9565 67.195 23.5425C67.0305 23.5271 66.645 23.5117 66.3005 23.5117C65.8481 23.5117 65.6014 23.5117 65.4266 23.5425C65.4574 22.9257 65.4728 21.255 65.4728 19.4713V16.973C65.4728 14.9785 65.4574 13.4672 65.4266 12.9172C65.879 12.9172 67.0974 12.835 68.362 12.835C70.7782 12.835 72.5158 13.971 72.5158 16.1608C72.5158 18.3507 70.9581 19.7437 68.1204 19.7437C67.5703 19.7437 67.4726 19.7283 67.1488 19.7129V20.0213ZM68.2849 18.5152C69.565 18.5152 70.7988 17.9497 70.7988 16.3922C70.7988 14.8346 69.8426 13.9916 68.1718 13.9916C67.8325 13.9916 67.3595 14.007 67.1847 14.0378C67.1847 14.0687 67.1539 15.2561 67.1539 18.4638C67.3955 18.4946 67.8839 18.51 68.29 18.51L68.2849 18.5152Z" fill="#046FA0"/>
<path id="Vector_4" d="M74.6595 18.2684C74.6595 15.2664 76.5257 12.691 79.9649 12.691C83.1265 12.691 85.0749 15.143 85.0749 17.996C85.0749 21.4504 83.1265 23.7379 79.8364 23.7379C76.3663 23.7379 74.6595 21.0289 74.6595 18.2736V18.2684ZM83.2396 18.253C83.2396 15.6262 81.8105 13.971 79.7336 13.971C77.9343 13.971 76.4537 15.3641 76.4743 18.0577C76.4743 20.7667 77.9188 22.4682 80.0266 22.4682C81.6511 22.4682 83.2396 21.2859 83.2396 18.253Z" fill="#046FA0"/>
<path id="Vector_5" d="M89.5629 20.0213C89.5629 21.4966 89.5938 22.9565 89.6092 23.5425C89.4447 23.5271 89.0591 23.5117 88.7147 23.5117C88.2623 23.5117 88.0155 23.5117 87.8408 23.5425C87.8716 22.9257 87.887 21.255 87.887 19.4713V16.973C87.887 14.9785 87.8716 13.4672 87.8408 12.9172C88.2932 12.9172 89.5115 12.835 90.7762 12.835C93.1924 12.835 94.93 13.971 94.93 16.1608C94.93 18.3507 93.3723 19.7437 90.5346 19.7437C89.9845 19.7437 89.8868 19.7283 89.5629 19.7129V20.0213ZM90.6991 18.5152C91.9791 18.5152 93.213 17.9497 93.213 16.3922C93.213 14.8346 92.2568 13.9916 90.586 13.9916C90.2467 13.9916 89.7737 14.007 89.5989 14.0378C89.5989 14.0687 89.5681 15.2561 89.5681 18.4638C89.8097 18.4946 90.2981 18.51 90.7042 18.51L90.6991 18.5152Z" fill="#046FA0"/>
<path id="Vector_6" d="M101.788 19.4662C101.788 21.4298 101.803 23.0336 101.834 23.5374C101.67 23.522 101.397 23.5066 101.073 23.5066C100.734 23.5066 100.312 23.5066 100.05 23.5374C100.081 22.972 100.097 21.2499 100.097 19.4662V14.228H98.5903C97.5672 14.228 97.048 14.2589 96.6779 14.3103C96.7755 13.9864 96.8578 13.3696 96.8886 12.8812C97.1971 12.8966 97.9271 12.9121 99.2226 12.9121H103.017C103.973 12.9121 105.011 12.9121 105.304 12.8812C105.191 13.4004 105.14 13.7911 105.124 14.2743C104.867 14.228 104.327 14.228 103.454 14.228H101.783V19.4662H101.788Z" fill="#046FA0"/>
<path id="Vector_7" d="M41.8814 40.3827C41.9277 40.0075 42.0768 38.7121 42.0614 38.1466C42.4161 38.5013 43.6499 39.0411 45.0277 39.0411C46.1638 39.0411 46.9401 38.6196 46.9401 37.5349C46.9401 36.3012 46.097 35.9774 44.894 35.9774C44.6524 35.9774 44.164 35.9928 43.8247 36.075C43.8555 35.8643 44.0046 34.5021 43.9686 34.209C44.0972 34.2245 44.5187 34.2399 44.7963 34.2399C46.061 34.2399 46.4979 33.7207 46.4979 32.9445C46.4979 32.2608 45.9479 31.6491 44.6627 31.6491C43.7219 31.6491 42.7143 31.9421 42.1796 32.266C42.2259 31.793 42.1334 30.6107 42.0665 30.3537C42.4418 30.2406 43.5574 29.8191 45.295 29.8191C48.508 29.8191 49.0889 31.5052 49.0889 32.5281C49.0889 33.6333 48.2613 34.4249 47.4182 34.7848C48.2613 35.011 49.6544 35.7409 49.6544 37.3499C49.6544 39.2981 48.1276 40.8711 44.8683 40.8711C43.2438 40.8711 42.2413 40.5318 41.866 40.3982L41.8814 40.3827Z" fill="#3F2267"/>
<path id="Vector_8" d="M54.1989 38.013C54.0344 38.6144 53.5974 40.0075 53.4227 40.6758C53.0988 40.6449 52.9497 40.6295 52.3842 40.6295C51.7005 40.6295 51.135 40.6603 50.9242 40.6758C51.6542 38.7481 54.6873 30.3126 54.785 30.0042C54.9289 30.0196 55.5818 30.035 55.9674 30.035C56.4866 30.035 57.4582 30.035 57.6382 30.0042C57.7821 30.5079 60.8512 38.8766 61.612 40.6603C61.2882 40.6295 60.296 40.6295 60.0852 40.6295C59.3398 40.6295 59.0776 40.6295 58.7537 40.6603C58.4967 39.8481 58.0546 38.5836 57.8592 38.0181H54.1938L54.1989 38.013ZM54.749 36.1984H57.3143L55.9828 32.158L54.749 36.1984Z" fill="#3F2267"/>
<path id="Vector_9" d="M72.0377 37.2162C72.0377 39.0307 70.6754 40.7682 67.4778 40.7682C66.2594 40.7682 64.3162 40.6397 63.6838 40.6243C63.7147 39.9252 63.7507 38.3059 63.7507 36.5839V34.0856C63.7507 32.0911 63.7507 30.6004 63.6838 30.0144C63.9769 30.0144 65.5345 29.9321 67.2362 29.9321C70.516 29.9321 71.2409 31.4897 71.2409 32.6103C71.2409 33.4688 70.9016 34.101 70.2024 34.5894C71.4362 35.1548 72.0377 36.0955 72.0377 37.2162ZM68.0947 34.1165C68.2232 34.1165 68.3055 34.101 68.3723 34.0496C68.7476 33.6949 68.8607 33.2889 68.8607 32.9958C68.8607 32.0551 68.1769 31.6182 66.8815 31.6182C66.6861 31.6182 66.2491 31.6336 66.1669 31.6645C66.1515 32.2505 66.136 32.7028 66.136 34.1113H68.0998L68.0947 34.1165ZM67.267 35.8385C66.7169 35.8385 66.2594 35.8848 66.1309 35.9053V36.7021C66.1309 37.5143 66.1617 38.712 66.1772 38.9074C66.3571 38.9742 66.8609 39.0513 67.5703 39.0513C68.5779 39.0513 69.4827 38.6298 69.4827 37.4937C69.4827 36.2755 68.6242 35.8385 67.2619 35.8385H67.267Z" fill="#3F2267"/>
<path id="Vector_10" d="M76.9627 34.7694C76.9627 35.7769 76.9318 36.7793 76.8959 37.4475C78.1142 35.3554 80.0266 32.2403 81.3427 30.0042C81.5689 30.035 82.6588 30.035 82.7873 30.035C83.0289 30.035 83.908 30.0196 84.0211 30.0042C84.0211 30.071 83.9543 31.8033 83.9543 33.4431V36.4297C83.9543 37.7251 83.9543 39.771 84.0211 40.6655C83.8926 40.6346 83.2088 40.6346 82.6074 40.6346C82.2989 40.6346 81.7334 40.6346 81.5021 40.6655C81.5843 39.1233 81.5483 37.4218 81.5689 35.8334C81.5843 34.6665 81.6357 33.3866 81.6666 32.9291C80.1397 35.525 78.4227 38.378 77.1889 40.65C77.0244 40.6346 76.4435 40.6346 76.0373 40.6346C75.6312 40.6346 74.8704 40.6192 74.5105 40.6655C74.5773 40.0332 74.5773 38.6401 74.5773 37.9719V32.5847C74.5773 31.4024 74.5619 30.3948 74.5105 30.0042C74.6904 30.035 75.4204 30.035 75.6621 30.035C76.0373 30.035 76.8136 30.035 77.0398 30.0042C76.9575 30.9449 76.9575 33.0884 76.9575 34.7745L76.9627 34.7694Z" fill="#3F2267"/>
<path id="Vector_11" d="M90.3957 29.999C90.6219 30.0145 90.9458 30.0299 91.6604 30.0299C92.2259 30.0299 92.7965 30.0299 93.0536 29.999L96.1175 38.5785C96.1483 38.6761 96.2306 38.7224 96.3437 38.7224H97.7729C97.706 39.1593 97.5158 42.2899 97.4644 43.4259C97.156 43.4105 95.9736 43.3951 95.6805 43.4722C95.6497 42.4338 95.5829 41.2515 95.516 40.8608C95.4852 40.6655 95.4029 40.6192 95.2898 40.6192H88.5553C88.4576 40.6192 88.4114 40.7015 88.3908 40.7992C88.2931 41.3338 88.1492 42.6343 88.0515 43.4259C87.6454 43.4259 86.6892 43.4413 86.283 43.4722C86.2985 41.3954 86.1854 38.8972 86.1854 38.7378H87.193C87.3061 38.7378 87.4037 38.7378 87.4706 38.5271L90.3906 29.9939L90.3957 29.999ZM93.5574 38.743C93.0227 37.1546 92.0973 34.3119 91.5473 32.5281C91.0589 34.281 90.0204 37.5915 89.6349 38.743H93.5625H93.5574Z" fill="#3F2267"/>
<path id="Vector_12" d="M99.1455 35.3501C99.1455 32.672 100.883 29.8036 104.662 29.8036C107.972 29.8036 109.982 32.2864 109.982 35.0931C109.982 38.5321 107.988 40.8504 104.482 40.8504C100.976 40.8504 99.1455 38.1723 99.1455 35.3501ZM107.289 35.381C107.289 33.4173 106.415 31.6028 104.369 31.6028C103.315 31.6028 101.772 32.2659 101.772 35.124C101.788 37.4577 102.893 39.0667 104.723 39.0667C105.793 39.0667 107.289 38.5013 107.289 35.3861V35.381Z" fill="#3F2267"/>
<path id="Vector_13" d="M120.902 37.2162C120.902 39.0307 119.539 40.7682 116.342 40.7682C115.123 40.7682 113.18 40.6397 112.548 40.6243C112.579 39.9252 112.615 38.3059 112.615 36.5839V34.0856C112.615 32.0911 112.615 30.6004 112.548 30.0144C112.841 30.0144 114.398 29.9321 116.1 29.9321C119.38 29.9321 120.105 31.4897 120.105 32.6103C120.105 33.4688 119.765 34.101 119.066 34.5894C120.3 35.1548 120.902 36.0955 120.902 37.2162ZM116.959 34.1165C117.087 34.1165 117.169 34.101 117.236 34.0496C117.611 33.6949 117.725 33.2889 117.725 32.9958C117.725 32.0551 117.041 31.6182 115.745 31.6182C115.55 31.6182 115.113 31.6336 115.031 31.6645C115.015 32.2505 115 32.7028 115 34.1113H116.964L116.959 34.1165ZM116.131 35.8385C115.581 35.8385 115.123 35.8848 114.995 35.9053V36.7021C114.995 37.5143 115.026 38.712 115.041 38.9074C115.221 38.9742 115.725 39.0513 116.434 39.0513C117.442 39.0513 118.347 38.6298 118.347 37.4937C118.347 36.2755 117.488 35.8385 116.126 35.8385H116.131Z" fill="#3F2267"/>
<path id="Vector_14" d="M122.963 35.3501C122.963 32.672 124.701 29.8036 128.479 29.8036C131.79 29.8036 133.8 32.2864 133.8 35.0931C133.8 38.5321 131.805 40.8504 128.299 40.8504C124.793 40.8504 122.963 38.1723 122.963 35.3501ZM131.106 35.381C131.106 33.4173 130.232 31.6028 128.186 31.6028C127.132 31.6028 125.59 32.2659 125.59 35.124C125.605 37.4577 126.711 39.0667 128.541 39.0667C129.61 39.0667 131.106 38.5013 131.106 35.3861V35.381Z" fill="#3F2267"/>
</g>
<g id="Group_2">
<path id="Vector_15" d="M9.21642 23.6557C7.55592 23.7739 6.41979 24.0052 6.03937 23.5889L3.01654 26.7965C3.49978 26.8531 4.15781 26.8325 4.76957 26.7554C40.3597 22.2523 15.1901 56.0869 11.5504 60.9343H14.2288C17.1076 57.7164 29.7593 43.1689 29.7593 34.3838C29.7593 27.5779 26.8444 22.4168 9.21642 23.6506V23.6557Z" fill="url(#paint0_linear_135_3654)"/>
<path id="Vector_16" d="M6.28615 23.7431C7.16524 24.216 20.5469 23.0234 23.6982 28.4723C27.5179 35.0726 21.6779 44.49 20.6189 46.32C21.647 43.9399 25.9448 35.0778 21.6111 30.0915C16.1412 23.7945 4.38403 28.6265 1.36121 26.4007C1.52057 26.2259 6.26559 22.1135 6.26559 22.1135C6.26559 22.1135 5.46875 23.301 6.28615 23.7431Z" fill="url(#paint1_linear_135_3654)"/>
<path id="Vector_17" d="M6.26555 22.1135L3.19645 19.4353C3.19645 19.4353 -1.42518 23.2906 1.36117 26.4006L6.26555 22.1135Z" fill="url(#paint2_linear_135_3654)"/>
<path id="Vector_18" d="M3.19135 19.4353L22.7575 3.5307L28.8648 2.62598L6.26558 22.1135L3.19135 19.4353Z" fill="url(#paint3_linear_135_3654)"/>
<path id="Vector_19" d="M27.9703 0.333374L22.7574 3.53074L28.8648 2.62602L27.9703 0.333374Z" fill="url(#paint4_linear_135_3654)"/>
<path id="Vector_20" d="M22.7574 3.53074L8.15736 3.43821L3.45862 0.333374H27.9702L22.7574 3.53074Z" fill="url(#paint5_linear_135_3654)"/>
<path id="Vector_21" d="M4.34285 10.8765L3.45862 0.333374L8.15736 3.43821L4.34285 10.8765Z" fill="url(#paint6_linear_135_3654)"/>
<path id="Vector_22" d="M2.27112 10.6092L4.34288 10.8765L3.45866 0.333374L2.27112 10.6092Z" fill="url(#paint7_linear_135_3654)"/>
</g>
</g>
<defs>
<linearGradient id="paint0_linear_135_3654" x1="5.73606" y1="57.0122" x2="20.4987" y2="22.2618" gradientUnits="userSpaceOnUse">
<stop stop-color="#0081CA"/>
<stop offset="0.66" stop-color="#662382"/>
<stop offset="1" stop-color="#281D68"/>
</linearGradient>
<linearGradient id="paint1_linear_135_3654" x1="22.3256" y1="37.1031" x2="2.36451" y2="24.9086" gradientUnits="userSpaceOnUse">
<stop stop-color="#2C60AB"/>
<stop offset="1" stop-color="#009A95"/>
</linearGradient>
<linearGradient id="paint2_linear_135_3654" x1="5.19625" y1="21.6611" x2="-0.479122" y2="24.1083" gradientUnits="userSpaceOnUse">
<stop stop-color="#935184"/>
<stop offset="1" stop-color="#007562"/>
</linearGradient>
<linearGradient id="paint3_linear_135_3654" x1="7.42741" y1="18.5768" x2="27.1414" y2="2.53196" gradientUnits="userSpaceOnUse">
<stop stop-color="#E43274"/>
<stop offset="0.99" stop-color="#7D2F88"/>
</linearGradient>
<linearGradient id="paint4_linear_135_3654" x1="22.8089" y1="1.55166" x2="32.2166" y2="2.96036" gradientUnits="userSpaceOnUse">
<stop stop-color="#83256A"/>
<stop offset="1" stop-color="#E46175"/>
</linearGradient>
<linearGradient id="paint5_linear_135_3654" x1="4.78496" y1="1.93206" x2="24.8292" y2="1.93206" gradientUnits="userSpaceOnUse">
<stop stop-color="#F69F07"/>
<stop offset="1" stop-color="#E50066"/>
</linearGradient>
<linearGradient id="paint6_linear_135_3654" x1="2.99594" y1="6.68185" x2="6.66618" y2="2.32245" gradientUnits="userSpaceOnUse">
<stop stop-color="#EE7203"/>
<stop offset="1" stop-color="#CC1636"/>
</linearGradient>
<linearGradient id="paint7_linear_135_3654" x1="4.84669" y1="2.91903" x2="1.40279" y2="12.7118" gradientUnits="userSpaceOnUse">
<stop stop-color="#E29A17"/>
<stop offset="1" stop-color="#FFF162"/>
</linearGradient>
<clipPath id="clip0_135_3654">
<rect width="133.333" height="60.6061" fill="white" transform="translate(0.466675 0.333374)"/>
</clipPath>
</defs>
</svg>
