<svg width="151" height="55" viewBox="0 0 151 55" fill="none" xmlns="http://www.w3.org/2000/svg">
<g id="a" clip-path="url(#clip0_135_3634)">
<path id="Vector" d="M142.292 41.2744V46.9837L145.69 41.2744H142.292Z" fill="white"/>
<g id="Group">
<g id="Group_2">
<g id="Group_3">
<path id="Vector_2" d="M132.848 36.4657V18.4175H127.724L122.279 26.9675V18.4175H117.167V26.9078C117.031 24.6357 116.069 22.5782 114.549 21.0614C112.907 19.4194 110.606 18.4095 108.034 18.4115C105.464 18.4115 103.161 19.4214 101.519 21.0614C99.8752 22.7014 98.8815 24.9736 98.8835 27.4664C98.8835 29.9593 99.8831 32.2215 101.533 33.8437C103.179 35.4678 105.478 36.4598 108.036 36.4598H108.042C110.598 36.4598 112.895 35.4678 114.541 33.8437C116.065 32.3428 117.035 30.2952 117.171 28.0251V36.4657H121.796L127.241 27.9177V36.4657H132.85H132.848ZM112.075 27.4486C112.075 28.5499 111.634 29.5478 110.905 30.2634C110.179 30.9811 109.165 31.4184 108.036 31.4184H108.034C106.905 31.4184 105.891 30.9811 105.163 30.2634C104.434 29.5478 103.993 28.5479 103.993 27.4486C103.993 26.3492 104.432 25.3453 105.159 24.6217C105.883 23.8962 106.901 23.4509 108.034 23.4509C109.169 23.4509 110.185 23.8962 110.911 24.6217C111.638 25.3453 112.077 26.3492 112.075 27.4486Z" fill="#02080B"/>
<path id="Vector_3" d="M98.8835 36.4598V18.4115H93.7735V31.4522H89.7629V18.4115H84.6529V31.4522H80.6423V18.4115H75.5323V30.3787C75.5084 29.0309 75.1173 27.5937 74.0997 26.4506C73.0521 25.2658 71.3681 24.5243 69.1732 24.5343H67.8783V18.4115H62.7682V36.4598H69.1812C70.957 36.4598 72.5553 35.8853 73.7086 34.8237C74.8439 33.788 75.5084 32.2891 75.5323 30.6173V36.4598H98.8875H98.8835ZM70.56 30.4901C70.56 30.826 70.4303 31.1282 70.2048 31.3349C69.9773 31.5417 69.6661 31.655 69.3149 31.655H67.8822V29.3232H69.3149C69.6641 29.3232 69.9773 29.4365 70.2048 29.6432C70.4323 29.8519 70.562 30.1541 70.56 30.4901Z" fill="#02080B"/>
<path id="Vector_4" d="M61.994 36.4657V18.4174H57.3669L57.0496 18.9184L48.9507 31.7046C49.6251 30.4423 50.0042 28.9971 50.0042 27.4644C50.0042 24.9735 49.0125 22.6994 47.3684 21.0593C45.7262 19.4173 43.4256 18.4075 40.8537 18.4095C38.2817 18.4095 35.9811 19.4193 34.3389 21.0593C32.6948 22.6994 31.7011 24.9716 31.7031 27.4644C31.7031 27.9574 31.743 28.4385 31.8189 28.9096C31.6912 28.3769 31.4796 27.7745 31.1145 27.1722C30.6895 26.4724 30.043 25.7826 29.1292 25.2936C28.2153 24.8006 27.058 24.5124 25.6433 24.5143H24.1768V23.3971H30.5379V18.3916L19.1127 18.3657V36.414L25.6433 36.4398C25.6433 36.4398 25.6493 36.4398 25.6513 36.4398C27.4351 36.4398 29.0354 35.8653 30.1887 34.8038C31.346 33.7442 32.0104 32.2036 32.0044 30.49C32.0024 30.2833 31.9924 29.9175 31.9246 29.4642C32.3037 31.1579 33.1557 32.6707 34.3509 33.8456C35.997 35.4697 38.2957 36.4617 40.8537 36.4617H40.8596C43.4156 36.4617 45.7123 35.4697 47.3564 33.8456C47.6796 33.5275 47.9769 33.1836 48.2483 32.8198L45.9377 36.4697H51.4408L56.886 27.9196V36.4697H61.996L61.994 36.4657ZM26.8665 30.488C26.8665 30.824 26.7368 31.1261 26.5113 31.3349C26.2838 31.5416 25.9726 31.6549 25.6214 31.6549H24.1888V29.3231H25.6214C25.9706 29.3231 26.2838 29.4364 26.5113 29.6432C26.7388 29.8519 26.8685 30.154 26.8665 30.488ZM44.8922 27.4485C44.8922 28.5498 44.4512 29.5477 43.7229 30.2634C42.9966 30.981 41.983 31.4184 40.8537 31.4184C39.7243 31.4184 38.7087 30.981 37.9824 30.2634C37.2541 29.5477 36.8131 28.5478 36.8131 27.4485C36.8131 26.3492 37.2521 25.3453 37.9764 24.6217C38.7007 23.8961 39.7183 23.4508 40.8537 23.4508C41.989 23.4508 43.0046 23.8961 43.7309 24.6217C44.4572 25.3453 44.8962 26.3492 44.8942 27.4485" fill="#02080B"/>
<path id="Vector_5" d="M129.976 41.9105H131.447V39.0956H132.818V38.1394H128.61V39.0956H129.976V41.9105ZM126.489 38.9505C126.926 38.9505 127.125 39.034 127.125 39.356C127.125 39.6781 126.928 39.7655 126.489 39.7655H125.687V38.9505H126.489ZM124.22 41.9105H125.685V40.5866H127.051C128.135 40.5866 128.725 40.1293 128.725 39.36C128.725 38.5907 128.137 38.1394 127.051 38.1394H124.22V41.9105ZM120.403 40.026C120.403 39.366 120.742 39.0082 121.373 39.0082C122.003 39.0082 122.342 39.366 122.342 40.026C122.342 40.686 122.003 41.0398 121.373 41.0398C120.742 41.0398 120.403 40.686 120.403 40.026ZM118.829 40.026C118.829 41.33 119.685 42.0198 121.373 42.0198C123.061 42.0198 123.917 41.328 123.917 40.026C123.917 38.7239 123.061 38.042 121.373 38.042C119.685 38.042 118.829 38.7219 118.829 40.026ZM113.922 41.9105H115.387V39.0797H117.061V41.9105H118.525V38.1394H113.922V41.9105ZM111.999 39.7238H113.673C113.621 38.6483 112.755 38.04 111.171 38.04C109.481 38.04 108.627 38.7199 108.627 40.024C108.627 41.328 109.483 42.0079 111.171 42.0079C112.677 42.0079 113.533 41.4573 113.683 40.4235H111.993C111.905 40.8331 111.618 41.0358 111.169 41.0358C110.538 41.0358 110.199 40.682 110.199 40.022C110.199 39.362 110.538 39.0042 111.169 39.0042C111.659 39.0042 111.951 39.2527 111.997 39.7218" fill="#02080B"/>
<g id="Group_4">
<path id="Vector_6" d="M55.4215 38.1813V39.9604H56.1138V38.6246H57.2033V38.1813H55.4215ZM53.5738 39.0699C53.5738 38.7578 53.7334 38.5888 54.0307 38.5888C54.328 38.5888 54.4877 38.7578 54.4877 39.0699C54.4877 39.382 54.328 39.5489 54.0307 39.5489C53.7334 39.5489 53.5738 39.382 53.5738 39.0699ZM52.8316 39.0699C52.8316 39.6841 53.2346 40.0101 54.0307 40.0101C54.8269 40.0101 55.2299 39.6841 55.2299 39.0699C55.2299 38.4556 54.8269 38.1335 54.0307 38.1335C53.2346 38.1335 52.8316 38.4536 52.8316 39.0699ZM51.7661 39.5768H51.363V39.2209H51.7661C51.9576 39.2209 52.0434 39.2547 52.0434 39.3998C52.0434 39.545 51.9576 39.5768 51.7661 39.5768ZM50.6726 38.1813V39.9604H52.0294C52.5263 39.9604 52.7976 39.7477 52.7976 39.3979C52.7976 39.048 52.5402 38.8452 52.0454 38.8452H51.365V38.5649H52.5722V38.1832H50.6746L50.6726 38.1813ZM48.7711 39.9604H49.4196V39.3899H48.7711V39.9604ZM46.6261 39.9604H48.5755V39.5032H47.3165V39.2686H48.2882V38.8333H47.3165V38.6206H48.5157V38.1852H46.6241V39.9644L46.6261 39.9604ZM44.553 39.9604H46.5024V39.5032H45.2434V39.2686H46.2151V38.8333H45.2434V38.6206H46.4425V38.1852H44.551V39.9644L44.553 39.9604ZM42.0888 39.9604H42.7791V39.2408H43.5693V39.9604H44.2597V38.1813H43.5693V38.7955H42.7791V38.1813H42.0888V39.9604ZM40.9195 39.5788H40.5165V39.2229H40.9195C41.1111 39.2229 41.1969 39.2567 41.1969 39.4018C41.1969 39.547 41.1111 39.5788 40.9195 39.5788ZM39.8261 38.1813V39.9604H41.1829C41.6797 39.9604 41.9491 39.7477 41.9491 39.3979C41.9491 39.048 41.6917 38.8452 41.1969 38.8452H40.5165V38.1832H39.8261V38.1813ZM37.5474 39.0957C37.5474 39.382 37.5434 39.5589 37.312 39.5589C37.2381 39.5589 37.1823 39.5549 37.1404 39.541V39.9545C37.2781 39.9783 37.4117 39.9922 37.5494 39.9922C37.7849 39.9922 37.9285 39.9425 38.0403 39.8253C38.17 39.6841 38.2378 39.4476 38.2378 39.1096V38.6246H38.8424V39.9604H39.5328V38.1813H37.5494V39.0957H37.5474ZM37.0386 39.9604V38.1813H36.2565L35.5302 39.205V38.1813H34.8617V39.9604H35.6359L36.3861 38.9029V39.9604H37.0366H37.0386ZM33.91 38.9287H34.7001C34.6762 38.4218 34.2671 38.1355 33.5209 38.1355C32.7247 38.1355 32.3217 38.4556 32.3217 39.0718C32.3217 39.6881 32.7247 40.0081 33.5209 40.0081C34.2312 40.0081 34.6343 39.7477 34.7061 39.2607H33.91C33.8681 39.4535 33.7324 39.5509 33.5209 39.5509C33.2236 39.5509 33.0639 39.3839 33.0639 39.0718C33.0639 38.7597 33.2236 38.5908 33.5209 38.5908C33.7523 38.5908 33.89 38.7081 33.912 38.9287M30.4261 39.9604H31.0746V39.3899H30.4261V39.9604ZM28.2812 39.9604H30.2306V39.5032H28.9715V39.2686H29.9433V38.8333H28.9715V38.6206H30.1707V38.1852H28.2792V39.9644L28.2812 39.9604ZM26.0983 38.1813V39.4913H25.5615V38.1813H24.8951V39.9604H27.9679V38.1813H27.3015V39.4913H26.7647V38.1813H26.0963H26.0983ZM23.8895 39.9604H24.5799V38.1813H23.8895V39.9604ZM22.5267 39.5788H22.1236V39.2229H22.5267C22.7182 39.2229 22.804 39.2567 22.804 39.4018C22.804 39.547 22.7182 39.5788 22.5267 39.5788ZM21.4332 38.1813V39.9604H22.806C23.3009 39.9604 23.5582 39.7477 23.5582 39.3979C23.5582 39.048 23.3009 38.8452 22.806 38.8452H22.1256V38.1832H21.4352L21.4332 38.1813ZM19.7332 39.5171V39.2229H20.2221C20.4096 39.2229 20.4934 39.2408 20.4934 39.372C20.4934 39.5032 20.4056 39.5171 20.2221 39.5171H19.7332ZM19.7332 38.5987H20.1981C20.3598 38.5987 20.4396 38.6047 20.4396 38.724C20.4396 38.8432 20.3637 38.8512 20.1981 38.8512H19.7332V38.5987ZM20.4795 38.1832H19.0428V39.9624H20.5693C21.0142 39.9624 21.2357 39.7915 21.2357 39.4555C21.2357 39.2329 21.1299 39.0838 20.9264 39.0162C21.0821 38.9347 21.1619 38.8015 21.1619 38.6265C21.1619 38.2866 20.9424 38.1832 20.4775 38.1832" fill="#02080B"/>
<path id="Vector_7" d="M61.6848 39.9603H63.6342V39.5031H62.3751V39.2666H63.3469V38.8312H62.3751V38.6185H63.5743V38.1812H61.6848V39.9603Z" fill="#02080B"/>
<path id="Vector_8" d="M61.3915 38.1812H60.7011V38.8233C60.6233 38.8511 60.4876 38.8849 60.3399 38.8849C60.1504 38.8849 59.9927 38.8392 59.9927 38.5827V38.1812H59.3024V38.7179C59.3024 39.1811 59.7453 39.2904 60.1663 39.2904C60.3699 39.2904 60.5674 39.2566 60.7031 39.2189V39.9584H61.3935V38.1792L61.3915 38.1812Z" fill="#02080B"/>
<path id="Vector_9" d="M58.6698 38.1812H57.7919L57.0197 39.9603H57.76L57.8238 39.7834H58.584L58.6439 39.9603H59.3921L58.6718 38.1812H58.6698ZM57.9894 39.3481L58.2149 38.7199L58.4284 39.3481H57.9874H57.9894Z" fill="#02080B"/>
</g>
</g>
<path id="Vector_10" d="M123.619 21.8903L127.321 15.6721H123.619V21.8903Z" fill="#02080B"/>
</g>
</g>
</g>
<defs>
<clipPath id="clip0_135_3634">
<rect width="150" height="54.1667" fill="white" transform="translate(0.93335 0.333374)"/>
</clipPath>
</defs>
</svg>
