<svg width="130" height="36" viewBox="0 0 130 36" fill="none" xmlns="http://www.w3.org/2000/svg">
<g id="a" clip-path="url(#clip0_135_3313)">
<path id="Vector" d="M33.5778 16.6077H40.6715V23.1389L44.6 16.6077H52.3896L46.351 25.2079L52.5692 34.7363H44.3979L40.6715 27.8472V34.7363H33.5778V16.6077Z" fill="#0067B2"/>
<path id="Vector_2" d="M31.7819 34.1659C30.6707 34.7587 29.1442 35.2731 27.0116 35.2731C21.2311 35.2731 17.1231 31.4707 17.1231 25.6664C17.1231 19.0904 22.3985 16.0597 26.9106 16.0597C28.3585 16.0597 30.3564 16.4176 31.7819 17.4353V23.7764C30.6932 22.4008 29.0993 21.864 27.8534 21.864C25.2157 21.864 23.9474 23.6534 23.9474 25.8565C23.9474 28.0597 25.5974 29.48 27.831 29.48C29.4024 29.48 30.7717 28.7531 31.7819 27.8248V34.1659Z" fill="#0067B2"/>
<path id="Vector_3" d="M7.59371 30.3859V27.6682H8.45797C9.14265 27.6682 10.2314 27.8024 10.2314 29.0215C10.2314 30.2405 9.10898 30.397 8.45797 30.397H7.59371V30.3859ZM0.5 16.6077V34.7363H10.9946C15.9109 34.7363 16.9772 31.5266 16.9772 29.6813C16.9772 27.2209 15.3272 25.4315 13.0487 25.0513V24.9954C14.5191 24.5592 16.1466 23.2619 16.1466 21.2153C16.1466 19.8174 15.619 16.6077 10.512 16.6077H0.5ZM7.59371 23.4968V20.9581H8.25594C9.4906 20.9581 9.82733 21.6067 9.82733 22.233C9.82733 22.8593 9.4906 23.4968 8.25594 23.4968H7.59371Z" fill="#0067B2"/>
<path id="Vector_4" d="M94.0539 18.9115L92.0335 19.0009L91.8427 18.4977L89.9009 18.3635L89.8785 18.0056L87.7908 17.972L88.1387 18.7213L89.0703 18.8332L88.9581 18.5871L89.7999 19.1463L91.2029 19.4706L92.1345 19.5042L94.4916 19.1911L94.0539 18.9115Z" fill="#62BAEA"/>
<path id="Vector_5" d="M88.8908 17.1557L87.9367 17.0215C87.9367 17.0215 87.9591 16.6859 87.5887 16.507C87.2183 16.3169 87.2969 16.4958 87.2969 16.4958L86.9377 16.2274L86.2643 16.1156L86.2082 15.6123L85.3439 15.5676L85.3664 15.3215L84.6817 15.2433L84.3898 14.986L84.4796 14.7065L84.3113 14.4492L83.4919 14.069L82.8072 13.8006L82.3583 13.2861L81.8195 12.8276L81.1236 12.1566L79.4063 11.5527L77.7788 10.356L77.1166 10.0764L76.4206 9.72975L74.939 8.93571L72.7503 7.7167L67.9127 5.37933L66.5321 4.76423C65.7464 4.42872 65.6229 4.24979 65.6005 4.14913C64.8934 3.98138 64.6577 3.85836 64.2873 3.4893C63.9169 3.50048 63.075 3.01959 62.8506 2.8071C62.8506 2.79592 61.4251 2.38213 61.3353 2.30384C61.3353 2.21437 57.6425 0.917074 57.1935 0.816421C56.868 0.794054 55.9813 0.6263 55.8579 0.570382C55.712 0.570382 55.1395 0.391445 54.915 0.369077C54.1518 0.279609 53.411 0.167773 52.6253 0.156589C52.0641 0.156589 51.7386 0.156589 51.2447 0.0335693C51.0651 0.145405 49.909 -0.0670831 49.505 0.246058C49.0448 0.268425 47.9785 0.503281 47.6866 0.637484C47.0581 0.659851 45.9806 1.35323 45.6214 1.53217C45.4418 1.62164 45.251 1.71111 45.0602 1.80058C46.2163 2.20319 47.5295 2.68408 47.5295 2.74C47.6193 2.81829 49.0448 3.23208 49.0448 3.24326C49.2692 3.46693 50.1111 3.94783 50.4815 3.93665C50.8519 4.3057 51.0876 4.42872 51.7947 4.59648C51.8171 4.69713 51.9406 4.87607 52.7151 5.21158L54.0957 5.81549L58.9333 8.15286L61.122 9.37187L62.6036 10.1659L63.2995 10.5126L63.9618 10.7922L64.5005 11.1948L65.5668 11.6086L67.9688 12.3914L70.8647 13.521L71.9422 13.89L73.0309 14.2256L73.5472 14.1361L74.1085 14.3262L74.737 14.8854L75.3768 14.6729L75.8145 14.7512L76.1625 15.1985L76.387 15.4669L76.937 15.6347L77.4757 15.7018L78.1155 15.59L78.8675 15.6571L79.1369 16.1044L80.192 16.2833L80.944 16.3393L81.7073 16.3952L82.2909 16.6636L82.8184 17.2339L83.5817 17.3905L85.5459 17.6701L87.3194 17.4576L88.4755 17.5135L88.8908 17.2004V17.1557Z" fill="#62BAEA"/>
<path id="Vector_6" d="M72.9636 20.0298L75.0513 20.0522L75.0737 20.4212L77.0155 20.5554L77.2063 21.0587L79.2267 20.9692L79.6644 21.2376L77.3074 21.5508L76.3757 21.5172L74.9727 21.2041L74.1309 20.6449L74.2431 20.8909L73.3115 20.7791L72.9636 20.0298Z" fill="#0067B2"/>
<path id="Vector_7" d="M73.1768 19.1687C73.1768 19.1687 73.1993 18.8332 72.8289 18.6542C72.4585 18.4641 72.5371 18.6431 72.5371 18.6431L72.1667 18.3746L71.4932 18.2628L71.4371 17.7596L70.5728 17.7148L70.5953 17.4688L69.9106 17.3905L69.6188 17.1333L69.7086 16.8425L69.5402 16.5853L68.7321 16.1938L68.0474 15.9254L67.5984 15.411L67.0596 14.9413L66.375 14.2703L64.6577 13.6664L63.0301 12.4697L62.3679 12.1901L61.6608 11.8434L60.1792 11.0494L57.9905 9.83038L53.1641 7.49301L51.7835 6.87791C50.9978 6.5424 50.8743 6.36346 50.8519 6.26281C50.1447 6.09506 49.909 5.97204 49.5386 5.60298C49.1682 5.62534 48.3264 5.14445 48.1019 4.92078C48.1019 4.90959 46.6765 4.4958 46.5867 4.40633C46.5867 4.32805 42.8939 3.01957 42.4449 2.90773C42.1194 2.88536 41.2327 2.71761 41.1092 2.66169C40.9521 2.66169 40.3909 2.48275 40.1664 2.46039C39.4032 2.37092 38.6624 2.25908 37.8767 2.2479C37.3042 2.2479 36.9899 2.2479 36.4961 2.12488C36.3165 2.23671 35.1604 2.02423 34.7451 2.32618C34.2849 2.34855 33.2298 2.58341 32.938 2.71761C32.3094 2.73998 31.2319 3.43336 30.8615 3.6123C30.5472 3.76887 30.1768 3.92544 29.885 4.10438C29.7503 4.21621 27.73 5.21155 27.5953 5.33457C27.6289 5.40167 25.6198 6.59832 25.429 6.76607C25.3392 6.85554 24.8117 7.06803 24.677 7.20223C24.5423 7.33644 24.0035 7.81733 23.8239 7.9068C23.7454 8.07455 23.2291 8.25349 23.1505 8.42124C23.027 8.589 22.4209 8.87977 22.3199 9.00279C22.2974 9.01398 21.9607 9.29357 21.6913 9.51724C21.5791 9.66262 21.4668 9.81919 21.3546 9.96458C21.2199 10.0093 20.6812 10.3225 20.5465 10.4231C20.5577 10.7474 20.5801 11.2507 20.075 11.15L19.4802 11.4967C19.5475 11.4967 19.1659 12.0559 18.8516 12.4585C18.6608 12.6822 17.7965 13.0065 17.6282 13.2414C17.2802 13.7223 16.8312 14.1696 16.4833 14.6393V14.6729H16.5282C16.5282 14.74 16.8649 14.7288 16.9098 14.8518C16.9772 15.0419 16.7751 15.2097 16.719 15.3663H16.7639V15.3998C17.0333 15.3998 17.2914 15.109 17.5159 14.9972C17.6955 14.9301 17.8751 14.8518 18.0547 14.7847C18.3802 14.5946 18.6945 14.4045 19.0087 14.2143C21.3995 12.9171 23.7903 11.6198 26.181 10.3336C27.3259 9.71854 28.2351 9.14818 29.5034 8.45479C29.8064 8.28704 30.9625 7.51537 31.8268 7.45945C32.9268 7.39235 34.24 7.67194 34.5992 7.81733C34.9359 7.94035 35.7665 8.35414 36.193 8.45479C36.3165 8.49953 36.5634 8.67847 36.6195 8.66728C36.6644 8.7232 37.4501 8.84622 37.8654 8.99161C38.0114 9.08108 38.146 9.15936 38.292 9.24883C38.9766 9.45014 40.6827 9.85274 41.3 10.0429C41.8276 10.1994 42.1419 10.5014 42.4 10.5573C42.7592 10.8034 42.8378 10.6803 43.2755 10.8928C43.9377 10.9599 44.3418 11.1948 44.3643 11.2171C44.5663 11.3066 44.7122 11.3849 44.9142 11.4744C45.0826 11.4967 45.4081 11.754 45.5428 11.8099C45.6999 11.8434 46.7775 12.1678 46.8785 12.2237C47.0581 12.2013 47.8213 12.5368 47.9111 12.6151C48.1244 12.7157 48.3713 12.7717 48.6182 12.8164L50.8182 13.6775L53.2202 14.4604L56.116 15.5899L57.2048 15.959L58.2935 16.2945L58.7986 16.205L59.371 16.3952L59.9996 16.9543L60.6394 16.7418L61.0771 16.8201L61.4251 17.2675L61.6496 17.5359L62.1996 17.6924L62.7383 17.7596L63.3781 17.6477L64.1301 17.7148L64.3995 18.1622L65.4546 18.3411L66.2066 18.397L66.9699 18.4529L67.5535 18.7213L68.081 19.2917L68.8443 19.4483L70.8085 19.739L72.582 19.5266L73.7381 19.5825L74.1534 19.2693L73.1993 19.1351L73.1768 19.1687Z" fill="#0067B2"/>
<path id="Vector_8" d="M58.4843 34.5237C58.1476 34.7027 57.6874 34.8592 57.0813 34.8592C56.0824 34.8592 55.4875 34.5125 55.0048 34.0764C54.3538 33.4501 54.0957 32.7455 54.0957 31.9068C54.0957 30.8891 54.5222 30.1398 55.0048 29.6924C55.5773 29.1556 56.2844 28.9431 57.0925 28.9431C57.4854 28.9431 57.968 29.0102 58.4956 29.2898V30.5759C57.9792 29.9832 57.3282 29.9385 57.115 29.9385C55.9813 29.9385 55.2293 30.8779 55.2293 31.918C55.2293 33.1705 56.1946 33.8527 57.1599 33.8527C57.6874 33.8527 58.1588 33.629 58.4843 33.2376V34.5237Z" fill="#0067B2"/>
<path id="Vector_9" d="M61.7281 34.7251H60.6169V30.0168H59.3374V29.0662H63.0077V30.0168H61.7281V34.7251Z" fill="#0067B2"/>
<path id="Vector_10" d="M64.1301 29.0662V34.7251H65.2413V32.6337H65.9597C66.6107 32.6337 67.0821 32.4436 67.3964 32.1305C67.8341 31.7055 67.8678 31.0904 67.8678 30.8667C67.8678 30.4641 67.7443 29.9049 67.2841 29.5023C66.8688 29.1333 66.4199 29.0662 65.7801 29.0662H64.1301ZM65.2413 30.0168H65.6229C65.8923 30.0168 66.1729 30.028 66.4086 30.1957C66.577 30.3187 66.7229 30.5312 66.7229 30.8332C66.7229 31.0792 66.6219 31.3364 66.4199 31.493C66.1841 31.6719 65.9035 31.6719 65.6903 31.6719H65.2413V30.0056V30.0168Z" fill="#0067B2"/>
<path id="Vector_11" d="M72.6044 34.7251H73.7942L71.4034 28.9543H70.5616L68.1035 34.7251H69.3045L69.8096 33.5396H72.0993L72.6044 34.7251ZM70.1575 32.6338L70.9769 30.5983L71.7738 32.6338H70.1575Z" fill="#0067B2"/>
<path id="Vector_12" d="M76.3309 31.739L74.636 29.0662H75.9605L76.9594 30.822L78.0033 29.0662H79.3389L77.588 31.739L79.5298 34.7251H78.2053L76.9594 32.6561L75.6462 34.7251H74.3105L76.3309 31.739Z" fill="#0067B2"/>
<path id="Vector_13" d="M83.5368 28.9431C81.7522 28.9431 80.5063 30.1845 80.5063 31.9068C80.5063 33.629 81.7522 34.8592 83.5368 34.8592C85.3215 34.8592 86.5673 33.629 86.5673 31.9068C86.5673 30.1845 85.3215 28.9431 83.5368 28.9431ZM83.5368 33.8527C82.4256 33.8527 81.6399 33.0475 81.6399 31.8956C81.6399 30.7437 82.4256 29.9385 83.5368 29.9385C84.648 29.9385 85.4337 30.7549 85.4337 31.8956C85.4337 33.0363 84.648 33.8527 83.5368 33.8527Z" fill="#0067B2"/>
<path id="Vector_14" d="M89.1265 32.2647H89.5305C89.7662 32.2647 90.0468 32.2647 90.2826 32.3765C90.6417 32.5331 90.6979 32.8462 90.6979 33.0252C90.6979 33.2488 90.6193 33.5172 90.3499 33.6738C90.103 33.8192 89.7999 33.8304 89.5867 33.8304H89.1152V32.2647H89.1265ZM88.0153 29.0662V34.7251H89.9234C90.4172 34.7251 90.9336 34.6468 91.3713 34.2665C91.7642 33.9198 91.8539 33.4501 91.8539 33.1258C91.8539 32.835 91.7866 32.3877 91.4386 32.0634C91.2927 31.9292 91.0683 31.7726 90.6979 31.7055C90.855 31.616 91.3376 31.3252 91.3376 30.5983C91.3376 30.1286 91.1468 29.6813 90.8101 29.424C90.3499 29.0662 89.7326 29.0662 89.4183 29.0662H88.0153ZM89.1265 29.9609H89.452C89.9009 29.9609 90.305 30.151 90.305 30.6766C90.305 31.4035 89.6203 31.4147 89.4407 31.4147H89.1265V29.9609Z" fill="#0067B2"/>
<path id="Vector_15" d="M96.0743 28.9431C94.2896 28.9431 93.0437 30.1845 93.0437 31.9068C93.0437 33.629 94.2896 34.8592 96.0743 34.8592C97.8589 34.8592 99.1048 33.629 99.1048 31.9068C99.1048 30.1845 97.8589 28.9431 96.0743 28.9431ZM96.0743 33.8527C94.9631 33.8527 94.1774 33.0475 94.1774 31.8956C94.1774 30.7437 94.9631 29.9385 96.0743 29.9385C97.1855 29.9385 97.9712 30.7549 97.9712 31.8956C97.9712 33.0363 97.1855 33.8527 96.0743 33.8527Z" fill="#0067B2"/>
<path id="Vector_16" d="M102.292 27.2656C102.472 27.7353 102.943 27.7577 103.056 27.7577C103.168 27.7577 103.639 27.7353 103.819 27.2656L104.582 27.5676C104.358 28.1379 103.83 28.5182 103.045 28.5182C102.259 28.5182 101.731 28.1491 101.507 27.5676L102.281 27.2656H102.292ZM101.664 29.0774V32.8798L104.795 28.9543H105.57V34.7363H104.459V30.9227L101.327 34.8481H100.564V29.0886H101.675L101.664 29.0774Z" fill="#0067B2"/>
<path id="Vector_17" d="M110.25 29.0662V31.5266C110.25 32.3094 110.161 32.7344 110.048 33.014C109.88 33.4389 109.555 33.7968 109.15 33.7745V36H110.172V34.7251H113.663V36H114.684V33.7745H114.089V29.0662H110.25ZM111.328 30.0168H112.978V33.7745H110.688C110.845 33.6179 111.014 33.4166 111.137 33.1034C111.238 32.835 111.328 32.3989 111.328 31.5266V30.0168Z" fill="#0067B2"/>
<path id="Vector_18" d="M118.601 28.9431C116.817 28.9431 115.571 30.1845 115.571 31.9068C115.571 33.629 116.817 34.8592 118.601 34.8592C120.386 34.8592 121.632 33.629 121.632 31.9068C121.632 30.1845 120.386 28.9431 118.601 28.9431ZM118.601 33.8527C117.49 33.8527 116.704 33.0475 116.704 31.8956C116.704 30.7437 117.49 29.9385 118.601 29.9385C119.712 29.9385 120.498 30.7549 120.498 31.8956C120.498 33.0363 119.712 33.8527 118.601 33.8527Z" fill="#0067B2"/>
<path id="Vector_19" d="M122.799 34.7251L123.854 28.9656H124.617L126.166 32.6673L127.771 28.9656H128.546L129.5 34.7251H128.366L127.861 31.2358L126.301 34.8034H125.987L124.494 31.2358L123.922 34.7251H122.799Z" fill="#0067B2"/>
</g>
<defs>
<clipPath id="clip0_135_3313">
<rect width="129" height="36" fill="white" transform="translate(0.5)"/>
</clipPath>
</defs>
</svg>
