<svg width="111" height="32" viewBox="0 0 111 32" fill="none" xmlns="http://www.w3.org/2000/svg">
<g id="a" clip-path="url(#clip0_168_4333)">
<path id="Vector" d="M78.6919 15.4696V31.6235H88.5661V22.5284H98.5063C103.697 22.5284 108.127 19.5918 109.839 15.4696H78.6974H78.6919Z" fill="#006848"/>
<path id="Vector_2" d="M106.812 3.70129C104.88 1.93386 102.31 0.847046 99.475 0.847046H78.2296C78.2736 1.67039 78.3947 2.47177 78.5763 3.2512C78.6204 3.42685 78.6589 3.597 78.7084 3.77265C78.7249 3.84401 78.747 3.90987 78.769 3.98123C80.5303 9.55799 85.7591 13.6033 91.9345 13.6033H110.169C110.279 12.9776 110.351 12.3409 110.351 11.6877C110.351 8.52607 108.986 5.68829 106.817 3.70129" fill="url(#paint0_linear_168_4333)"/>
<path id="Vector_3" d="M61.1892 4.0965L54.2762 19.0319H53.5772V0.847046H43.758V31.6235H52.0911C54.2817 31.6235 56.2686 30.3556 57.1878 28.3741L64.1008 13.4387H64.7998V31.6235H74.619V0.847046H66.2859C64.0953 0.847046 62.1084 2.11499 61.1892 4.0965Z" fill="#006848"/>
<path id="Vector_4" d="M15.462 4.89239L19.5514 19.0374H20.2504L24.3399 4.89239C25.0389 2.49922 27.2405 0.847046 29.7393 0.847046H39.5475V31.6235H29.7283V13.4387H29.0238L23.4097 31.6235H16.3976L10.7836 13.4387H10.0846V31.6235H0.265419V0.847046H10.0735C12.5724 0.847046 14.7685 2.49922 15.462 4.89239Z" fill="#006848"/>
</g>
<defs>
<linearGradient id="paint0_linear_168_4333" x1="78.2296" y1="7.22519" x2="110.345" y2="7.22519" gradientUnits="userSpaceOnUse">
<stop stop-color="#02AFFF"/>
<stop offset="1" stop-color="#1F5BD7"/>
</linearGradient>
<clipPath id="clip0_168_4333">
<rect width="110.08" height="30.7765" fill="white" transform="translate(0.265419 0.847046)"/>
</clipPath>
</defs>
</svg>
