<svg width="96" height="77" viewBox="0 0 96 77" fill="none" xmlns="http://www.w3.org/2000/svg">
<g id="a" clip-path="url(#clip0_135_3558)">
<g id="Group">
<path id="Vector" fill-rule="evenodd" clip-rule="evenodd" d="M6.58879 25.0203C6.58879 25.0203 3.73577 25.5677 3.64347 27.6172C3.54277 30.0204 0.566681 68.626 0.566681 68.626H4.06303L4.37071 63.5641L6.90766 62.9549L7.20695 68.5811H11.0501L7.90901 24.7367L6.59159 25.0203H6.58879ZM4.55252 60.2682L5.56226 44.1757H5.95665L6.73983 59.6982L4.55252 60.271V60.2682Z" fill="#DB330D"/>
<path id="Vector_2" fill-rule="evenodd" clip-rule="evenodd" d="M25.9138 35.6185C25.1306 35.523 23.4887 36.2473 21.9364 36.9801V31.9491C21.9364 31.9491 21.3378 32.0109 20.3588 32.2832C19.377 32.5611 18.4036 33.0665 18.4036 34.1137V36.9548C16.8401 36.2193 15.187 35.4893 14.4066 35.5876C12.1969 35.8599 12.5522 39.1924 12.5522 39.1924V65.3525C12.5522 65.3525 12.1969 68.6878 14.4066 68.9601C15.1898 69.0556 16.8429 68.3284 18.4036 67.5929V76.6638C18.4036 76.6638 18.9966 76.5993 19.9812 76.3269C20.963 76.0518 21.9364 75.5465 21.9364 74.4936V67.5676C23.4887 68.3003 25.1306 69.0219 25.9138 68.9264C27.8997 68.6822 27.8158 65.9729 27.7767 65.4255V39.1222C27.8158 38.5719 27.8997 35.8627 25.9138 35.6213V35.6185ZM16.6135 65.2121C16.0989 65.1812 16.0849 64.5131 16.0905 64.2913H16.0933V40.1104C16.1016 39.8297 16.1828 39.358 16.6107 39.3328C17.0582 39.3075 17.9729 39.7848 18.4008 39.9757V64.5664C17.9757 64.7601 17.0582 65.2374 16.6107 65.2121H16.6135ZM23.7013 65.1812C23.265 65.2065 22.3699 64.7405 21.9364 64.5467V39.9981C22.3727 39.8016 23.265 39.3384 23.7013 39.3637C24.3195 39.3945 24.2216 40.3659 24.2216 40.3659H24.23V64.1846L24.2216 64.179C24.2216 64.179 24.3195 65.1419 23.7013 65.1812Z" fill="#DB330D"/>
<path id="Vector_3" fill-rule="evenodd" clip-rule="evenodd" d="M38.4615 42.4715C38.4615 38.4765 36.7945 36.194 33.7373 35.9048C31.4213 35.6858 29.7906 37.011 29.7906 37.011L30.7276 40.5568C30.7276 40.5568 31.6339 39.1924 32.6296 39.0351C34.2351 38.7853 36.5427 41.7612 33.3373 47.6878C30.129 53.6144 29.6255 55.7481 29.6255 59.7768V64.7545C29.6255 67.5311 30.3192 68.7242 32.0366 68.7832C33.0743 68.8225 35.2756 67.4721 35.2756 67.4721C35.2756 67.4721 35.2924 67.6013 35.4295 68.0083C35.5665 68.4126 35.5973 68.6513 35.5973 68.6513H39.1048C39.1048 68.6513 38.4615 67.2616 38.4615 65.3356V42.4715ZM34.9903 64.4456C34.9903 64.5523 34.2547 64.9173 33.8771 65.0605C33.5918 65.1672 33.231 65.0184 33.231 64.2575V54.9732C33.231 53.1062 33.603 53.0389 34.0114 51.9552C34.4114 50.8715 34.6127 49.3807 34.6127 49.3807H34.9875V64.4456H34.9903Z" fill="#DB330D"/>
<path id="Vector_4" fill-rule="evenodd" clip-rule="evenodd" d="M61.1234 42.4715C61.1234 38.4765 59.4564 36.194 56.402 35.9048C54.0804 35.6858 52.4497 37.011 52.4497 37.011L53.3839 40.5568C53.3839 40.5568 54.2902 39.1924 55.2887 39.0351C56.8915 38.7853 59.199 41.7612 55.9964 47.6878C52.7881 53.6144 52.2847 55.7481 52.2847 59.7768V64.7545C52.2847 67.5311 52.9783 68.7242 54.7013 68.7832C55.7335 68.8225 57.9376 67.4721 57.9376 67.4721C57.9376 67.4721 57.9543 67.6013 58.0914 68.0083C58.2257 68.4126 58.2536 68.6513 58.2536 68.6513H61.7668C61.7668 68.6513 61.1234 67.2616 61.1234 65.3356V42.4715ZM57.6467 64.4456C57.6467 64.5523 56.7124 64.9931 56.3348 65.1391C56.0495 65.2458 55.8929 65.0128 55.8929 63.8673V54.9704C55.8929 53.1034 56.2677 53.036 56.6705 51.9524C57.0733 50.8687 57.2775 49.3779 57.2775 49.3779H57.6467V64.4428V64.4456Z" fill="#DB330D"/>
<path id="Vector_5" fill-rule="evenodd" clip-rule="evenodd" d="M46.7017 50.557H44.3521V36.1069H40.8055V68.626H44.3521V53.2887H46.7017V68.626H50.2456V36.1069H46.7017V50.557Z" fill="#DB330D"/>
<path id="Vector_6" fill-rule="evenodd" clip-rule="evenodd" d="M78.401 51.2224L78.2136 51.2336V36.1069H74.6697V68.626H75.727C75.727 68.626 77.422 68.261 77.7409 66.745C77.8724 66.1273 77.7101 66.8881 80.2779 53.0164H80.566V68.6232H84.1099V36.1041H81.2345L78.4038 51.2196L78.401 51.2224Z" fill="#DB330D"/>
<path id="Vector_7" fill-rule="evenodd" clip-rule="evenodd" d="M92.6913 36.1069L89.8606 51.2224L89.6732 51.2336V36.1069H86.1265V68.626H87.1866C87.1866 68.626 88.876 68.261 89.1977 66.745C89.3292 66.1273 89.1642 66.8881 91.7347 53.0164H92.0172V68.6232H95.5667V36.1041H92.6885L92.6913 36.1069Z" fill="#DB330D"/>
<path id="Vector_8" fill-rule="evenodd" clip-rule="evenodd" d="M72.0572 64.1424C72.0572 64.1424 71.1286 65.7146 69.4224 65.8775C67.7162 66.0347 67.2183 64.9257 67.0365 64.4344C66.8826 64.0273 66.8714 63.3788 66.8686 63.216V41.2924C66.8714 41.1323 66.8854 40.4782 67.0365 40.0739C67.2183 39.5826 67.856 38.4428 69.565 38.6C71.2684 38.7628 72.0936 39.8746 72.0936 39.8746L72.7509 36.6123C72.7509 36.6123 71.3663 35.5005 68.5497 35.6128C65.733 35.7279 64.2002 37.4068 63.6408 38.9734C63.2045 40.1918 63.3164 41.2474 63.3164 41.2474H63.3219V63.2525H63.3164C63.3164 63.2525 63.2045 64.3109 63.6408 65.5321C64.203 67.0959 65.733 68.7776 68.5497 68.8927C71.3663 69.0078 72.7845 67.8146 72.7845 67.8146L72.3146 64.1059L72.0572 64.1396V64.1424Z" fill="#DB330D"/>
<path id="Vector_9" fill-rule="evenodd" clip-rule="evenodd" d="M93.3934 31.5056C94.8646 29.6835 94.2437 28.0383 94.2437 28.0383C94.2437 28.0383 93.1668 29.0687 91.1949 29.8042C89.2229 30.5398 87.3712 30.8346 87.3712 30.8346L88.2635 33.8274C88.2635 33.8274 91.9221 33.322 93.3934 31.5056Z" fill="#DB330D"/>
</g>
<g id="Group_2">
<path id="Vector_10" fill-rule="evenodd" clip-rule="evenodd" d="M61.1514 22.1538C61.1514 22.1538 64.024 22.6114 64.9443 24.6525C65.3974 25.8148 65.1904 27.1848 64.6618 28.4201C64.4855 28.8328 63.4702 30.6605 61.9961 30.9075C63.1989 29.5319 64.1023 27.3505 64.0044 25.8569C63.8898 24.0741 61.3025 23.6025 61.3025 23.6025L61.1486 22.1538H61.1514Z" fill="#6F6F6E"/>
<path id="Vector_11" fill-rule="evenodd" clip-rule="evenodd" d="M60.7934 24.2285C60.7934 24.2285 63.1989 25.0371 63.3024 26.4605C62.3038 25.7249 60.9137 25.3066 60.9137 25.3066L60.7934 24.2285Z" fill="#6F6F6E"/>
<path id="Vector_12" fill-rule="evenodd" clip-rule="evenodd" d="M60.9388 26.104C60.9388 26.104 62.8045 26.5055 62.9304 27.9092C62.0689 27.3337 60.6032 26.9182 60.6032 26.9182L60.9416 26.104H60.9388Z" fill="#6F6F6E"/>
<path id="Vector_13" fill-rule="evenodd" clip-rule="evenodd" d="M60.5277 27.6986C60.5277 27.6986 62.2283 28.1843 62.0996 29.4056C61.4116 28.9536 60.3095 28.6279 60.3095 28.6279L60.5305 27.6986H60.5277Z" fill="#6F6F6E"/>
<path id="Vector_14" fill-rule="evenodd" clip-rule="evenodd" d="M59.6438 29.4926C59.6438 29.4926 61.1514 29.7677 61.1514 30.6717C60.5808 30.4218 59.4536 30.2365 59.4536 30.2365L59.6438 29.4926Z" fill="#6F6F6E"/>
<path id="Vector_15" fill-rule="evenodd" clip-rule="evenodd" d="M50.612 6.76041C50.612 6.76041 49.7869 6.62004 49.7869 5.90975V0C49.7869 0 50.612 0.233021 50.612 0.985426V6.76041Z" fill="#6F6F6E"/>
<path id="Vector_16" fill-rule="evenodd" clip-rule="evenodd" d="M51.0903 1.07802C54.1839 0.856232 55.4957 3.23978 57.1684 3.52053C57.1684 3.52053 56.6677 4.23082 56.8047 4.69967C56.9866 5.32293 57.8453 6.53296 57.8453 6.53296C54.293 6.25221 54.693 4.4863 51.0204 3.5851C53.3839 3.16398 55.0258 5.37908 56.1334 5.01692C55.4957 4.40489 55.6076 4.05957 55.6076 4.05957L55.823 3.65529C54.6594 3.2847 54.1475 1.90342 51.0903 1.07522V1.07802Z" fill="#6F6F6E"/>
<g id="Group_3">
<path id="Vector_17" fill-rule="evenodd" clip-rule="evenodd" d="M32.1653 11.7633C32.1653 11.7633 31.9135 12.1255 31.701 12.3108C31.4884 12.4961 31.3038 12.6308 31.3038 12.6308V13.664C31.3038 13.664 31.6087 13.5994 31.9163 13.3299C32.0142 13.2428 32.1009 13.1474 32.1681 13.0576V20.1015H33.0631V11.7633H32.1681H32.1653Z" fill="#6F6F6E"/>
<path id="Vector_18" fill-rule="evenodd" clip-rule="evenodd" d="M37.2252 12.1676C37.0322 11.8953 36.5875 11.7184 36.0364 11.7184C35.4854 11.7184 35.1749 11.7717 34.8421 12.1142C34.6295 12.3304 34.5959 12.7572 34.5931 12.9144H34.5903V15.9324C34.5903 15.9324 34.5288 16.6118 34.884 16.9122C35.1582 17.1368 35.7008 17.2379 36.1875 17.0301C36.3833 16.9459 36.498 16.8673 36.5623 16.8083V18.768H36.5539C36.5539 18.768 36.6182 19.2537 35.9274 19.2986C35.2365 19.3547 34.6882 18.9476 34.6882 18.9476V19.9864C34.6882 19.9864 34.8924 20.0987 35.2616 20.1436C35.6337 20.1857 36.3497 20.2756 36.9623 19.9611C37.4154 19.7253 37.4434 19.0628 37.4406 18.8269H37.4574V12.9144C37.449 12.7712 37.4126 12.4146 37.2308 12.1704L37.2252 12.1676ZM36.5595 15.8735C36.5595 15.8735 36.5483 16.463 36.0197 16.463C35.5246 16.463 35.4826 16.0896 35.4826 15.9829V12.9761C35.4826 12.9761 35.4966 12.6757 35.8043 12.6757H36.2378C36.5399 12.6757 36.5623 12.9761 36.5623 12.9761V15.8706L36.5595 15.8735Z" fill="#6F6F6E"/>
</g>
<path id="Vector_19" fill-rule="evenodd" clip-rule="evenodd" d="M71.8307 14.9976C71.5537 14.7702 71.0111 14.6663 70.5272 14.874C70.3286 14.9639 70.2139 15.0425 70.1524 15.0958V13.139H70.1552C70.1552 13.139 70.0937 12.6561 70.7845 12.6C71.4726 12.5466 72.0264 12.9565 72.0264 12.9565V11.9178C72.0264 11.9178 71.8195 11.8055 71.4503 11.7605C71.081 11.7156 70.3594 11.6258 69.7496 11.943C69.2965 12.1761 69.2685 12.8386 69.2713 13.0716H69.2545V18.987C69.2629 19.1274 69.3021 19.4867 69.4811 19.7366C69.6741 20.0005 70.1188 20.183 70.6727 20.183C71.2265 20.183 71.537 20.1296 71.8642 19.7843C72.0768 19.5682 72.1104 19.1442 72.1188 18.987V15.969C72.1188 15.969 72.1747 15.2867 71.8279 14.9948L71.8307 14.9976ZM71.2321 18.928C71.2321 18.928 71.2153 19.2256 70.9076 19.2256H70.4741C70.1776 19.2256 70.1524 18.928 70.1524 18.928V16.0279C70.1524 16.0279 70.1664 15.4383 70.6867 15.4383C71.2069 15.4383 71.2265 15.8061 71.2321 15.9156V18.9252V18.928Z" fill="#6F6F6E"/>
<path id="Vector_20" fill-rule="evenodd" clip-rule="evenodd" d="M65.7666 12.6954H67.8168L65.6239 20.1352H66.5917L69.0252 11.7773H65.7666V12.6954Z" fill="#6F6F6E"/>
<path id="Vector_21" fill-rule="evenodd" clip-rule="evenodd" d="M36.7525 3.38016C39.7398 2.7962 45.0319 4.17467 47.938 6.00796C52.4134 9.33763 52.4889 15.2502 50.1925 19.3856C51.4679 14.1721 50.5169 9.85421 47.2975 7.29098C44.0781 4.72775 39.3538 3.55141 36.7525 3.38016Z" fill="#6F6F6E"/>
<path id="Vector_22" fill-rule="evenodd" clip-rule="evenodd" d="M49.7869 7.16187C49.7869 7.16187 55.3223 7.26855 57.3782 9.17483C58.9613 11.3057 58.4467 14.0009 58.4467 14.0009C58.4467 14.0009 57.6775 11.0586 56.2817 9.90197C53.7392 7.79355 49.7869 7.16187 49.7869 7.16187Z" fill="#6F6F6E"/>
<path id="Vector_23" fill-rule="evenodd" clip-rule="evenodd" d="M58.3795 9.53137C58.3795 9.53137 60.3962 9.85423 63.1737 11.6735C65.196 15.8005 63.2017 20.3149 61.9122 21.6765C64.9834 14.1749 61.0032 10.7105 58.3823 9.53137H58.3795Z" fill="#6F6F6E"/>
<path id="Vector_24" fill-rule="evenodd" clip-rule="evenodd" d="M42.2571 24.7761C42.2571 24.7761 42.811 24.5627 43.0851 23.5997C43.7116 21.4155 44.2822 16.0448 41.6138 10.0256C39.7258 5.76942 36.5651 4.06247 34.9596 3.40271C36.263 5.13493 43.9634 9.52863 42.2571 24.7761Z" fill="#6F6F6E"/>
<path id="Vector_25" fill-rule="evenodd" clip-rule="evenodd" d="M41.9914 15.5731L36.8392 25.5341C36.8392 25.5341 37.3427 25.3965 37.6448 24.9613C38.0671 24.3549 42.3355 16.4462 42.3355 16.4462L41.9942 15.5731H41.9914Z" fill="#6F6F6E"/>
<path id="Vector_26" fill-rule="evenodd" clip-rule="evenodd" d="M42.9732 17.2267L38.2937 25.7193C38.2937 25.7193 38.7944 25.5817 39.0993 25.1466C39.5188 24.5402 43.3173 18.1026 43.3173 18.1026L42.9732 17.2295V17.2267Z" fill="#6F6F6E"/>
<path id="Vector_27" fill-rule="evenodd" clip-rule="evenodd" d="M57.8732 31.469C57.8732 31.469 61.9486 26.0056 58.2984 17.1902L59.8536 16.362C59.8536 16.362 59.9934 15.6966 59.5263 15.6011C59.0564 15.5057 57.7306 15.2839 57.7306 15.2839C57.4509 16.084 56.8495 16.7775 56.8495 16.7775L56.5474 20.6686C56.5474 20.6686 55.8733 20.4468 55.8733 19.7534V16.3226C55.8733 16.3226 56.6789 15.267 57.0341 14.1749C57.0341 14.1749 60.9724 14.8543 61.6857 14.9666C62.3989 15.0789 62.136 16.4349 62.136 16.4349L60.2591 17.5636C60.2591 17.5636 63.1066 22.8837 60.6563 28.7261C59.5823 31.2865 57.8648 31.4662 57.8648 31.4662L57.8732 31.469Z" fill="#6F6F6E"/>
<path id="Vector_28" fill-rule="evenodd" clip-rule="evenodd" d="M57.1208 28.2572C57.1208 28.2572 53.4511 27.8979 48.9058 29.5066C45.513 30.7082 38.3105 32.3955 35.5721 30.1804C39.8153 31.5364 44.2739 30.3797 48.5002 28.7261C53.3112 26.8423 57.5152 27.0444 57.5152 27.0444L57.118 28.2572H57.1208Z" fill="#6F6F6E"/>
<path id="Vector_29" fill-rule="evenodd" clip-rule="evenodd" d="M57.0173 29.2511C52.9532 29.1978 48.5785 31.4718 46.1199 31.7498C48.8051 32.1737 53.7391 29.7705 56.7096 30.2702L57.0173 29.2483V29.2511Z" fill="#6F6F6E"/>
<path id="Vector_30" fill-rule="evenodd" clip-rule="evenodd" d="M50.1589 23.1898C50.1393 23.1898 50.1197 23.1982 50.0974 23.201C50.5281 23.3948 50.847 24.237 50.847 25.2477C50.847 26.2584 50.5253 27.0978 50.0974 27.2944C50.1169 27.2972 50.1393 27.3056 50.1589 27.3056C50.7323 27.3056 51.1966 26.3875 51.1966 25.2477C51.1966 24.1079 50.7323 23.1898 50.1589 23.1898Z" fill="#6F6F6E"/>
<g id="Group_4">
<path id="Vector_31" fill-rule="evenodd" clip-rule="evenodd" d="M49.9883 24.4419C49.7729 24.4419 49.5939 24.8013 49.5939 25.2448C49.5939 25.6884 49.7701 26.0506 49.9883 26.0506C50.2064 26.0506 50.3827 25.6884 50.3827 25.2448C50.3827 24.8013 50.2036 24.4419 49.9883 24.4419Z" fill="#6F6F6E"/>
<path id="Vector_32" fill-rule="evenodd" clip-rule="evenodd" d="M50.475 22.0724C49.2946 22.0724 48.338 23.493 48.338 25.2476C48.338 27.0023 49.2946 28.4229 50.475 28.4229C51.6553 28.4229 52.6147 27.0023 52.6147 25.2476C52.6147 23.493 51.6581 22.0724 50.475 22.0724ZM50.1673 27.7014C49.4149 27.7014 48.8079 26.6037 48.8079 25.2476C48.8079 23.8916 49.4177 22.7939 50.1673 22.7939C50.9169 22.7939 51.5239 23.8916 51.5239 25.2476C51.5239 26.6037 50.9169 27.7014 50.1673 27.7014Z" fill="#6F6F6E"/>
</g>
<path id="Vector_33" fill-rule="evenodd" clip-rule="evenodd" d="M46.0052 24.5907C45.9913 24.5907 45.9801 24.6047 45.9633 24.6075C46.3493 24.7844 46.6374 25.534 46.6374 26.4352C46.6374 27.3364 46.3493 28.0832 45.9633 28.2629C45.9773 28.2629 45.9885 28.2797 46.0052 28.2797C46.5199 28.2797 46.9339 27.4571 46.9339 26.438C46.9339 25.4189 46.5171 24.5963 46.0052 24.5963V24.5907Z" fill="#6F6F6E"/>
<g id="Group_5">
<path id="Vector_34" fill-rule="evenodd" clip-rule="evenodd" d="M45.8542 25.7727C45.678 25.7727 45.5325 26.0703 45.5325 26.4325C45.5325 26.7946 45.678 27.0922 45.8542 27.0922C46.0304 27.0922 46.1759 26.7946 46.1759 26.4325C46.1759 26.0703 46.0304 25.7727 45.8542 25.7727Z" fill="#6F6F6E"/>
<path id="Vector_35" fill-rule="evenodd" clip-rule="evenodd" d="M46.2821 23.6334C45.2416 23.6334 44.3969 24.8856 44.3969 26.4325C44.3969 27.9794 45.2416 29.2315 46.2821 29.2315C47.3227 29.2315 48.1674 27.9794 48.1674 26.4325C48.1674 24.8856 47.3227 23.6334 46.2821 23.6334ZM46.0108 28.5942C45.3507 28.5942 44.8137 27.6257 44.8137 26.4325C44.8137 25.2393 45.3507 24.2679 46.0108 24.2679C46.6709 24.2679 47.2108 25.2365 47.2108 26.4325C47.2108 27.6285 46.6737 28.5942 46.0108 28.5942Z" fill="#6F6F6E"/>
</g>
<path id="Vector_36" fill-rule="evenodd" clip-rule="evenodd" d="M42.3998 26.1489C42.3466 26.1489 42.2991 26.1882 42.2487 26.2107C42.6124 26.2163 42.9061 26.8845 42.9061 27.7127C42.9061 28.5409 42.6152 29.2091 42.2515 29.2147C42.3019 29.2343 42.3494 29.2765 42.4026 29.2765C42.8389 29.2765 43.1914 28.5774 43.1914 27.7155C43.1914 26.8536 42.8389 26.1517 42.4026 26.1517L42.3998 26.1489Z" fill="#6F6F6E"/>
<g id="Group_6">
<path id="Vector_37" fill-rule="evenodd" clip-rule="evenodd" d="M42.2711 27.1792C42.1285 27.1792 42.0138 27.4178 42.0138 27.7126C42.0138 28.0074 42.1285 28.2432 42.2711 28.2432C42.4138 28.2432 42.5341 28.0046 42.5341 27.7126C42.5341 27.4206 42.4166 27.1792 42.2711 27.1792Z" fill="#6F6F6E"/>
<path id="Vector_38" fill-rule="evenodd" clip-rule="evenodd" d="M42.6347 25.3459C41.7537 25.3459 41.0404 26.4044 41.0404 27.7127C41.0404 29.0209 41.7537 30.0822 42.6347 30.0822C43.5158 30.0822 44.2291 29.0209 44.2291 27.7127C44.2291 26.4044 43.5158 25.3459 42.6347 25.3459ZM42.4026 29.5431C41.8432 29.5431 41.39 28.7233 41.39 27.7155C41.39 26.7076 41.8432 25.885 42.4026 25.885C42.962 25.885 43.4179 26.7048 43.4179 27.7155C43.4179 28.7262 42.9648 29.5431 42.4026 29.5431Z" fill="#6F6F6E"/>
</g>
<path id="Vector_39" fill-rule="evenodd" clip-rule="evenodd" d="M39.2895 27.0051C39.2895 27.0051 39.2783 27.0135 39.2727 27.0135C39.53 27.1511 39.7258 27.6845 39.7258 28.3555C39.7258 29.0265 39.53 29.5655 39.2727 29.7003C39.2783 29.7003 39.2839 29.7087 39.2895 29.7087C39.6671 29.7087 39.9719 29.1051 39.9719 28.3555C39.9719 27.6059 39.6671 27.0051 39.2895 27.0051Z" fill="#6F6F6E"/>
<g id="Group_7">
<path id="Vector_40" fill-rule="evenodd" clip-rule="evenodd" d="M39.1804 27.8811C39.0517 27.8811 38.9454 28.0917 38.9426 28.3556C38.937 28.6223 39.0405 28.8356 39.1692 28.8385C39.2978 28.8413 39.4069 28.6279 39.4097 28.364C39.4153 28.1001 39.3118 27.8839 39.1804 27.8839V27.8811Z" fill="#6F6F6E"/>
<path id="Vector_41" fill-rule="evenodd" clip-rule="evenodd" d="M39.5048 26.2191C38.7076 26.2191 38.0615 27.1765 38.0615 28.3584C38.0615 29.5404 38.7076 30.5005 39.5048 30.5005C40.302 30.5005 40.9453 29.5432 40.9453 28.3584C40.9453 27.1737 40.2992 26.2191 39.5048 26.2191ZM39.295 30.012C38.7916 30.012 38.3804 29.2737 38.3804 28.3584C38.3804 27.4432 38.7916 26.7076 39.295 26.7076C39.7985 26.7076 40.2125 27.4488 40.2125 28.3584C40.2125 29.268 39.8013 30.012 39.295 30.012Z" fill="#6F6F6E"/>
</g>
<path id="Vector_42" fill-rule="evenodd" clip-rule="evenodd" d="M36.8112 27.5077C36.9567 27.6761 37.0602 28.0327 37.0602 28.4538C37.0602 28.8749 36.9567 29.2287 36.8112 29.3999C37.0518 29.3382 37.242 28.9507 37.242 28.4538C37.242 27.9569 37.0546 27.5666 36.8112 27.5077Z" fill="#6F6F6E"/>
<g id="Group_8">
<path id="Vector_43" fill-rule="evenodd" clip-rule="evenodd" d="M36.6686 28.0748C36.5679 28.0748 36.484 28.2433 36.484 28.4538C36.484 28.6644 36.5651 28.83 36.6686 28.83C36.7721 28.83 36.8532 28.6644 36.8532 28.4538C36.8532 28.2433 36.7693 28.0748 36.6686 28.0748Z" fill="#6F6F6E"/>
<path id="Vector_44" fill-rule="evenodd" clip-rule="evenodd" d="M36.9147 26.8423C36.3161 26.8423 35.8322 27.5638 35.8322 28.4538C35.8322 29.3437 36.3189 30.0653 36.9147 30.0653C37.5105 30.0653 38 29.3437 38 28.4538C38 27.5638 37.5133 26.8423 36.9147 26.8423ZM36.7581 29.6947C36.3777 29.6947 36.07 29.1388 36.07 28.451C36.07 27.7631 36.3777 27.2073 36.7581 27.2073C37.1385 27.2073 37.449 27.7631 37.449 28.451C37.449 29.1388 37.1385 29.6947 36.7581 29.6947Z" fill="#6F6F6E"/>
</g>
<path id="Vector_45" fill-rule="evenodd" clip-rule="evenodd" d="M43.5774 23.5829C43.5774 23.5829 49.3393 18.448 55.6132 20.3065C50.0274 17.544 44.6514 21.5053 43.5774 23.5829Z" fill="#6F6F6E"/>
<path id="Vector_46" d="M33.5387 19.2817H31.5751V20.1015H33.5387V19.2817Z" fill="#6F6F6E"/>
<path id="Vector_47" fill-rule="evenodd" clip-rule="evenodd" d="M66.5777 27.6087C66.6085 27.328 66.8043 26.5335 67.9903 25.6716C68.5609 25.2589 69.2434 24.9304 69.9175 24.689C70.1188 24.9669 70.4461 25.2083 70.944 25.3852C72.9355 26.0871 75.3102 24.7227 73.0362 24.0545C72.1188 23.785 71.0782 23.9197 70.1105 24.2341C69.9594 24.0404 69.8951 23.8327 69.9678 23.639C70.2475 22.9062 71.3635 22.8248 72.8935 22.4739C74.4207 22.1285 74.8459 21.9713 75.2067 21.3565C75.5676 20.7416 75.2683 19.6271 75.2683 19.6271C75.2683 19.6271 75.6235 21.087 73.962 21.4828C72.3034 21.8787 71.2349 21.9854 70.4377 22.4289C69.9175 22.7209 69.4475 23.5997 69.7412 24.3605C68.4406 24.8546 67.3274 25.6435 66.9554 26.1629C66.4267 26.9125 66.491 27.4375 66.5414 27.634L66.5777 27.6059V27.6087ZM70.4041 24.5374C71.3048 24.2735 72.1551 24.1864 72.681 24.2987C73.6823 24.5149 73.783 25.2926 72.5663 25.2982C71.8363 25.3038 70.9356 24.9641 70.4041 24.5374Z" fill="#6F6F6E"/>
<path id="Vector_48" fill-rule="evenodd" clip-rule="evenodd" d="M32.4954 27.4599C32.5457 27.2634 32.61 26.7384 32.0814 25.9888C31.7094 25.4666 30.5989 24.6777 29.2955 24.1864C29.5864 23.4228 29.1165 22.544 28.5962 22.2521C27.8019 21.8113 26.7306 21.7018 25.0747 21.3087C23.4132 20.9129 23.7685 19.4502 23.7685 19.4502C23.7685 19.4502 23.472 20.5648 23.8328 21.1796C24.1936 21.7944 24.6188 21.9517 26.146 22.297C27.676 22.6479 28.792 22.7293 29.0717 23.4621C29.1445 23.6558 29.0801 23.8636 28.9291 24.0573C27.9613 23.7428 26.918 23.6081 26.0033 23.8776C23.7265 24.5458 26.104 25.9102 28.0928 25.2083C28.5906 25.0315 28.9179 24.79 29.1221 24.5121C29.799 24.7535 30.4787 25.082 31.0493 25.4947C32.2324 26.3566 32.4282 27.1511 32.4618 27.4319L32.4954 27.4599ZM26.4704 25.1213C25.2537 25.1157 25.3544 24.338 26.3586 24.119C26.8844 24.0067 27.7319 24.0938 28.6326 24.3577C28.1011 24.7872 27.2005 25.1269 26.4704 25.1213Z" fill="#6F6F6E"/>
<path id="Vector_49" fill-rule="evenodd" clip-rule="evenodd" d="M52.5308 31.9519C58.4159 32.8503 60.8354 32.3225 69.6657 27.8306C75.9508 24.6328 80.9072 23.4481 83.3407 26.497C85.7741 29.5431 81.833 31.8761 78.9464 31.0564C76.6109 30.3938 75.9256 28.086 77.6094 27.3308C79.2933 26.5784 79.559 27.9513 79.559 27.9513C78.1129 27.8334 76.4263 29.5965 79.2122 30.5201C81.9981 31.4438 84.1686 27.9597 82.7673 26.3791C81.3659 24.7957 78.0626 24.2819 70.2671 28.684C63.2241 32.6622 57.8453 34.3664 52.5308 31.9519Z" fill="#6F6F6E"/>
<path id="Vector_50" fill-rule="evenodd" clip-rule="evenodd" d="M45.5325 31.9519C39.6447 32.8503 37.2308 32.3225 28.3976 27.8306C22.1126 24.6328 17.1534 23.4481 14.7227 26.497C12.2892 29.5431 16.2303 31.8761 19.1169 31.0564C21.4525 30.3938 22.1378 28.086 20.4539 27.3308C18.7729 26.5784 18.5044 27.9513 18.5044 27.9513C19.9504 27.8334 21.6399 29.5965 18.8512 30.5201C16.0625 31.4438 13.8948 27.9597 15.2961 26.3791C16.6974 24.7957 20.0008 24.2819 27.7962 28.684C34.8365 32.6622 40.2181 34.3664 45.5325 31.9519Z" fill="#6F6F6E"/>
<path id="Vector_51" fill-rule="evenodd" clip-rule="evenodd" d="M65.6239 30.7897C69.5594 28.1001 72.7789 26.8732 74.6725 28.7009C76.5661 30.5314 74.1271 32.4377 72.1243 32.1429C70.502 31.9042 69.8447 30.4163 70.9048 29.7649C71.9677 29.1136 72.2642 30.012 72.2642 30.012C71.2852 30.0597 70.3062 31.3877 72.2558 31.7639C74.2054 32.1373 75.355 29.6161 74.2781 28.6784C73.4278 27.9373 71.8418 27.7464 68.8238 29.487C68.021 29.9502 65.6239 30.7925 65.6239 30.7925V30.7897Z" fill="#6F6F6E"/>
<path id="Vector_52" fill-rule="evenodd" clip-rule="evenodd" d="M32.4198 30.7897C28.4843 28.1001 25.2649 26.8732 23.3713 28.7009C21.4776 30.5314 23.9167 32.4377 25.9194 32.1429C27.5417 31.9042 28.2018 30.4163 27.1389 29.7649C26.0788 29.1136 25.7795 30.012 25.7795 30.012C26.7585 30.0597 27.7375 31.3877 25.7879 31.7639C23.8384 32.1373 22.6888 29.6161 23.7657 28.6784C24.616 27.9373 26.2019 27.7464 29.22 29.487C30.0227 29.9502 32.4198 30.7925 32.4198 30.7925V30.7897Z" fill="#6F6F6E"/>
<g id="Group_9">
<path id="Vector_53" fill-rule="evenodd" clip-rule="evenodd" d="M40.1705 27.9879C40.5761 27.884 40.9845 27.7661 41.4012 27.6341C41.404 27.5022 41.4264 27.3843 41.4432 27.2635C41.004 27.4208 40.5649 27.5583 40.1258 27.6791C40.1509 27.7745 40.1565 27.8812 40.1705 27.9879Z" fill="#6F6F6E"/>
<path id="Vector_54" fill-rule="evenodd" clip-rule="evenodd" d="M57.1012 23.6531C57.1012 23.6531 54.5139 23.1758 51.219 23.712C51.3225 23.9422 51.4036 24.2061 51.4539 24.4925C54.7657 24.1051 57.311 24.6834 57.311 24.6834L57.1012 23.6531Z" fill="#6F6F6E"/>
<path id="Vector_55" fill-rule="evenodd" clip-rule="evenodd" d="M36.1175 28.0159C35.726 27.9513 35.3372 27.8614 34.9568 27.7183C35.2896 27.9681 35.6756 28.131 36.0924 28.2433C36.1008 28.1675 36.1036 28.0888 36.1175 28.0159Z" fill="#6F6F6E"/>
<path id="Vector_56" fill-rule="evenodd" clip-rule="evenodd" d="M44.8612 25.8513C44.3046 26.0984 43.7424 26.3454 43.183 26.5813C43.2389 26.702 43.292 26.8227 43.3284 26.9687C43.8291 26.7834 44.3242 26.5953 44.8164 26.4072C44.8164 26.2135 44.836 26.031 44.864 25.8513H44.8612Z" fill="#6F6F6E"/>
<path id="Vector_57" fill-rule="evenodd" clip-rule="evenodd" d="M48.931 24.2371C48.682 24.3129 48.4275 24.3915 48.173 24.4813C47.7534 24.6301 47.3227 24.8014 46.8919 24.9782C46.9786 25.1467 47.0485 25.3376 47.1017 25.5482C47.5884 25.3713 48.0611 25.2113 48.5058 25.0821C48.6121 25.0512 48.7156 25.0288 48.8191 24.9979C48.8359 24.7284 48.8694 24.4701 48.9282 24.2343L48.931 24.2371Z" fill="#6F6F6E"/>
<path id="Vector_58" fill-rule="evenodd" clip-rule="evenodd" d="M38.4139 28.0355C38.0755 28.0776 37.7426 28.1085 37.4098 28.1141C37.4238 28.2068 37.4378 28.2966 37.4406 28.3949C37.7454 28.3949 38.0559 28.3752 38.3804 28.3359C38.3804 28.2292 38.4028 28.1338 38.4139 28.0355Z" fill="#6F6F6E"/>
</g>
<g id="Group_10">
<path id="Vector_59" fill-rule="evenodd" clip-rule="evenodd" d="M36.2266 29.2091C35.905 29.1389 35.5833 29.0575 35.2672 28.948C35.6029 29.2091 36.0001 29.3972 36.4392 29.532C36.3553 29.4505 36.2854 29.341 36.2266 29.2091Z" fill="#6F6F6E"/>
<path id="Vector_60" fill-rule="evenodd" clip-rule="evenodd" d="M39.7957 29.706C40.4922 29.6274 41.2194 29.4898 41.9523 29.3242C41.8432 29.2231 41.7453 29.0968 41.6642 28.9368C41.1243 29.0715 40.5817 29.1838 40.0419 29.2681C39.9747 29.4421 39.8936 29.5881 39.7985 29.706H39.7957Z" fill="#6F6F6E"/>
<path id="Vector_61" fill-rule="evenodd" clip-rule="evenodd" d="M43.0879 29.049C43.8962 28.8356 44.7018 28.597 45.471 28.3556C45.3311 28.2264 45.2081 28.0496 45.1046 27.8362C44.5172 28.0552 43.9214 28.2657 43.3284 28.4566C43.2725 28.684 43.1886 28.8806 43.0879 29.049Z" fill="#6F6F6E"/>
<path id="Vector_62" fill-rule="evenodd" clip-rule="evenodd" d="M51.5015 25.7109C51.4623 26.0591 51.3868 26.3763 51.2777 26.6542C54.665 26.045 57.2159 26.469 57.2159 26.469L57.311 25.346C57.311 25.346 54.7964 25.054 51.5015 25.7081V25.7109Z" fill="#6F6F6E"/>
<path id="Vector_63" fill-rule="evenodd" clip-rule="evenodd" d="M38.6014 29.4055C38.1371 29.4224 37.6755 29.4055 37.2196 29.3634C37.1301 29.5094 37.021 29.5964 36.8979 29.6442C37.4965 29.7677 38.151 29.8126 38.8559 29.7845C38.758 29.6863 38.6713 29.5627 38.6014 29.4083V29.4055Z" fill="#6F6F6E"/>
<path id="Vector_64" fill-rule="evenodd" clip-rule="evenodd" d="M48.9701 26.3848C48.7604 26.455 48.5506 26.5251 48.338 26.6037C47.9464 26.7497 47.552 26.9013 47.1548 27.0529C47.1017 27.3702 47.0122 27.6566 46.8919 27.8924C47.5464 27.6762 48.1618 27.4713 48.7072 27.2944C48.9058 27.2298 49.1016 27.1737 49.3002 27.1175C49.1659 26.9154 49.054 26.6655 48.9729 26.382L48.9701 26.3848Z" fill="#6F6F6E"/>
</g>
<path id="Vector_65" fill-rule="evenodd" clip-rule="evenodd" d="M57.7949 21.4688C54.5419 20.6743 48.5338 21.0168 43.1858 24.4559C38.7328 27.3196 36.0113 26.3454 35.2113 25.1803L35.9581 23.9365C35.9581 23.9365 35.0043 21.1768 32.7051 23.0606L33.0939 24.1696C33.0939 24.1696 32.1904 28.684 34.7106 30.9524C35.3511 31.5252 36.7497 31.5448 36.7497 31.5448C33.147 29.9642 33.7652 25.2589 33.7652 25.2589L34.0225 24.3773L33.533 23.2375C33.533 23.2375 34.3582 23.0045 34.7442 24.0152L34.2295 25.2055C34.2295 25.2055 34.7442 27.3561 38.565 27.0978C38.6237 27.0922 38.6853 27.0753 38.744 27.0697C38.8978 26.8535 39.0852 26.7047 39.2922 26.7047C39.4321 26.7047 39.5607 26.7693 39.6782 26.8676C43.348 25.7586 48.145 20.9747 56.5894 22.6142C57.7725 24.0348 56.6649 30.7812 55.1461 31.8396C56.0467 32.0445 56.7768 30.8682 57.1264 30.3151C58.2508 28.5268 59.4983 24.0629 57.7921 21.466L57.7949 21.4688Z" fill="#6F6F6E"/>
</g>
</g>
<defs>
<clipPath id="clip0_135_3558">
<rect width="95" height="76.6667" fill="white" transform="translate(0.566681)"/>
</clipPath>
</defs>
</svg>
