<svg width="130" height="30" viewBox="0 0 130 30" fill="none" xmlns="http://www.w3.org/2000/svg">
<g id="Sports_logo_white_bg 1" clip-path="url(#clip0_170_4469)">
<g id="Layer 2">
<g id="Layer 1">
<path id="Vector" d="M11.5659 20.6227L13.3819 18.1405C14.7447 19.2998 16.7881 20.0454 18.6338 20.0454C20.0526 20.0454 21.0463 19.5745 21.0463 18.6098C21.0463 17.5895 20.252 17.2036 18.179 16.8455C15.3132 16.35 12.2465 15.6862 12.2465 12.2393C12.2465 9.28795 14.7385 7.57764 18.1229 7.57764C21.2161 7.57764 23.0897 8.34944 24.7656 9.64761L22.9776 12.156C21.4435 11.1357 19.9389 10.5568 18.5201 10.5568C17.2133 10.5568 16.4766 11.0523 16.4766 11.8534C16.4766 12.7348 17.299 13.0883 19.1726 13.4248C22.1537 13.9219 25.3044 14.5841 25.3044 17.9213C25.3044 21.4716 22.1256 22.884 18.6338 22.884C15.3132 22.884 13.0985 21.893 11.5659 20.6227Z" fill="#0D0802"/>
<path id="Vector_2" d="M36.1087 7.57764C39.5445 7.57764 41.9275 10.1431 41.9275 15.2169C41.9275 20.2908 39.5149 22.8007 36.0511 22.8007C34.0077 22.8007 32.5888 22.0845 31.4534 20.8449V28.0999H26.8651V11.8534C26.8651 10.0875 26.7514 9.01165 26.4383 8.26763L30.913 7.57764C31.1403 8.10246 31.3397 9.45312 31.3397 10.282C32.3334 8.95299 33.8659 7.57764 36.1087 7.57764ZM37.3547 15.2463C37.3547 12.7904 36.4732 11.2452 34.4298 11.2452C33.2663 11.2452 32.2166 11.9368 31.4503 12.6808V18.1128C32.4424 19.0235 33.2663 19.465 34.4874 19.465C36.3922 19.465 37.3578 17.9213 37.3578 15.2463H37.3547Z" fill="#0D0802"/>
<path id="Vector_3" d="M43.5332 15.2463C43.5332 9.4809 47.592 7.57764 51.2833 7.57764C54.9449 7.57764 59.0037 9.4809 59.0037 15.2463C59.0037 20.9576 54.9449 22.884 51.2833 22.884C47.6216 22.884 43.5332 20.9545 43.5332 15.2463ZM54.4356 15.2725C54.4356 12.8182 53.5556 10.8316 51.2848 10.8316C49.1044 10.8316 48.106 12.6252 48.106 15.2725C48.106 17.7269 48.9564 19.7675 51.2848 19.7675C53.4419 19.7675 54.4341 17.9476 54.4341 15.2725H54.4356Z" fill="#0D0802"/>
<path id="Vector_4" d="M65.7585 10.4457C66.5839 9.21077 68.0869 7.57764 70.6708 7.57764C70.8622 7.58586 71.053 7.60441 71.2424 7.63321L70.8982 11.5216C70.5485 11.4701 70.1957 11.4428 69.8422 11.4397C68.0262 11.4397 66.6634 12.3767 65.8114 13.4464V22.5753H61.2418V11.8534C61.2418 10.0875 61.1281 9.01165 60.815 8.26763L65.2725 7.57764C65.4999 8.10246 65.6977 9.61983 65.6977 10.4457H65.7585Z" fill="#0D0802"/>
<path id="Vector_5" d="M80.2213 19.2164C80.9201 19.2043 81.6152 19.1121 82.2927 18.9416L83.1727 22.14C82.3799 22.4148 81.1589 22.7744 78.9161 22.7744C74.4306 22.7744 74.3449 20.3757 74.3449 17.6172V11.4227H71.9604L72.2361 7.59613H74.3449V3.66148L78.8865 2.83411V7.60076H82.7802V11.4227H78.8865V17.1989C78.8865 18.4986 79.1996 19.2164 80.2213 19.2164Z" fill="#0D0802"/>
<path id="Vector_6" d="M83.6586 20.6227L85.4762 18.1405C86.8374 19.2998 88.8809 20.0454 90.7265 20.0454C92.1454 20.0454 93.139 19.5745 93.139 18.6098C93.139 17.5895 92.3447 17.2036 90.2733 16.8455C87.4044 16.35 84.3392 15.6862 84.3392 12.2393C84.3392 9.28795 86.8312 7.57764 90.2156 7.57764C93.3104 7.57764 95.184 8.34944 96.8583 9.64761L95.0703 12.156C93.5377 11.1357 92.0332 10.5568 90.6128 10.5568C89.3076 10.5568 88.5694 11.0523 88.5694 11.8534C88.5694 12.7348 89.3933 13.0883 91.2669 13.4248C94.248 13.9219 97.3987 14.5841 97.3987 17.9213C97.3987 21.4716 94.2184 22.884 90.7265 22.884C87.4075 22.884 85.1912 21.893 83.6586 20.6227Z" fill="#0D0802"/>
<path id="Vector_7" d="M108.239 10.4457C109.061 9.21077 110.566 7.57764 113.148 7.57764C113.34 7.58592 113.532 7.60447 113.723 7.63321L113.382 11.5216C113.032 11.4702 112.679 11.4428 112.326 11.4397C110.51 11.4397 109.145 12.3767 108.295 13.4464V22.5753H103.725V11.8534C103.725 10.0875 103.612 9.01165 103.298 8.26763L107.756 7.57764C107.983 8.10246 108.181 9.61983 108.181 10.4457H108.239Z" fill="#0D0802"/>
<path id="Vector_8" d="M124.505 20.1828C123.596 21.3127 121.893 22.8841 119.253 22.8841C116.669 22.8841 114.824 21.6492 114.824 18.6098V7.60083H119.395V17.3147C119.395 18.6376 119.906 19.3539 121.183 19.3539C122.403 19.3539 123.455 18.721 124.477 17.8658V7.60083H129.047V18.3073C129.047 20.0716 129.16 21.4223 129.5 22.1663L124.93 22.8825C124.703 22.3052 124.561 20.9268 124.561 20.1812L124.505 20.1828Z" fill="#0D0802"/>
<path id="Vector_9" d="M3.02312 5.00123C2.3511 4.99311 1.70938 4.72282 1.23708 4.24894C0.76478 3.77507 0.49995 3.1358 0.5 2.46972C0.50163 2.14324 0.568232 1.82028 0.695991 1.51935C0.82375 1.21842 1.01016 0.945428 1.24453 0.716007C1.47891 0.486586 1.75665 0.305245 2.06185 0.182372C2.36705 0.0594986 2.69371 -0.00249317 3.02312 -5.272e-05C3.35247 -0.00228942 3.67904 0.0598417 3.98415 0.182788C4.28926 0.305733 4.56692 0.487082 4.80125 0.716463C5.03559 0.945844 5.222 1.21876 5.34983 1.5196C5.47767 1.82043 5.54441 2.1433 5.54624 2.46972C5.54589 3.13568 5.28093 3.77472 4.80871 4.2485C4.33649 4.72229 3.69501 4.99271 3.02312 5.00123Z" fill="#E50046"/>
<path id="Vector_10" d="M3.02312 11.2499C2.35151 11.2421 1.71003 10.9724 1.23773 10.4991C0.765426 10.0258 0.500365 9.3871 0.5 8.72143C0.50163 8.39495 0.568232 8.07199 0.695991 7.77106C0.82375 7.47013 1.01016 7.19714 1.24453 6.96772C1.47891 6.73829 1.75665 6.55695 2.06185 6.43408C2.36705 6.31121 2.69371 6.24922 3.02312 6.25166C3.35247 6.24942 3.67904 6.31155 3.98415 6.4345C4.28926 6.55744 4.56692 6.73879 4.80125 6.96817C5.03559 7.19755 5.222 7.47047 5.34983 7.7713C5.47767 8.07214 5.54441 8.39501 5.54624 8.72143C5.54547 9.38698 5.28028 10.0255 4.80807 10.4987C4.33585 10.9719 3.6946 11.2417 3.02312 11.2499Z" fill="#FFCC00"/>
<path id="Vector_11" d="M3.02312 17.4999C2.35178 17.4922 1.71053 17.2227 1.23827 16.7497C0.766016 16.2767 0.500774 15.6384 0.5 14.973C0.501424 14.6465 0.567886 14.3234 0.695573 14.0224C0.82326 13.7214 1.00966 13.4483 1.24408 13.2189C1.4785 12.9894 1.75632 12.8081 2.06161 12.6853C2.3669 12.5625 2.69365 12.5006 3.02312 12.5033C3.35253 12.5008 3.67919 12.5628 3.98439 12.6857C4.28959 12.8086 4.56733 12.9899 4.80171 13.2193C5.03608 13.4487 5.22249 13.7217 5.35025 14.0227C5.47801 14.3236 5.54461 14.6465 5.54624 14.973C5.54506 15.6383 5.27969 16.2764 4.80752 16.7493C4.33535 17.2221 3.69433 17.4918 3.02312 17.4999Z" fill="#13A538"/>
<path id="Vector_12" d="M3.02312 23.75C2.35151 23.7423 1.71003 23.4725 1.23773 22.9992C0.765426 22.5259 0.500365 21.8872 0.5 21.2215C0.50163 20.8951 0.568232 20.5721 0.695991 20.2712C0.82375 19.9703 1.01016 19.6973 1.24453 19.4678C1.47891 19.2384 1.75665 19.0571 2.06185 18.9342C2.36705 18.8113 2.69371 18.7493 3.02312 18.7518C3.35247 18.7495 3.67904 18.8117 3.98415 18.9346C4.28926 19.0576 4.56692 19.2389 4.80125 19.4683C5.03559 19.6977 5.222 19.9706 5.34983 20.2714C5.47767 20.5723 5.54441 20.8951 5.54624 21.2215C5.54547 21.8871 5.28028 22.5256 4.80807 22.9988C4.33585 23.472 3.6946 23.7419 3.02312 23.75Z" fill="#009FE3"/>
<path id="Vector_13" d="M100.162 23.0801C99.4901 23.0724 98.8486 22.8026 98.3763 22.3293C97.904 21.856 97.639 21.2173 97.6386 20.5517C97.6386 19.8885 97.9044 19.2524 98.3776 18.7834C98.8508 18.3145 99.4925 18.051 100.162 18.051C100.831 18.051 101.473 18.3145 101.946 18.7834C102.419 19.2524 102.685 19.8885 102.685 20.5517C102.684 21.2173 102.419 21.856 101.947 22.3293C101.475 22.8026 100.833 23.0724 100.162 23.0801Z" fill="#0D0802"/>
<path id="Vector_14" d="M3.02312 30.0001C2.35232 29.9924 1.71154 29.7233 1.23937 29.251C0.767196 28.7787 0.501592 28.1412 0.5 27.4763C0.50163 27.1498 0.568232 26.8269 0.695991 26.5259C0.82375 26.225 1.01016 25.952 1.24453 25.7226C1.47891 25.4932 1.75665 25.3118 2.06185 25.189C2.36705 25.0661 2.69371 25.0041 3.02312 25.0065C3.35247 25.0043 3.67904 25.0664 3.98415 25.1894C4.28926 25.3123 4.56692 25.4937 4.80125 25.7231C5.03559 25.9524 5.222 26.2253 5.34983 26.5262C5.47767 26.827 5.54441 27.1499 5.54624 27.4763C5.54425 28.1411 5.27851 28.7784 4.80643 29.2506C4.33434 29.7228 3.6938 29.992 3.02312 30.0001Z" fill="#A863A5"/>
</g>
</g>
</g>
<defs>
<clipPath id="clip0_170_4469">
<rect width="129" height="30" fill="white" transform="translate(0.5)"/>
</clipPath>
</defs>
</svg>
