<svg width="134" height="30" viewBox="0 0 134 30" fill="none" xmlns="http://www.w3.org/2000/svg">
<g id="a" clip-path="url(#clip0_170_4447)">
<path id="Vector" d="M0.333328 29.5324H4.317L6.23885 8.10422H6.33131L7.72573 29.5324H11.5344L16.7825 8.10422H16.865L14.9406 29.5324H19.2515L21.7907 1.2376H15.278L10.5546 21.4896H10.4721L9.38757 1.2376H2.87487L0.333328 29.5324ZM21.7383 29.5324H34.1865L34.5489 25.4903H26.6666L27.4464 16.7999H33.7116L34.0715 12.7651H27.8086L28.4809 5.28726H36.3632L36.7257 1.24524H24.2801L21.7386 29.5328L21.7383 29.5324ZM36.1982 29.5324H40.2619L42.1163 8.86888H42.2013L45.8174 29.5324H50.5033L53.0499 1.2376H48.9838L47.4642 18.173H47.3817L44.4629 1.2376H38.7374L36.1982 29.5324ZM60.7971 29.5324H65.3606L67.5374 5.27962H72.3083L72.6707 1.2376H58.5631L58.2007 5.27962H62.9716L60.7974 29.5324H60.7971ZM76.974 29.9366C79.2131 29.9366 80.9833 29.3165 82.2847 28.0762C83.586 26.8358 84.3357 25.0843 84.534 22.8215L85.8709 7.94848C86.0775 5.68384 85.6385 3.93228 84.5539 2.69379C83.4693 1.4553 81.8132 0.835026 79.5855 0.833374C77.3464 0.833374 75.5762 1.45344 74.2749 2.69379C72.9736 3.93393 72.2239 5.6857 72.0256 7.94848L70.6836 22.8215C70.4804 25.0942 70.9177 26.8457 71.9957 28.0762C73.0737 29.3066 74.733 29.9269 76.974 29.9366ZM77.3365 25.8946C75.7586 25.8946 75.0539 24.9653 75.2223 23.1065L76.6092 7.66364C76.7759 5.80653 77.6472 4.87725 79.2233 4.8756C80.7995 4.87395 81.5042 5.80343 81.3375 7.66364L79.9505 23.1065C79.7838 24.9636 78.9126 25.8929 77.3365 25.8946ZM86.2183 29.5324H93.1884C95.4543 29.5324 97.2086 28.9398 98.4516 27.7548C99.6945 26.5698 100.418 24.8312 100.621 22.5389L101.905 8.23084C102.11 5.94038 101.699 4.20493 100.671 3.02469C99.643 1.84445 97.996 1.25206 95.7302 1.2471H88.76L86.2185 29.5322L86.2183 29.5324ZM91.144 25.4903L92.9609 5.27983H95.2825C96.0305 5.27983 96.5853 5.49567 96.9469 5.92757C97.3093 6.35865 97.4467 7.05741 97.3591 8.02904L96.0496 22.7486C95.9645 23.7227 95.6996 24.419 95.2598 24.85C95.0246 25.0708 94.7451 25.2425 94.439 25.3538C94.133 25.4651 93.8066 25.5143 93.4805 25.4978L91.1438 25.4906L91.144 25.4903ZM101.191 29.5324H105.422L106.748 23.9951H111.934V23.9148L112.259 29.5324H116.823L114.641 1.2376H108.46L101.19 29.5324H101.191ZM107.633 20.1551L110.882 6.16841H110.965L111.742 20.1551H107.633ZM121.041 29.5324H125.602L126.684 17.4864L133.667 1.2376H129.228L125.185 11.6253H125.1L122.92 1.2376H118.067L122.126 17.4864L121.041 29.5324Z" fill="#BD160B"/>
</g>
<defs>
<clipPath id="clip0_170_4447">
<rect width="133.333" height="29.1032" fill="white" transform="translate(0.333328 0.833374)"/>
</clipPath>
</defs>
</svg>
