<svg width="135" height="30" viewBox="0 0 135 30" fill="none" xmlns="http://www.w3.org/2000/svg">
<g id="a" clip-path="url(#clip0_170_4487)">
<path id="Vector" d="M0.833332 29.5324H4.817L6.73885 8.10422H6.83132L8.22573 29.5324H12.0344L17.2825 8.10422H17.365L15.4406 29.5324H19.7515L22.2907 1.2376H15.778L11.0546 21.4896H10.9721L9.88757 1.2376H3.37487L0.833332 29.5324ZM22.2383 29.5324H34.6865L35.0489 25.4903H27.1666L27.9464 16.7999H34.2116L34.5715 12.7651H28.3087L28.9809 5.28726H36.8632L37.2257 1.24524H24.7801L22.2386 29.5328L22.2383 29.5324ZM36.6982 29.5324H40.7619L42.6163 8.86888H42.7013L46.3175 29.5324H51.0033L53.5499 1.2376H49.4838L47.9642 18.173H47.8817L44.9629 1.2376H39.2374L36.6982 29.5324ZM61.2971 29.5324H65.8606L68.0374 5.27962H72.8083L73.1707 1.2376H59.0631L58.7007 5.27962H63.4716L61.2974 29.5324H61.2971ZM77.474 29.9366C79.7131 29.9366 81.4833 29.3165 82.7847 28.0762C84.086 26.8358 84.8357 25.0843 85.034 22.8215L86.3709 7.94848C86.5775 5.68384 86.1385 3.93228 85.0539 2.69379C83.9693 1.4553 82.3132 0.835026 80.0855 0.833374C77.8464 0.833374 76.0762 1.45344 74.7749 2.69379C73.4736 3.93393 72.7239 5.6857 72.5256 7.94848L71.1836 22.8215C70.9804 25.0942 71.4177 26.8457 72.4957 28.0762C73.5737 29.3066 75.233 29.9269 77.474 29.9366ZM77.8365 25.8946C76.2586 25.8946 75.5539 24.9653 75.7223 23.1065L77.1092 7.66364C77.2759 5.80653 78.1472 4.87725 79.7233 4.8756C81.2995 4.87395 82.0042 5.80343 81.8375 7.66364L80.4505 23.1065C80.2838 24.9636 79.4126 25.8929 77.8365 25.8946ZM86.7183 29.5324H93.6884C95.9543 29.5324 97.7086 28.9398 98.9516 27.7548C100.195 26.5698 100.918 24.8312 101.121 22.5389L102.405 8.23084C102.61 5.94038 102.199 4.20493 101.171 3.02469C100.143 1.84445 98.496 1.25206 96.2302 1.2471H89.26L86.7185 29.5322L86.7183 29.5324ZM91.644 25.4903L93.4609 5.27983H95.7825C96.5305 5.27983 97.0853 5.49567 97.4469 5.92757C97.8093 6.35865 97.9467 7.05741 97.8591 8.02904L96.5496 22.7486C96.4645 23.7227 96.1996 24.419 95.7598 24.85C95.5246 25.0708 95.2451 25.2425 94.9391 25.3538C94.633 25.4651 94.3066 25.5143 93.9805 25.4978L91.6438 25.4906L91.644 25.4903ZM101.691 29.5324H105.922L107.248 23.9951H112.434V23.9148L112.759 29.5324H117.323L115.141 1.2376H108.96L101.69 29.5324H101.691ZM108.133 20.1551L111.382 6.16841H111.465L112.242 20.1551H108.133ZM121.541 29.5324H126.102L127.184 17.4864L134.167 1.2376H129.728L125.685 11.6253H125.6L123.42 1.2376H118.567L122.626 17.4864L121.541 29.5324Z" fill="#BD160B"/>
</g>
<defs>
<clipPath id="clip0_170_4487">
<rect width="133.333" height="29.1032" fill="white" transform="translate(0.833332 0.833374)"/>
</clipPath>
</defs>
</svg>
