<svg width="130" height="30" viewBox="0 0 130 30" fill="none" xmlns="http://www.w3.org/2000/svg">
<g id="Sports_logo_white_bg 1" clip-path="url(#clip0_135_3295)">
<g id="Layer 2">
<g id="Layer 1">
<path id="Vector" d="M11.366 20.6227L13.182 18.1405C14.5448 19.2998 16.5882 20.0454 18.4338 20.0454C19.8527 20.0454 20.8464 19.5745 20.8464 18.6098C20.8464 17.5895 20.052 17.2036 17.979 16.8455C15.1133 16.35 12.0466 15.6862 12.0466 12.2393C12.0466 9.28795 14.5386 7.57764 17.923 7.57764C21.0161 7.57764 22.8898 8.34944 24.5656 9.64761L22.7776 12.156C21.2435 11.1357 19.739 10.5568 18.3201 10.5568C17.0134 10.5568 16.2767 11.0523 16.2767 11.8534C16.2767 12.7348 17.0991 13.0883 18.9727 13.4248C21.9537 13.9219 25.1045 14.5841 25.1045 17.9213C25.1045 21.4716 21.9257 22.884 18.4338 22.884C15.1133 22.884 12.8985 21.893 11.366 20.6227Z" fill="#0D0802"/>
<path id="Vector_2" d="M35.9087 7.57764C39.3446 7.57764 41.7275 10.1431 41.7275 15.2169C41.7275 20.2908 39.315 22.8007 35.8511 22.8007C33.8077 22.8007 32.3888 22.0845 31.2534 20.8449V28.0999H26.6651V11.8534C26.6651 10.0875 26.5514 9.01165 26.2383 8.26763L30.713 7.57764C30.9404 8.10246 31.1397 9.45312 31.1397 10.282C32.1334 8.95299 33.666 7.57764 35.9087 7.57764ZM37.1547 15.2463C37.1547 12.7904 36.2732 11.2452 34.2298 11.2452C33.0663 11.2452 32.0166 11.9368 31.2503 12.6808V18.1128C32.2424 19.0235 33.0663 19.465 34.2874 19.465C36.1922 19.465 37.1578 17.9213 37.1578 15.2463H37.1547Z" fill="#0D0802"/>
<path id="Vector_3" d="M43.3333 15.2463C43.3333 9.4809 47.3921 7.57764 51.0833 7.57764C54.7449 7.57764 58.8037 9.4809 58.8037 15.2463C58.8037 20.9576 54.7449 22.884 51.0833 22.884C47.4216 22.884 43.3333 20.9545 43.3333 15.2463ZM54.2356 15.2725C54.2356 12.8182 53.3557 10.8316 51.0848 10.8316C48.9044 10.8316 47.906 12.6252 47.906 15.2725C47.906 17.7269 48.7564 19.7675 51.0848 19.7675C53.242 19.7675 54.2341 17.9476 54.2341 15.2725H54.2356Z" fill="#0D0802"/>
<path id="Vector_4" d="M65.5586 10.4457C66.384 9.21077 67.887 7.57764 70.4709 7.57764C70.6623 7.58586 70.8531 7.60441 71.0425 7.63321L70.6982 11.5216C70.3486 11.4701 69.9958 11.4428 69.6423 11.4397C67.8263 11.4397 66.4635 12.3767 65.6115 13.4464V22.5753H61.0419V11.8534C61.0419 10.0875 60.9282 9.01165 60.6151 8.26763L65.0726 7.57764C65.3 8.10246 65.4978 9.61983 65.4978 10.4457H65.5586Z" fill="#0D0802"/>
<path id="Vector_5" d="M80.0213 19.2164C80.7202 19.2043 81.4153 19.1121 82.0928 18.9416L82.9727 22.14C82.18 22.4148 80.9589 22.7744 78.7162 22.7744C74.2306 22.7744 74.1449 20.3757 74.1449 17.6172V11.4227H71.7604L72.0361 7.59613H74.1449V3.66148L78.6866 2.83411V7.60076H82.5803V11.4227H78.6866V17.1989C78.6866 18.4986 78.9996 19.2164 80.0213 19.2164Z" fill="#0D0802"/>
<path id="Vector_6" d="M83.4587 20.6227L85.2763 18.1405C86.6375 19.2998 88.6809 20.0454 90.5265 20.0454C91.9454 20.0454 92.9391 19.5745 92.9391 18.6098C92.9391 17.5895 92.1448 17.2036 90.0733 16.8455C87.2044 16.35 84.1393 15.6862 84.1393 12.2393C84.1393 9.28795 86.6313 7.57764 90.0157 7.57764C93.1104 7.57764 94.984 8.34944 96.6583 9.64761L94.8704 12.156C93.3378 11.1357 91.8333 10.5568 90.4128 10.5568C89.1077 10.5568 88.3694 11.0523 88.3694 11.8534C88.3694 12.7348 89.1933 13.0883 91.067 13.4248C94.048 13.9219 97.1988 14.5841 97.1988 17.9213C97.1988 21.4716 94.0184 22.884 90.5265 22.884C87.2075 22.884 84.9912 21.893 83.4587 20.6227Z" fill="#0D0802"/>
<path id="Vector_7" d="M108.039 10.4457C108.861 9.21077 110.366 7.57764 112.948 7.57764C113.14 7.58592 113.332 7.60447 113.523 7.63321L113.182 11.5216C112.832 11.4702 112.479 11.4428 112.126 11.4397C110.31 11.4397 108.945 12.3767 108.095 13.4464V22.5753H103.525V11.8534C103.525 10.0875 103.412 9.01165 103.099 8.26763L107.556 7.57764C107.783 8.10246 107.981 9.61983 107.981 10.4457H108.039Z" fill="#0D0802"/>
<path id="Vector_8" d="M124.305 20.1828C123.396 21.3127 121.693 22.8841 119.053 22.8841C116.47 22.8841 114.624 21.6492 114.624 18.6098V7.60083H119.195V17.3147C119.195 18.6376 119.706 19.3539 120.983 19.3539C122.203 19.3539 123.255 18.721 124.277 17.8658V7.60083H128.847V18.3073C128.847 20.0716 128.961 21.4223 129.3 22.1663L124.73 22.8825C124.503 22.3052 124.361 20.9268 124.361 20.1812L124.305 20.1828Z" fill="#0D0802"/>
<path id="Vector_9" d="M2.82317 5.00123C2.15115 4.99311 1.50943 4.72282 1.03713 4.24894C0.564829 3.77507 0.299999 3.1358 0.300049 2.46972C0.301679 2.14324 0.36828 1.82028 0.49604 1.51935C0.623799 1.21842 0.810205 0.945428 1.04458 0.716007C1.27896 0.486586 1.5567 0.305245 1.8619 0.182372C2.1671 0.0594986 2.49376 -0.00249317 2.82317 -5.272e-05C3.15252 -0.00228942 3.47909 0.0598417 3.7842 0.182788C4.08931 0.305733 4.36697 0.487082 4.6013 0.716463C4.83564 0.945844 5.02205 1.21876 5.14988 1.5196C5.27771 1.82043 5.34446 2.1433 5.34629 2.46972C5.34594 3.13568 5.08098 3.77472 4.60876 4.2485C4.13654 4.72229 3.49506 4.99271 2.82317 5.00123Z" fill="#E50046"/>
<path id="Vector_10" d="M2.82317 11.2499C2.15156 11.2421 1.51008 10.9724 1.03778 10.4991C0.565475 10.0258 0.300413 9.3871 0.300049 8.72143C0.301679 8.39495 0.36828 8.07199 0.49604 7.77106C0.623799 7.47013 0.810205 7.19714 1.04458 6.96772C1.27896 6.73829 1.5567 6.55695 1.8619 6.43408C2.1671 6.31121 2.49376 6.24922 2.82317 6.25166C3.15252 6.24942 3.47909 6.31155 3.7842 6.4345C4.08931 6.55744 4.36697 6.73879 4.6013 6.96817C4.83564 7.19755 5.02205 7.47047 5.14988 7.7713C5.27771 8.07214 5.34446 8.39501 5.34629 8.72143C5.34552 9.38698 5.08033 10.0255 4.60811 10.4987C4.1359 10.9719 3.49465 11.2417 2.82317 11.2499Z" fill="#FFCC00"/>
<path id="Vector_11" d="M2.82317 17.4999C2.15183 17.4922 1.51058 17.2227 1.03832 16.7497C0.566065 16.2767 0.300823 15.6384 0.300049 14.973C0.301473 14.6465 0.367935 14.3234 0.495622 14.0224C0.623309 13.7214 0.809708 13.4483 1.04413 13.2189C1.27854 12.9894 1.55637 12.8081 1.86166 12.6853C2.16695 12.5625 2.4937 12.5006 2.82317 12.5033C3.15258 12.5008 3.47924 12.5628 3.78444 12.6857C4.08964 12.8086 4.36738 12.9899 4.60176 13.2193C4.83613 13.4487 5.02254 13.7217 5.1503 14.0227C5.27806 14.3236 5.34466 14.6465 5.34629 14.973C5.34511 15.6383 5.07974 16.2764 4.60757 16.7493C4.1354 17.2221 3.49438 17.4918 2.82317 17.4999Z" fill="#13A538"/>
<path id="Vector_12" d="M2.82317 23.75C2.15156 23.7423 1.51008 23.4725 1.03778 22.9992C0.565475 22.5259 0.300413 21.8872 0.300049 21.2215C0.301679 20.8951 0.36828 20.5721 0.49604 20.2712C0.623799 19.9703 0.810205 19.6973 1.04458 19.4678C1.27896 19.2384 1.5567 19.0571 1.8619 18.9342C2.1671 18.8113 2.49376 18.7493 2.82317 18.7518C3.15252 18.7495 3.47909 18.8117 3.7842 18.9346C4.08931 19.0576 4.36697 19.2389 4.6013 19.4683C4.83564 19.6977 5.02205 19.9706 5.14988 20.2714C5.27771 20.5723 5.34446 20.8951 5.34629 21.2215C5.34552 21.8871 5.08033 22.5256 4.60811 22.9988C4.1359 23.472 3.49465 23.7419 2.82317 23.75Z" fill="#009FE3"/>
<path id="Vector_13" d="M99.9618 23.0801C99.2902 23.0724 98.6487 22.8026 98.1764 22.3293C97.7041 21.856 97.439 21.2173 97.4387 20.5517C97.4387 19.8885 97.7045 19.2524 98.1777 18.7834C98.6508 18.3145 99.2926 18.051 99.9618 18.051C100.631 18.051 101.273 18.3145 101.746 18.7834C102.219 19.2524 102.485 19.8885 102.485 20.5517C102.485 21.2173 102.219 21.856 101.747 22.3293C101.275 22.8026 100.633 23.0724 99.9618 23.0801Z" fill="#0D0802"/>
<path id="Vector_14" d="M2.82317 30.0001C2.15237 29.9924 1.51159 29.7233 1.03942 29.251C0.567245 28.7787 0.301641 28.1412 0.300049 27.4763C0.301679 27.1498 0.36828 26.8269 0.49604 26.5259C0.623799 26.225 0.810205 25.952 1.04458 25.7226C1.27896 25.4932 1.5567 25.3118 1.8619 25.189C2.1671 25.0661 2.49376 25.0041 2.82317 25.0065C3.15252 25.0043 3.47909 25.0664 3.7842 25.1894C4.08931 25.3123 4.36697 25.4937 4.6013 25.7231C4.83564 25.9524 5.02205 26.2253 5.14988 26.5262C5.27771 26.827 5.34446 27.1499 5.34629 27.4763C5.3443 28.1411 5.07856 28.7784 4.60648 29.2506C4.13439 29.7228 3.49385 29.992 2.82317 30.0001Z" fill="#A863A5"/>
</g>
</g>
</g>
<defs>
<clipPath id="clip0_135_3295">
<rect width="129" height="30" fill="white" transform="translate(0.300049)"/>
</clipPath>
</defs>
</svg>
