<svg width="132" height="98" viewBox="0 0 132 98" fill="none" xmlns="http://www.w3.org/2000/svg">
<g clip-path="url(#clip0_71_667)">
<path d="M6.53554 1.7146V25.0566H1.74281V1.7146H6.53554Z" fill="black"/>
<path d="M36.1275 7.96159V18.7859C36.1275 23.4172 33.7998 25.4038 29.4368 25.4038C25.0738 25.4038 23.1698 23.3693 23.1698 18.8338V7.84192C23.1698 3.33628 25.8199 1.36768 29.6576 1.36768C33.4954 1.36768 36.1275 3.30038 36.1275 7.96159ZM28.0222 7.45897V19.3843C28.0222 20.8263 28.5534 21.5802 29.6218 21.5802C30.6902 21.5802 31.2452 20.8981 31.2452 19.3663V7.42307C31.2452 5.96307 30.8155 5.22111 29.6039 5.22111C28.5833 5.22111 28.0163 5.90922 28.0163 7.45897H28.0222Z" fill="black"/>
<path d="M38.2643 25.0566V1.7146H43.5762C44.3701 4.56279 46.8709 15.1358 47.0678 16.159H47.1812C46.9127 13.0535 46.7455 8.80516 46.7455 5.55008V1.7146H51.204V25.0566H45.8443C45.325 22.8367 42.5974 10.7618 42.4363 10.0138H42.3049C42.49 12.7603 42.6392 17.4036 42.6392 21.0715V25.0566H38.2643Z" fill="black"/>
<path d="M132 8.35651V7.5188C132 3.43799 129.935 1.7207 125.751 1.7207H119.526V25.0567H124.319V14.9085H124.886C126.712 14.9085 127.034 15.3573 127.034 17.9841C127.034 20.9639 127.046 25.0567 127.046 25.0567H131.791V18.1696C131.797 14.9145 131.069 13.8435 129.517 13.1434C130.585 12.6707 132.006 11.6834 132.006 8.35651H132ZM124.927 11.3722H124.33V5.25102H125.082C126.849 5.25102 127.183 6.02889 127.183 7.59659V8.7215C127.183 10.8935 126.527 11.3663 124.927 11.3663V11.3722Z" fill="black"/>
<path d="M86.2453 10.684C84.1802 9.17615 83.9056 8.48206 83.9056 7.07591C83.9056 5.75354 84.1921 5.04149 85.0754 5.04149C86.0244 5.04149 86.2751 5.74157 86.2751 7.15968V8.87697H90.8052V7.21353C90.8052 4.54485 90.0651 1.33765 85.0456 1.33765C80.3185 1.33765 79.1367 4.40723 79.1367 7.74607C79.1367 11.0849 80.5811 12.503 83.3923 14.7289C85.9409 16.7215 86.3825 17.3617 86.3825 19.5637C86.3825 20.6646 86.1259 21.7237 85.0157 21.7237C83.9056 21.7237 83.5117 21.0117 83.5117 19.4739V17.5352H78.8085V19.2585C78.8085 22.717 80.1693 25.4037 84.9262 25.4037C89.6831 25.4037 91.217 22.3939 91.217 18.7379C91.217 14.8965 89.898 13.3826 86.2333 10.684H86.2453Z" fill="black"/>
<path d="M113.891 1.7146H106.735L103.208 25.0566H108.102L108.717 19.5038H111.826L112.513 25.0566H117.502L113.891 1.7146ZM109.135 15.5427C109.463 12.6586 110.06 7.405 110.143 5.77746H110.334C110.567 8.01532 111.062 12.5569 111.421 15.5427H109.135Z" fill="black"/>
<path d="M103.918 5.95697L104.604 1.7146H104.288H92.2019V5.6877V5.95697H95.4905V25.0566H100.283V5.95697H103.918Z" fill="black"/>
<path d="M21.5703 8.35651V7.5188C21.5703 3.43799 19.5052 1.7207 15.3212 1.7207H9.09007V25.0567H13.8828V14.9085H14.4498C16.2762 14.9085 16.5985 15.3573 16.5985 17.9841C16.5985 20.9639 16.6104 25.0567 16.6104 25.0567H21.3554V18.1696C21.3614 14.9145 20.6332 13.8435 19.0814 13.1434C20.1498 12.6707 21.5703 11.6834 21.5703 8.35651ZM14.4976 11.3722H13.9007V5.25102H14.6527C16.4194 5.25102 16.7537 6.02889 16.7537 7.59659V8.7215C16.7537 10.8935 16.0971 11.3663 14.4976 11.3663V11.3722Z" fill="black"/>
<path d="M62.6397 51.4922L62.6755 22.5316L51.2816 45.718L48.5421 34.5885L0 34.5347L1.73087 30.6154L50.5833 30.6573L51.6278 33.3679L67.7368 0.5L67.8383 31.0761L73.6636 19.462L78.0564 30.6393H131.827L130.269 34.5526H74.9946L73.3234 30.3043L62.6397 51.4922Z" fill="black"/>
<path d="M1.37276 87.699C2.55452 88.5965 5.15083 89.5001 8.5529 89.5001C11.197 89.5001 11.8595 88.6983 11.8595 87.2263C11.8595 85.7543 11.0597 85.144 8.74389 83.9593L7.70537 83.5344C2.60227 81.2128 0.94899 77.7603 0.94899 73.2606C0.94899 66.7744 4.87031 63.1304 11.8595 63.1304C15.6375 63.1304 18.1443 63.6509 20.2691 64.5485V72.4588C18.2398 71.7049 15.8285 71.2262 13.2322 71.2262C11.2029 71.2262 10.1644 71.8903 10.1644 73.2606C10.1644 74.7326 11.4894 75.2531 15.0288 76.9106L16.0673 77.3833C20.3646 79.322 21.6896 82.6848 21.6896 86.8074C21.6896 93.6706 17.4878 97.5061 9.92566 97.5061C6.3326 97.5061 3.26478 96.8898 1.37872 95.8008V87.705L1.37276 87.699Z" fill="black"/>
<path d="M57.7455 96.8896H48.6733V84.2941H42.3407V96.8896H33.2268V63.7405H42.3407V75.8154H48.6733V63.7405H57.7455V96.8896Z" fill="black"/>
<path d="M69.5035 80.3151C69.5035 68.0488 74.4156 63.1243 82.9685 63.1243C92.2734 63.1243 96.5768 68.3779 96.5768 80.3151C96.5768 93.1021 91.7124 97.506 83.1595 97.506C74.6066 97.506 69.5095 92.5336 69.5095 80.3151H69.5035ZM86.9794 80.3151C86.9794 73.5896 85.8453 71.3637 82.9625 71.3637C80.0797 71.3637 79.089 73.7332 79.089 80.3151C79.089 86.8971 80.5572 89.2666 83.1058 89.2666C85.6544 89.2666 86.9794 87.28 86.9794 80.3151Z" fill="black"/>
<path d="M117.467 96.8896H108.353V63.7405H119.454C127.201 63.7405 131.123 67.3845 131.123 75.5341C131.123 83.6838 127.44 88.1296 118.887 88.1296H117.467V96.8896ZM117.138 79.9859H118.887C120.916 79.9859 121.955 78.6157 121.955 75.9171C121.955 73.027 121.012 71.938 118.792 71.938H117.138V79.9859Z" fill="black"/>
</g>
<defs>
<clipPath id="clip0_71_667">
<rect width="132" height="97" fill="white" transform="translate(0 0.5)"/>
</clipPath>
</defs>
</svg>
