<svg width="48" height="49" viewBox="0 0 48 49" fill="none" xmlns="http://www.w3.org/2000/svg">
<path fill-rule="evenodd" clip-rule="evenodd" d="M24.2929 18.508C24.6834 18.1175 25.3166 18.1175 25.7071 18.508L30.7071 23.508C31.0976 23.8985 31.0976 24.5317 30.7071 24.9222L25.7071 29.9222C25.3166 30.3127 24.6834 30.3127 24.2929 29.9222C23.9024 29.5317 23.9024 28.8985 24.2929 28.508L27.5858 25.2151H18C17.4477 25.2151 17 24.7674 17 24.2151C17 23.6628 17.4477 23.2151 18 23.2151H27.5858L24.2929 19.9222C23.9024 19.5317 23.9024 18.8985 24.2929 18.508Z" fill="black"/>
<rect x="1" y="1.21509" width="46" height="46" stroke="black" stroke-width="2"/>
</svg>
